<svg xmlns="http://www.w3.org/2000/svg" viewBox="0 0 372 432" aria-hidden="true">
  <defs>
    <linearGradient id="crays-mark-gradient" x1="142.3" y1="384.63" x2="278.16" y2="37.66" gradientUnits="userSpaceOnUse">
      <stop offset="0" stop-color="#f35048"/>
      <stop offset=".99" stop-color="#f31248"/>
    </linearGradient>
  </defs>
  <path fill="url(#crays-mark-gradient)" d="m341.55,297.26c-6.1-3.4-19.2-9.11-38.34-9.11-4.5,0-9.13.32-13.75.97-29.2,4.06-55.02,19.99-80,35.41-24.64,15.21-47.92,29.58-70.35,29.58-1.25,0-2.51-.04-3.75-.14-18.34-21.8-27.55-45.14-33.11-59.23-6.42-16.28-14.17-42.57-14.63-75.36l-.04-3.55.04-3.65c.45-32.79,8.21-59.08,14.63-75.37,5.37-13.61,14.16-35.83,31.26-56.96.61-.84,1.32-1.6,1.96-2.42-.04.05-.08.1-.12.16,1.22-.09,2.45-.13,3.69-.13,1.93,0,3.92.11,5.93.32,4.49.48,9.02,1.5,13.59,2.91,16.39,5.07,33.26,15.46,50.91,26.35,24.97,15.41,50.79,31.35,79.99,35.41,4.62.64,9.25.97,13.75.97,19.14,0,32.24-5.71,38.34-9.11,11.7-6.53,18.28-14.63,21.15-18.88,13.37-19.75,9.84-41.28,8.44-47.41-4.64-20.32-18.28-31.88-24.1-36.82-18.31-15.53-50.25-27.14-83.36-30.29-6.26-.6-12.61-.9-18.86-.9-34.8,0-66.38,8.99-93.86,26.72-10.83,6.99-20.89,15.33-29.93,24.81-.05.01-.11.03-.16.04-13.61,16.67-25.51,34.57-35.54,53.34-3.89,8.31-6.83,15.73-9.15,21.62-7.28,18.46-16.07,48.24-16.58,85.26-.02,1.18-.03,2.5-.05,4.03.01,1.44.03,2.76.05,3.94.51,37.02,9.3,66.8,16.58,85.26,2.81,7.12,6.52,16.54,11.82,27.14-12.02-9.13-23.04-20.09-31.25-31.22-1.16-1.57-2.04-2.83-2.65-3.69-6.45-9.21-26.09-37.23-26.07-77.68,0-1.13.02-2.35.06-3.62v-.35c-.04-1.28-.06-2.49-.06-3.62-.02-40.45,19.62-68.47,26.08-77.7.59-.85,1.47-2.1,2.64-3.68.94-1.27,1.92-2.54,2.93-3.8,7.83-9.8,17.73-19.35,28.3-27.39,4.04-7.8,9.06-16.4,15.27-25.39,5.96-8.63,11.97-16.09,17.62-22.45-3.67.94-7.72,2.13-12,3.78-4.08,1.57-8.22,3.44-12.39,5.56-22.78,11.61-46.07,31.07-62.29,53.06-1.34,1.82-2.36,3.27-3.04,4.24C23.44,129.22-.02,162.7,0,211.99c0,1.2.02,2.46.05,3.79C.02,217.11,0,218.37,0,219.57c-.02,49.3,23.44,82.78,31.15,93.78.68.97,1.7,2.42,3.04,4.24,20.41,27.68,53.04,52.14,81.19,60.87,1.95.61,3.85,1.13,5.65,1.56,9.05,9.49,19.11,17.84,29.93,24.81,27.48,17.73,59.06,26.72,93.87,26.72,6.25,0,12.59-.3,18.86-.9,33.11-3.16,65.05-14.77,83.36-30.29,5.82-4.94,19.46-16.5,24.1-36.82,1.4-6.13,4.93-27.66-8.44-47.41-2.88-4.25-9.45-12.36-21.15-18.88ZM166.05,50.34s.07-.05.1-.07c22.57-14.56,49.87-22.26,78.95-22.26,37.69,0,69.86,12.73,83.81,24.55,4.31,3.66,12.34,10.47,14.91,21.69.54,2.38,2.89,14.79-4.32,25.45-1.19,1.76-4.71,6.28-11.59,10.11-2.34,1.3-11.03,5.55-24.78,5.55-3.2,0-6.5-.23-9.81-.69-23.36-3.25-46.63-17.61-69.13-31.49-12.15-7.5-24.56-15.16-37.35-21.28-7.8-3.74-15.74-6.9-23.86-9.11-.14-.04-.28-.08-.42-.11-1.51.91-3.24,2.03-5.09,3.32,2.79-2.01,5.63-3.93,8.58-5.66Zm177.76,306.97c-2.56,11.22-10.59,18.03-14.9,21.69-13.95,11.83-46.12,24.55-83.81,24.55-29.08,0-56.38-7.7-78.95-22.26-1.2-.78-2.4-1.58-3.59-2.4,21.52-5.76,41.85-18.31,61.63-30.52,22.5-13.89,45.77-28.25,69.13-31.49,3.31-.46,6.61-.69,9.81-.69,13.75,0,22.44,4.25,24.78,5.55,6.88,3.84,10.4,8.35,11.59,10.11,7.22,10.66,4.87,23.07,4.32,25.45Z"/>
  <path fill="#d10549" d="m59.68,126.8c7.83-9.8,17.73-19.35,28.3-27.39-.94,1.88-1.81,3.7-2.65,5.5,10.03-18.77,21.93-36.67,35.54-53.34-7.81,1.88-16.07,5.1-24.39,9.34-9.65,13.53-18.31,27.69-25.84,42.35-3.94,7.66-7.6,15.57-10.96,23.53Z"/>
  <path fill="#d10549" d="m166.22,73.9c6.33-4.96,13.24-8.96,20.61-11.99-7.8-3.74-15.74-6.9-23.86-9.11-.14-.04-.28-.08-.42-.11-2.4,1.45-5.3,3.35-8.44,5.76-1.16.89-4.6,3.58-8.71,7.62-2.9,2.85-6.42,6.67-10.06,11.53,1.22-.09,2.45-.13,3.69-.13,1.93,0,3.92.11,5.93.32,4.49.48,9.02,1.5,13.59,2.91,2.42-2.4,4.96-4.67,7.66-6.79Z"/>
  <path fill="#ce2e2e" d="m166.43,357.58c6.51,4.83,13.63,8.74,21.22,11.69-8.03,3.64-16.21,6.73-24.56,8.88-.14.04-.29.07-.43.11-2.47-1.41-5.45-3.26-8.69-5.62-1.19-.87-4.74-3.49-8.96-7.43-2.98-2.78-6.61-6.5-10.35-11.24,1.25.09,2.52.13,3.8.13,1.98,0,4.03-.1,6.1-.31,4.63-.46,9.29-1.46,13.99-2.84,2.49,2.34,5.11,4.56,7.89,6.62Z"/>
  <path fill="#ce2e2e" d="m60,304.66c7.83,9.8,17.73,19.35,28.3,27.39,4.04,7.8,9.06,16.4,15.27,25.39,5.96,8.63,11.97,16.09,17.62,22.45-3.67-.93-7.72-2.13-12-3.78-4.08-1.57-8.22-3.44-12.39-5.56-9.65-13.53-18.31-27.69-25.84-42.35-3.94-7.66-7.6-15.57-10.96-23.53Z"/>
</svg>
