<?xml version="1.0" encoding="UTF-8"?><svg version="1.1" width="20px" height="20px" viewBox="0 0 20.0 20.0" xmlns="http://www.w3.org/2000/svg" xmlns:xlink="http://www.w3.org/1999/xlink"><defs><clipPath id="i0"><path d="M948,0 L948,1228 L0,1228 L0,0 L948,0 Z"></path></clipPath><clipPath id="i1"><path d="M10,0 C15.5228475,0 20,4.4771525 20,10 C20,15.5228475 15.5228475,20 10,20 C4.4771525,20 0,15.5228475 0,10 C0,4.4771525 4.4771525,0 10,0 Z"></path></clipPath><clipPath id="i2"><path d="M26.0087557,0 C27.1084896,0 28,0.898212381 28,1.99079514 L28,18.0092049 C28,19.1086907 27.1001025,20 26.0087557,20 L1.99124431,20 C0.891510444,20 0,19.1017876 0,18.0092049 L0,1.99079514 C0,0.891309342 0.899897516,0 1.99124431,0 L26.0087557,0 Z"></path></clipPath><clipPath id="i3"><path d="M28,0 L28,10.6666667 L0,10.6666667 L0,0 L28,0 Z"></path></clipPath><clipPath id="i4"><path d="M4,0 C4.94511355,0 5.81366974,0.327780997 6.49819012,0.875864527 C6.13551461,0.74058951 5.74305678,0.666666667 5.33333333,0.666666667 C3.49238417,0.666666667 2,2.15905083 2,4 C2,5.84094917 3.49238417,7.33333333 5.33333333,7.33333333 C5.74305678,7.33333333 6.13551461,7.25941049 6.49809715,7.12417449 C5.81366974,7.672219 4.94511355,8 4,8 C1.790861,8 0,6.209139 0,4 C0,1.790861 1.790861,0 4,0 Z M6,5.33333333 C6.36818983,5.33333333 6.66666667,5.63181017 6.66666667,6 C6.66666667,6.36818983 6.36818983,6.66666667 6,6.66666667 C5.63181017,6.66666667 5.33333333,6.36818983 5.33333333,6 C5.33333333,5.63181017 5.63181017,5.33333333 6,5.33333333 Z M8.66666667,5.33333333 C9.0348565,5.33333333 9.33333333,5.63181017 9.33333333,6 C9.33333333,6.36818983 9.0348565,6.66666667 8.66666667,6.66666667 C8.29847683,6.66666667 8,6.36818983 8,6 C8,5.63181017 8.29847683,5.33333333 8.66666667,5.33333333 Z M4.66666667,2.66666667 C5.0348565,2.66666667 5.33333333,2.9651435 5.33333333,3.33333333 C5.33333333,3.70152317 5.0348565,4 4.66666667,4 C4.29847683,4 4,3.70152317 4,3.33333333 C4,2.9651435 4.29847683,2.66666667 4.66666667,2.66666667 Z M10,2.66666667 C10.3681898,2.66666667 10.6666667,2.9651435 10.6666667,3.33333333 C10.6666667,3.70152317 10.3681898,4 10,4 C9.63181017,4 9.33333333,3.70152317 9.33333333,3.33333333 C9.33333333,2.9651435 9.63181017,2.66666667 10,2.66666667 Z M7.33333333,0.666666667 C7.70152317,0.666666667 8,0.9651435 8,1.33333333 C8,1.70152317 7.70152317,2 7.33333333,2 C6.9651435,2 6.66666667,1.70152317 6.66666667,1.33333333 C6.66666667,0.9651435 6.9651435,0.666666667 7.33333333,0.666666667 Z"></path></clipPath></defs><g transform="translate(-738.0 -323.0)"><g clip-path="url(#i0)"><g transform="translate(738.0 323.0)"><g clip-path="url(#i1)"><polygon points="0,0 20,0 20,20 0,20 0,0" stroke="none" fill="#D7D7D7"></polygon><path d="M10,20 C15.5228475,20 20,15.5228475 20,10 C20,4.4771525 15.5228475,0 10,0 C4.4771525,0 0,4.4771525 0,10 C0,15.5228475 4.4771525,20 10,20 Z" stroke="#494949" stroke-width="2" fill="none" stroke-miterlimit="5"></path></g><g clip-path="url(#i1)"><g clip-path="url(#i2)"><polygon points="0,0 20,0 20,20 0,20 0,0" stroke="none" fill="#FFFFFF"></polygon><path d="M0,1.99079514 C0,0.891309342 0.899897516,0 1.99124431,0 L26.0087557,0 C27.1084896,0 28,0.898212381 28,1.99079514 L28,18.0092049 C28,19.1086907 27.1001025,20 26.0087557,20 L1.99124431,20 C0.891510444,20 0,19.1017876 0,18.0092049 L0,1.99079514 Z" stroke="#F5F5F5" stroke-width="1" fill="none" stroke-miterlimit="5"></path></g><g clip-path="url(#i2)"><g clip-path="url(#i3)"><polygon points="0,0 20,0 20,10.6666667 0,10.6666667 0,0" stroke="none" fill="#E12136"></polygon></g><g transform="translate(2.6666666666666865 1.3333333333333712)"><g clip-path="url(#i4)"><polygon points="0,0 10.6666667,0 10.6666667,8 0,8 0,0" stroke="none" fill="#FFFFFF"></polygon></g></g></g></g></g></g></g></svg>