<svg id="world" xmlns="http://www.w3.org/2000/svg" width="24" height="24" viewBox="0 0 24 24">
  <path id="Pfad_1" data-name="Pfad 1" d="M12,24A12,12,0,1,0,0,12,12.026,12.026,0,0,0,12,24Zm3.56-2.022a11.194,11.194,0,0,0,1.593-2.947h2.764A10.626,10.626,0,0,1,15.56,21.978Zm5.413-4.353H17.607a21.06,21.06,0,0,0,.71-4.922H22.57a10.523,10.523,0,0,1-1.6,4.922Zm0-11.25a10.523,10.523,0,0,1,1.6,4.922H18.317a21.06,21.06,0,0,0-.71-4.922ZM19.917,4.969H17.153A11.2,11.2,0,0,0,15.56,2.022,10.629,10.629,0,0,1,19.917,4.969ZM12.7,1.527c1.38.468,2.37,2.109,2.936,3.442H12.7Zm0,4.848h3.442A19.274,19.274,0,0,1,16.91,11.3H12.7Zm0,6.328H16.91a19.274,19.274,0,0,1-.765,4.922H12.7Zm0,6.328h2.936c-.567,1.336-1.557,2.975-2.936,3.443Zm-8.62,0H6.847A11.2,11.2,0,0,0,8.44,21.978,10.628,10.628,0,0,1,4.083,19.031ZM11.3,22.473c-1.379-.467-2.369-2.106-2.936-3.442H11.3Zm0-4.848H7.855A19.274,19.274,0,0,1,7.09,12.7H11.3Zm0-6.328H7.09a19.274,19.274,0,0,1,.765-4.922H11.3Zm0-9.77V4.969H8.361C8.928,3.633,9.918,1.994,11.3,1.527Zm-2.857.5A11.2,11.2,0,0,0,6.847,4.969H4.083A10.629,10.629,0,0,1,8.44,2.022ZM3.027,6.375H6.393a21.067,21.067,0,0,0-.71,4.922H1.43A10.526,10.526,0,0,1,3.027,6.375ZM1.43,12.7H5.683a21.06,21.06,0,0,0,.71,4.922H3.027A10.523,10.523,0,0,1,1.43,12.7Z"/>
</svg>
