<?xml version="1.0" encoding="UTF-8"?><svg version="1.1" width="20px" height="20px" viewBox="0 0 20.0 20.0" xmlns="http://www.w3.org/2000/svg" xmlns:xlink="http://www.w3.org/1999/xlink"><defs><clipPath id="i0"><path d="M948,0 L948,1228 L0,1228 L0,0 L948,0 Z"></path></clipPath><clipPath id="i1"><path d="M10,0 C15.5228475,0 20,4.4771525 20,10 C20,15.5228475 15.5228475,20 10,20 C4.4771525,20 0,15.5228475 0,10 C0,4.4771525 4.4771525,0 10,0 Z"></path></clipPath><clipPath id="i2"><path d="M26.0087557,0 C27.1084896,0 28,0.898212381 28,1.99079514 L28,18.0092049 C28,19.1086907 27.1001025,20 26.0087557,20 L1.99124431,20 C0.891510444,20 0,19.1017876 0,18.0092049 L0,1.99079514 C0,0.891309342 0.899897516,0 1.99124431,0 L26.0087557,0 Z"></path></clipPath><clipPath id="i3"><path d="M28,0 L28,9.33333333 L13.3333333,9.33333333 L13.3333333,0 L28,0 Z"></path></clipPath><clipPath id="i4"><path d="M13.3333333,0 L13.3333333,10.6666667 L0,10.6666667 L0,0 L13.3333333,0 Z"></path></clipPath><clipPath id="i5"><path d="M2.66666667,0 L3.30931187,1.78214143 L5.20281738,1.84262135 L3.70648845,3.00452524 L4.23409401,4.82404532 L2.66666667,3.75999999 L1.09923933,4.82404532 L1.62684488,3.00452524 L0.130515957,1.84262135 L2.02402146,1.78214143 L2.66666667,0 Z"></path></clipPath></defs><g transform="translate(-737.0 -291.0)"><g clip-path="url(#i0)"><g transform="translate(737.0 291.0)"><g clip-path="url(#i1)"><polygon points="0,0 20,0 20,20 0,20 0,0" stroke="none" fill="#D7D7D7"></polygon><path d="M10,20 C15.5228475,20 20,15.5228475 20,10 C20,4.4771525 15.5228475,0 10,0 C4.4771525,0 0,4.4771525 0,10 C0,15.5228475 4.4771525,20 10,20 Z" stroke="#494949" stroke-width="2" fill="none" stroke-miterlimit="5"></path></g><g clip-path="url(#i1)"><g transform="translate(-4.0 0.0)"><g clip-path="url(#i2)"><polygon points="4,0 24,0 24,20 4,20 4,0" stroke="none" fill="#FFFFFF"></polygon><path d="M0,1.99079514 C0,0.891309342 0.899897516,0 1.99124431,0 L26.0087557,0 C27.1084896,0 28,0.898212381 28,1.99079514 L28,18.0092049 C28,19.1086907 27.1001025,20 26.0087557,20 L1.99124431,20 C0.891510444,20 0,19.1017876 0,18.0092049 L0,1.99079514 Z" stroke="#F5F5F5" stroke-width="1" fill="none" stroke-miterlimit="5"></path></g><g clip-path="url(#i2)"><g clip-path="url(#i3)"><polygon points="13.3333333,0 24,0 24,9.33333333 13.3333333,9.33333333 13.3333333,0" stroke="none" fill="#E52447"></polygon></g><g transform="translate(0.0 9.333333333333371)"><g clip-path="url(#i4)"><polygon points="4,0 13.3333333,0 13.3333333,10.6666667 4,10.6666667 4,0" stroke="none" fill="#1267AE"></polygon></g></g><g transform="translate(3.9999999999999996 1.9999999999999996)"><g clip-path="url(#i5)"><polygon points="0.130515957,0 5.20281738,0 5.20281738,4.82404532 0.130515957,4.82404532 0.130515957,0" stroke="none" fill="#1267AE"></polygon></g></g><g transform="translate(18.0 12.0)"><g clip-path="url(#i5)"><polygon points="0.130515957,0 5.20281738,0 5.20281738,4.82404532 0.130515957,4.82404532 0.130515957,0" stroke="none" fill="#E52447"></polygon></g></g></g></g></g></g></g></g></svg>