<?xml version="1.0" encoding="UTF-8"?><svg version="1.1" width="20px" height="20px" viewBox="0 0 20.0 20.0" xmlns="http://www.w3.org/2000/svg" xmlns:xlink="http://www.w3.org/1999/xlink"><defs><clipPath id="i0"><path d="M948,0 L948,1228 L0,1228 L0,0 L948,0 Z"></path></clipPath><clipPath id="i1"><path d="M10,0 C15.5228475,0 20,4.4771525 20,10 C20,15.5228475 15.5228475,20 10,20 C4.4771525,20 0,15.5228475 0,10 C0,4.4771525 4.4771525,0 10,0 Z"></path></clipPath><clipPath id="i2"><path d="M26.0087557,0 C27.1084896,0 28,0.898212381 28,1.99079514 L28,18.0092049 C28,19.1086907 27.1001025,20 26.0087557,20 L1.99124431,20 C0.891510444,20 0,19.1017876 0,18.0092049 L0,1.99079514 C0,0.891309342 0.899897516,0 1.99124431,0 L26.0087557,0 Z"></path></clipPath><clipPath id="i3"><path d="M28,18.6666667 L28,20 L0,20 L0,18.6666667 L28,18.6666667 Z M28,16 L28,17.3333333 L0,17.3333333 L0,16 L28,16 Z M28,13.3333333 L28,14.6666667 L0,14.6666667 L0,13.3333333 L28,13.3333333 Z M28,10.6666667 L28,12 L0,12 L0,10.6666667 L28,10.6666667 Z M28,8 L28,9.33333333 L0,9.33333333 L0,8 L28,8 Z M28,5.33333333 L28,6.66666667 L0,6.66666667 L0,5.33333333 L28,5.33333333 Z M28,2.66666667 L28,4 L0,4 L0,2.66666667 L28,2.66666667 Z M28,0 L28,1.33333333 L0,1.33333333 L0,0 L28,0 Z"></path></clipPath><clipPath id="i4"><path d="M12,0 L12,9.33333333 L0,9.33333333 L0,0 L12,0 Z"></path></clipPath><clipPath id="i5"><path d="M8.66666667,5.33333333 C9.0348565,5.33333333 9.33333333,5.63181017 9.33333333,6 C9.33333333,6.36818983 9.0348565,6.66666667 8.66666667,6.66666667 C8.29847683,6.66666667 8,6.36818983 8,6 C8,5.63181017 8.29847683,5.33333333 8.66666667,5.33333333 Z M6,5.33333333 C6.36818983,5.33333333 6.66666667,5.63181017 6.66666667,6 C6.66666667,6.36818983 6.36818983,6.66666667 6,6.66666667 C5.63181017,6.66666667 5.33333333,6.36818983 5.33333333,6 C5.33333333,5.63181017 5.63181017,5.33333333 6,5.33333333 Z M3.33333333,5.33333333 C3.70152317,5.33333333 4,5.63181017 4,6 C4,6.36818983 3.70152317,6.66666667 3.33333333,6.66666667 C2.9651435,6.66666667 2.66666667,6.36818983 2.66666667,6 C2.66666667,5.63181017 2.9651435,5.33333333 3.33333333,5.33333333 Z M0.666666667,5.33333333 C1.0348565,5.33333333 1.33333333,5.63181017 1.33333333,6 C1.33333333,6.36818983 1.0348565,6.66666667 0.666666667,6.66666667 C0.298476833,6.66666667 0,6.36818983 0,6 C0,5.63181017 0.298476833,5.33333333 0.666666667,5.33333333 Z M7.33333333,4 C7.70152317,4 8,4.29847683 8,4.66666667 C8,5.0348565 7.70152317,5.33333333 7.33333333,5.33333333 C6.9651435,5.33333333 6.66666667,5.0348565 6.66666667,4.66666667 C6.66666667,4.29847683 6.9651435,4 7.33333333,4 Z M4.66666667,4 C5.0348565,4 5.33333333,4.29847683 5.33333333,4.66666667 C5.33333333,5.0348565 5.0348565,5.33333333 4.66666667,5.33333333 C4.29847683,5.33333333 4,5.0348565 4,4.66666667 C4,4.29847683 4.29847683,4 4.66666667,4 Z M2,4 C2.36818983,4 2.66666667,4.29847683 2.66666667,4.66666667 C2.66666667,5.0348565 2.36818983,5.33333333 2,5.33333333 C1.63181017,5.33333333 1.33333333,5.0348565 1.33333333,4.66666667 C1.33333333,4.29847683 1.63181017,4 2,4 Z M8.66666667,2.66666667 C9.0348565,2.66666667 9.33333333,2.9651435 9.33333333,3.33333333 C9.33333333,3.70152317 9.0348565,4 8.66666667,4 C8.29847683,4 8,3.70152317 8,3.33333333 C8,2.9651435 8.29847683,2.66666667 8.66666667,2.66666667 Z M6,2.66666667 C6.36818983,2.66666667 6.66666667,2.9651435 6.66666667,3.33333333 C6.66666667,3.70152317 6.36818983,4 6,4 C5.63181017,4 5.33333333,3.70152317 5.33333333,3.33333333 C5.33333333,2.9651435 5.63181017,2.66666667 6,2.66666667 Z M3.33333333,2.66666667 C3.70152317,2.66666667 4,2.9651435 4,3.33333333 C4,3.70152317 3.70152317,4 3.33333333,4 C2.9651435,4 2.66666667,3.70152317 2.66666667,3.33333333 C2.66666667,2.9651435 2.9651435,2.66666667 3.33333333,2.66666667 Z M0.666666667,2.66666667 C1.0348565,2.66666667 1.33333333,2.9651435 1.33333333,3.33333333 C1.33333333,3.70152317 1.0348565,4 0.666666667,4 C0.298476833,4 0,3.70152317 0,3.33333333 C0,2.9651435 0.298476833,2.66666667 0.666666667,2.66666667 Z M2,1.33333333 C2.36818983,1.33333333 2.66666667,1.63181017 2.66666667,2 C2.66666667,2.36818983 2.36818983,2.66666667 2,2.66666667 C1.63181017,2.66666667 1.33333333,2.36818983 1.33333333,2 C1.33333333,1.63181017 1.63181017,1.33333333 2,1.33333333 Z M4.66666667,1.33333333 C5.0348565,1.33333333 5.33333333,1.63181017 5.33333333,2 C5.33333333,2.36818983 5.0348565,2.66666667 4.66666667,2.66666667 C4.29847683,2.66666667 4,2.36818983 4,2 C4,1.63181017 4.29847683,1.33333333 4.66666667,1.33333333 Z M7.33333333,1.33333333 C7.70152317,1.33333333 8,1.63181017 8,2 C8,2.36818983 7.70152317,2.66666667 7.33333333,2.66666667 C6.9651435,2.66666667 6.66666667,2.36818983 6.66666667,2 C6.66666667,1.63181017 6.9651435,1.33333333 7.33333333,1.33333333 Z M0.666666667,0 C1.0348565,0 1.33333333,0.298476833 1.33333333,0.666666667 C1.33333333,1.0348565 1.0348565,1.33333333 0.666666667,1.33333333 C0.298476833,1.33333333 0,1.0348565 0,0.666666667 C0,0.298476833 0.298476833,0 0.666666667,0 Z M3.33333333,0 C3.70152317,0 4,0.298476833 4,0.666666667 C4,1.0348565 3.70152317,1.33333333 3.33333333,1.33333333 C2.9651435,1.33333333 2.66666667,1.0348565 2.66666667,0.666666667 C2.66666667,0.298476833 2.9651435,0 3.33333333,0 Z M6,0 C6.36818983,0 6.66666667,0.298476833 6.66666667,0.666666667 C6.66666667,1.0348565 6.36818983,1.33333333 6,1.33333333 C5.63181017,1.33333333 5.33333333,1.0348565 5.33333333,0.666666667 C5.33333333,0.298476833 5.63181017,0 6,0 Z M8.66666667,0 C9.0348565,0 9.33333333,0.298476833 9.33333333,0.666666667 C9.33333333,1.0348565 9.0348565,1.33333333 8.66666667,1.33333333 C8.29847683,1.33333333 8,1.0348565 8,0.666666667 C8,0.298476833 8.29847683,0 8.66666667,0 Z"></path></clipPath><linearGradient id="i6" x1="4.66666667px" y1="0px" x2="4.66666667px" y2="6.66666667px" gradientUnits="userSpaceOnUse"><stop stop-color="#FFFFFF" offset="0%"></stop><stop stop-color="#EFEFEF" offset="100%"></stop></linearGradient></defs><g transform="translate(-748.0 -260.0)"><g clip-path="url(#i0)"><g transform="translate(748.0 260.0)"><g clip-path="url(#i1)"><polygon points="0,0 20,0 20,20 0,20 0,0" stroke="none" fill="#D7D7D7"></polygon><g transform="translate(-2.0 0.0)"><g clip-path="url(#i2)"><polygon points="2,0 22,0 22,20 2,20 2,0" stroke="none" fill="#FFFFFF"></polygon><g clip-path="url(#i3)"><polygon points="2,0 22,0 22,20 2,20 2,0" stroke="none" fill="#D02F43"></polygon></g><g clip-path="url(#i4)"><polygon points="2,0 12,0 12,9.33333333 2,9.33333333 2,0" stroke="none" fill="#46467F"></polygon></g><g transform="translate(1.3333333333333712 1.333333333333485)"><g transform="translate(0.0 1.0)"><path d="M2,1.33333333 C2.36818983,1.33333333 2.66666667,1.63181017 2.66666667,2 C2.66666667,2.36818983 2.36818983,2.66666667 2,2.66666667 C1.63181017,2.66666667 1.33333333,2.36818983 1.33333333,2 C1.33333333,1.63181017 1.63181017,1.33333333 2,1.33333333 Z M0.666666667,0 C1.0348565,0 1.33333333,0.298476833 1.33333333,0.666666667 C1.33333333,1.0348565 1.0348565,1.33333333 0.666666667,1.33333333 C0.298476833,1.33333333 0,1.0348565 0,0.666666667 C0,0.298476833 0.298476833,0 0.666666667,0 Z M4.66666667,1.33333333 C5.0348565,1.33333333 5.33333333,1.63181017 5.33333333,2 C5.33333333,2.36818983 5.0348565,2.66666667 4.66666667,2.66666667 C4.29847683,2.66666667 4,2.36818983 4,2 C4,1.63181017 4.29847683,1.33333333 4.66666667,1.33333333 Z M3.33333333,0 C3.70152317,0 4,0.298476833 4,0.666666667 C4,1.0348565 3.70152317,1.33333333 3.33333333,1.33333333 C2.9651435,1.33333333 2.66666667,1.0348565 2.66666667,0.666666667 C2.66666667,0.298476833 2.9651435,0 3.33333333,0 Z M7.33333333,1.33333333 C7.70152317,1.33333333 8,1.63181017 8,2 C8,2.36818983 7.70152317,2.66666667 7.33333333,2.66666667 C6.9651435,2.66666667 6.66666667,2.36818983 6.66666667,2 C6.66666667,1.63181017 6.9651435,1.33333333 7.33333333,1.33333333 Z M6,0 C6.36818983,0 6.66666667,0.298476833 6.66666667,0.666666667 C6.66666667,1.0348565 6.36818983,1.33333333 6,1.33333333 C5.63181017,1.33333333 5.33333333,1.0348565 5.33333333,0.666666667 C5.33333333,0.298476833 5.63181017,0 6,0 Z M8.66666667,1.33333333 C9.0348565,1.33333333 9.33333333,1.0348565 9.33333333,0.666666667 C9.33333333,0.298476833 9.0348565,0 8.66666667,0 C8.29847683,0 8,0.298476833 8,0.666666667 C8,1.0348565 8.29847683,1.33333333 8.66666667,1.33333333 Z M8.66666667,4 C9.0348565,4 9.33333333,3.70152317 9.33333333,3.33333333 C9.33333333,2.9651435 9.0348565,2.66666667 8.66666667,2.66666667 C8.29847683,2.66666667 8,2.9651435 8,3.33333333 C8,3.70152317 8.29847683,4 8.66666667,4 Z M7.33333333,4 C7.70152317,4 8,4.29847683 8,4.66666667 C8,5.0348565 7.70152317,5.33333333 7.33333333,5.33333333 C6.9651435,5.33333333 6.66666667,5.0348565 6.66666667,4.66666667 C6.66666667,4.29847683 6.9651435,4 7.33333333,4 Z M6,2.66666667 C6.36818983,2.66666667 6.66666667,2.9651435 6.66666667,3.33333333 C6.66666667,3.70152317 6.36818983,4 6,4 C5.63181017,4 5.33333333,3.70152317 5.33333333,3.33333333 C5.33333333,2.9651435 5.63181017,2.66666667 6,2.66666667 Z M4.66666667,4 C5.0348565,4 5.33333333,4.29847683 5.33333333,4.66666667 C5.33333333,5.0348565 5.0348565,5.33333333 4.66666667,5.33333333 C4.29847683,5.33333333 4,5.0348565 4,4.66666667 C4,4.29847683 4.29847683,4 4.66666667,4 Z M3.33333333,2.66666667 C3.70152317,2.66666667 4,2.9651435 4,3.33333333 C4,3.70152317 3.70152317,4 3.33333333,4 C2.9651435,4 2.66666667,3.70152317 2.66666667,3.33333333 C2.66666667,2.9651435 2.9651435,2.66666667 3.33333333,2.66666667 Z M2,4 C2.36818983,4 2.66666667,4.29847683 2.66666667,4.66666667 C2.66666667,5.0348565 2.36818983,5.33333333 2,5.33333333 C1.63181017,5.33333333 1.33333333,5.0348565 1.33333333,4.66666667 C1.33333333,4.29847683 1.63181017,4 2,4 Z M0.666666667,2.66666667 C1.0348565,2.66666667 1.33333333,2.9651435 1.33333333,3.33333333 C1.33333333,3.70152317 1.0348565,4 0.666666667,4 C0.298476833,4 0,3.70152317 0,3.33333333 C0,2.9651435 0.298476833,2.66666667 0.666666667,2.66666667 Z M8.66666667,6.66666667 C9.0348565,6.66666667 9.33333333,6.36818983 9.33333333,6 C9.33333333,5.63181017 9.0348565,5.33333333 8.66666667,5.33333333 C8.29847683,5.33333333 8,5.63181017 8,6 C8,6.36818983 8.29847683,6.66666667 8.66666667,6.66666667 Z M6,6.66666667 C6.36818983,6.66666667 6.66666667,6.36818983 6.66666667,6 C6.66666667,5.63181017 6.36818983,5.33333333 6,5.33333333 C5.63181017,5.33333333 5.33333333,5.63181017 5.33333333,6 C5.33333333,6.36818983 5.63181017,6.66666667 6,6.66666667 Z M3.33333333,6.66666667 C3.70152317,6.66666667 4,6.36818983 4,6 C4,5.63181017 3.70152317,5.33333333 3.33333333,5.33333333 C2.9651435,5.33333333 2.66666667,5.63181017 2.66666667,6 C2.66666667,6.36818983 2.9651435,6.66666667 3.33333333,6.66666667 Z M0.666666667,6.66666667 C1.0348565,6.66666667 1.33333333,6.36818983 1.33333333,6 C1.33333333,5.63181017 1.0348565,5.33333333 0.666666667,5.33333333 C0.298476833,5.33333333 0,5.63181017 0,6 C0,6.36818983 0.298476833,6.66666667 0.666666667,6.66666667 Z" stroke="none" fill="rgba(0, 0, 0, 0.06)" style="mix-blend-mode:darken"></path></g><g clip-path="url(#i5)"><polygon points="0.666666667,0 9.33333333,0 9.33333333,6.66666667 0.666666667,6.66666667 0.666666667,0" stroke="none" fill="url(#i6)"></polygon></g></g></g></g></g></g></g></g></svg>