<?xml version="1.0" encoding="UTF-8"?><svg version="1.1" width="20px" height="20px" viewBox="0 0 20.0 20.0" xmlns="http://www.w3.org/2000/svg" xmlns:xlink="http://www.w3.org/1999/xlink"><defs><clipPath id="i0"><path d="M948,0 L948,1228 L0,1228 L0,0 L948,0 Z"></path></clipPath><clipPath id="i1"><path d="M10,0 C15.5228475,0 20,4.4771525 20,10 C20,15.5228475 15.5228475,20 10,20 C4.4771525,20 0,15.5228475 0,10 C0,4.4771525 4.4771525,0 10,0 Z"></path></clipPath><clipPath id="i2"><path d="M26.0087557,0 C27.1084896,0 28,0.898212381 28,1.99079514 L28,18.0092049 C28,19.1086907 27.1001025,20 26.0087557,20 L1.99124431,20 C0.891510444,20 0,19.1017876 0,18.0092049 L0,1.99079514 C0,0.891309342 0.899897516,0 1.99124431,0 L26.0087557,0 Z"></path></clipPath><clipPath id="i3"><path d="M28,0 L28,5.33333333 L0,5.33333333 L0,0 L28,0 Z"></path></clipPath><clipPath id="i4"><path d="M28,0 L28,9.33333333 L0,9.33333333 L0,0 L28,0 Z"></path></clipPath><clipPath id="i5"><path d="M1.33333333,-3.78215977e-14 L1.33333333,0.666666667 L0,0.666666667 L0,-3.78215977e-14 L1.33333333,-3.78215977e-14 Z"></path></clipPath><clipPath id="i6"><path d="M2.60597901,0 C2.97852255,0 3.25655624,0.287670135 3.22548553,0.660518646 L3.05819059,2.66805792 C3.00072096,3.35769351 2.43329845,3.92491459 1.75160677,3.99312333 L1.61386208,4 C0.877482418,4 0.23134427,3.40978622 0.169533578,2.66805792 L0.00223863825,0.660518646 C-0.028160893,0.295724271 0.254812605,0 0.621745156,0 L2.60597901,0 Z"></path></clipPath><clipPath id="i7"><path d="M2.66666667,0 L2.66666667,0.666666667 L2,0.666666667 L1.33333333,2 L0.666666667,0.666666667 L0,0.666666667 L0,0 L2.66666667,0 Z"></path></clipPath><clipPath id="i8"><path d="M0.666666667,0 C1.0348565,0 1.33333333,0.306193034 1.33333333,0.668619553 L1.33333333,3.99804711 C1.33333333,4.33374564 1.08877971,4.61166135 0.765760357,4.65941711 L0.666666667,4.66666667 C0.298476833,4.66666667 0,4.36047363 0,3.99804711 L0,0.668619553 C0,0.332921024 0.244553621,0.0550053138 0.567572976,0.00724955272 L0.666666667,0 Z"></path></clipPath><clipPath id="i9"><path d="M1.99375407,0 C2.36539343,0 2.66666667,0.295909882 2.66666667,0.666666667 L2.66666667,0.996877035 C2.66666667,1.18269672 2.52329508,1.33333333 2.33968099,1.33333333 L0.326985677,1.33333333 C0.146396474,1.33333333 0,1.19064331 0,0.996877035 L0,0.666666667 C0,0.298476833 0.305900574,0 0.672912598,0 L1.99375407,0 Z"></path></clipPath></defs><g transform="translate(-708.0 -264.0)"><g clip-path="url(#i0)"><g transform="translate(708.0 264.0)"><g clip-path="url(#i1)"><polygon points="0,0 20,0 20,20 0,20 0,0" stroke="none" fill="#D7D7D7"></polygon><g clip-path="url(#i2)"><polygon points="0,0 20,0 20,20 0,20 0,0" stroke="none" fill="#FFFFFF"></polygon><g clip-path="url(#i3)"><polygon points="0,0 20,0 20,5.33333333 0,5.33333333 0,0" stroke="none" fill="#DD162C"></polygon></g><g transform="translate(0.0 14.66666666666663)"><g clip-path="url(#i3)"><polygon points="0,0 20,0 20,5.33333333 0,5.33333333 0,0" stroke="none" fill="#DD162C"></polygon></g></g><g transform="translate(0.0 5.333333333333371)"><g clip-path="url(#i4)"><polygon points="0,0 20,0 20,9.33333333 0,9.33333333 0,0" stroke="none" fill="#FFD133"></polygon></g></g><g transform="translate(7.333333333333371 9.333333333333371)"><g clip-path="url(#i5)"><polygon points="0,-3.78215977e-14 1.33333333,-3.78215977e-14 1.33333333,0.666666667 0,0.666666667 0,-3.78215977e-14" stroke="none" fill="#FFEDB0"></polygon></g></g><g transform="translate(5.719471248939271 8.666666666666629)"><g clip-path="url(#i6)"><path d="M0.00223863825,0.660518646 C-0.028160893,0.295724271 0.254812605,0 0.621745156,0 L2.60597901,0 C2.97852255,0 3.25655624,0.287670135 3.22548553,0.660518646 L3.05819059,2.66805792 C2.99688965,3.40366922 2.35537565,4 1.61386208,4 L1.61386208,4 C0.877482418,4 0.23134427,3.40978622 0.169533578,2.66805792 L0.00223863825,0.660518646 Z" stroke="#A31517" stroke-width="1.33333333" fill="none" stroke-miterlimit="5"></path></g></g><g transform="translate(6.0 10.0)"><g clip-path="url(#i7)"><polygon points="0,0 2.66666667,0 2.66666667,2 0,2 0,0" stroke="none" fill="#A31517"></polygon></g></g><g transform="translate(3.9999999999999996 7.999999999999999)"><g clip-path="url(#i8)"><polygon points="0,0 1.33333333,0 1.33333333,4.66666667 0,4.66666667 0,0" stroke="none" fill="#A31517"></polygon></g></g><g transform="translate(9.333333333333371 7.999999999999999)"><g clip-path="url(#i8)"><polygon points="0,0 1.33333333,0 1.33333333,4.66666667 0,4.66666667 0,0" stroke="none" fill="#A31517"></polygon></g></g><g transform="translate(6.0 6.666666666666629)"><g clip-path="url(#i9)"><polygon points="0,0 2.66666667,0 2.66666667,1.33333333 0,1.33333333 0,0" stroke="none" fill="#A31517"></polygon></g></g></g></g></g></g></g></svg>