<?xml version="1.0" encoding="UTF-8"?><svg version="1.1" width="20px" height="20px" viewBox="0 0 20.0 20.0" xmlns="http://www.w3.org/2000/svg" xmlns:xlink="http://www.w3.org/1999/xlink"><defs><clipPath id="i0"><path d="M948,0 L948,1228 L0,1228 L0,0 L948,0 Z"></path></clipPath><clipPath id="i1"><path d="M10,0 C15.5228475,0 20,4.4771525 20,10 C20,15.5228475 15.5228475,20 10,20 C4.4771525,20 0,15.5228475 0,10 C0,4.4771525 4.4771525,0 10,0 Z"></path></clipPath><clipPath id="i2"><path d="M26.0087557,0 C27.1084896,0 28,0.898212381 28,1.99079514 L28,18.0092049 C28,19.1086907 27.1001025,20 26.0087557,20 L1.99124431,20 C0.891510444,20 0,19.1017876 0,18.0092049 L0,1.99079514 C0,0.891309342 0.899897516,0 1.99124431,0 L26.0087557,0 Z"></path></clipPath><clipPath id="i3"><path d="M28,0 L28,20 L0,20 L0,0 L28,0 Z"></path></clipPath><clipPath id="i4"><path d="M11.5637438,0.149089119 L21.7730336,6.75510017 C22.0834296,6.95594467 22.0770489,7.28570669 21.7730336,7.48242245 L11.5637438,14.0884335 C11.2533477,14.289278 10.7437155,14.2851493 10.4397003,14.0884335 L0.230410456,7.48242245 C-0.0799855923,7.28157795 -0.0736048129,6.95181593 0.230410456,6.75510017 L10.4397003,0.149089119 C10.7500963,-0.0517553832 11.2597285,-0.0476266436 11.5637438,0.149089119 Z"></path></clipPath><clipPath id="i5"><path d="M4.66666667,0 C7.2439955,0 9.33333333,2.08933783 9.33333333,4.66666667 C9.33333333,7.2439955 7.2439955,9.33333333 4.66666667,9.33333333 C2.08933783,9.33333333 0,7.2439955 0,4.66666667 C0,2.08933783 2.08933783,0 4.66666667,0 Z"></path></clipPath></defs><g transform="translate(-778.0 -470.0)"><g clip-path="url(#i0)"><g transform="translate(778.0 470.0)"><g clip-path="url(#i1)"><polygon points="0,0 20,0 20,20 0,20 0,0" stroke="none" fill="#D7D7D7"></polygon><g transform="translate(-4.0 0.0)"><g clip-path="url(#i2)"><polygon points="4,0 24,0 24,20 4,20 4,0" stroke="none" fill="#FFFFFF"></polygon><g clip-path="url(#i3)"><polygon points="4,0 24,0 24,20 4,20 4,0" stroke="none" fill="#05AB41"></polygon></g><g transform="translate(2.9982779727961315 2.8812386882798933)"><g clip-path="url(#i4)"><polygon points="1.00172203,8.60422844e-16 21.001722,8.60422844e-16 21.001722,14.2375226 1.00172203,14.2375226 1.00172203,8.60422844e-16" stroke="none" fill="#FDD216"></polygon></g></g><g transform="translate(9.333333333333371 5.333333333333314)"><g clip-path="url(#i5)"><polygon points="0,0 9.33333333,0 9.33333333,9.33333333 0,9.33333333 0,0" stroke="none" fill="#052F87"></polygon><g transform="translate(-0.5124547397698089 3.057461144003915) rotate(6.0)"><path d="M4.4408921e-16,0.391604445 C0.666666667,-0.275062193 3.07682292,0.0367867934 5.33333333,0.391604456 C7.58984375,0.746422118 10.0081222,1.7330601 10.6666667,2.39160445" stroke="#FFFFFF" stroke-width="1.33333333" fill="none" stroke-linecap="square" stroke-miterlimit="10"></path></g></g></g></g></g></g></g></g></g></svg>