<?xml version="1.0" encoding="UTF-8"?><svg version="1.1" width="24px" height="24px" viewBox="0 0 24.0 24.0" xmlns="http://www.w3.org/2000/svg" xmlns:xlink="http://www.w3.org/1999/xlink"><defs><clipPath id="i0"><path d="M1559,0 L1559,819 L0,819 L0,0 L1559,0 Z"></path></clipPath><clipPath id="i1"><path d="M4,0 C4.55228475,0 5,0.44771525 5,1 C6.5711417,0.99768539 8.09698098,1.52626713 9.33,2.5 L11.5,2.5 C12.833,2.5 14.03,3.08 14.854,4 L18,4 C19.929307,3.99946777 21.6867839,5.10898209 22.516,6.851 C20.151,9.972 16.322,12 12,12 C9.21,12 6.85,11.397 4.94,10.342 C4.79667503,10.737536 4.42070213,11.0007171 4,11 L1,11 C0.44771525,11 0,10.5522847 0,10 L0,1 C0,0.44771525 0.44771525,0 1,0 L4,0 Z M5.002,2.9999987 L5,8.022 L5.045,8.054 C6.84,9.314 9.178,9.9999987 12,9.9999987 C15.004,9.9999987 17.799,8.844 19.835,6.87 L19.968,6.737 L19.848,6.637 C19.3758006,6.26716922 18.8034075,6.04768797 18.205,6.007 L18,5.9999987 L15.889,5.9999987 C15.961,6.322 16,6.656 16,6.9999987 L16,7.9999987 L7,7.9999987 L7,5.9999987 L13.79,5.999 L13.756,5.921 C13.3657965,5.10562939 12.5659843,4.5642651 11.664,4.505 L11.5,4.4999987 L8.57,4.4999987 C7.6312391,3.53984829 6.34481882,2.99903259 5.002,2.9999987 Z M3,2 L2,2 L2,9 L3,9 L3,2 Z"></path></clipPath><clipPath id="i2"><path d="M3,0 C4.65685425,0 6,1.34314575 6,3 C6,4.65685425 4.65685425,6 3,6 C1.34314575,6 0,4.65685425 0,3 C0,1.34314575 1.34314575,0 3,0 Z"></path></clipPath><clipPath id="i3"><path d="M3,0 C4.65685425,0 6,1.34314575 6,3 C6,4.65685425 4.65685425,6 3,6 C1.34314575,6 0,4.65685425 0,3 C0,1.34314575 1.34314575,0 3,0 Z"></path></clipPath></defs><g transform="translate(-101.0 -81.0)"><g clip-path="url(#i0)"><g transform="translate(101.0 81.0)"><g transform="translate(1.0 9.0)"><g clip-path="url(#i1)"><polygon points="0,0 22.516,0 22.516,12 0,12 0,0" stroke="none" fill="#000000"></polygon></g></g><g transform="translate(15.0 5.0)"><g clip-path="url(#i2)"><polygon points="0,0 6,0 6,6 0,6 0,0" stroke="none" fill="#F31248"></polygon></g></g><g transform="translate(8.0 2.0)"><g clip-path="url(#i3)"><polygon points="0,0 6,0 6,6 0,6 0,0" stroke="none" fill="#F31248"></polygon></g></g></g></g></g></svg>