<?xml version="1.0" encoding="UTF-8"?><svg version="1.1" width="24px" height="24px" viewBox="0 0 24.0 24.0" xmlns="http://www.w3.org/2000/svg" xmlns:xlink="http://www.w3.org/1999/xlink"><defs><clipPath id="i0"><path d="M1559,0 L1559,819 L0,819 L0,0 L1559,0 Z"></path></clipPath><clipPath id="i1"><path d="M2,0 L2,16 L18,16 L18,18 L0,18 L0,0 L2,0 Z"></path></clipPath><clipPath id="i2"><path d="M13,0 L14.414,1.414 L8.707,7.121 L5.707,4.122 L1.414,8.414 L0,7 L5.707,1.293 L8.707,4.292 L13,0 Z"></path></clipPath></defs><g transform="translate(-77.0 -40.0)"><g clip-path="url(#i0)"><g transform="translate(77.0 40.0)"><g transform="translate(3.0 3.0)"><g clip-path="url(#i1)"><polygon points="0,0 18,0 18,18 0,18 0,0" stroke="none" fill="#000000"></polygon></g></g><g transform="translate(7.292999999999666 6.293000000000006)"><g clip-path="url(#i2)"><polygon points="0,0 14.414,0 14.414,8.414 0,8.414 0,0" stroke="none" fill="#F31248"></polygon></g></g></g></g></g></svg>