<?xml version="1.0" encoding="UTF-8"?><svg version="1.1" width="239px" height="239px" viewBox="0 0 239.0 239.0" xmlns="http://www.w3.org/2000/svg" xmlns:xlink="http://www.w3.org/1999/xlink"><defs><clipPath id="i0"><path d="M3000,0 L3000,2204 L0,2204 L0,0 L3000,0 Z"></path></clipPath><clipPath id="i1"><path d="M99.5,0 C154.45385,0 199,44.54615 199,99.5 C199,154.45385 154.45385,199 99.5,199 C44.54615,199 0,154.45385 0,99.5 C0,44.54615 44.54615,0 99.5,0 Z"></path></clipPath><clipPath id="i2"><path d="M98.49505,0 L112.56435,14.0693 L42.21785,84.42575 L0,42.2079 L14.0693,28.1386 L42.21785,56.28715 L98.49505,0 Z"></path></clipPath></defs><g transform="translate(-2321.0 -940.0)"><g clip-path="url(#i0)"><g transform="translate(2321.0 940.0)"><g transform="translate(20.0 20.0)"><g clip-path="url(#i1)"><polygon points="0,0 199,0 199,199 0,199 0,0" stroke="none" fill="#FFFFFF"></polygon></g></g><g transform="translate(67.36200000000008 74.87424999999985)"><g clip-path="url(#i2)"><polygon points="0,0 112.56435,0 112.56435,84.42575 0,84.42575 0,0" stroke="none" fill="#F31248"></polygon></g></g></g></g></g></svg>