<?xml version="1.0" encoding="UTF-8"?><svg version="1.1" width="24px" height="24px" viewBox="0 0 24.0 24.0" xmlns="http://www.w3.org/2000/svg" xmlns:xlink="http://www.w3.org/1999/xlink"><defs><clipPath id="i0"><path d="M1559,0 L1559,819 L0,819 L0,0 L1559,0 Z"></path></clipPath><clipPath id="i1"><path d="M7,0 L7,2.124 C3.45465996,3.56361492 1.42441311,7.31151153 2.155254,11.0675465 C2.8860949,14.8235815 6.17352645,17.5367761 10,17.542 C13.2602948,17.54191 16.1946256,15.564065 17.418,12.542 L19.542,12.542 C18.268,16.599 14.478,19.542 10,19.542 C4.477,19.542 0,15.065 0,9.542 C0,5.064 2.943,1.274 7,0 Z"></path></clipPath><clipPath id="i2"><path d="M1,0 C6.523,0 11,4.477 11,10 C11,10.337 10.983,10.671 10.95,11 L0,11 L0,0.05 C0.329,0.017 0.663,0 1,0 Z"></path></clipPath></defs><g transform="translate(-174.0 -87.0)"><g clip-path="url(#i0)"><g transform="translate(174.0 87.0)"><g transform="translate(2.0 2.45799999999997)"><g clip-path="url(#i1)"><polygon points="0,0 19.542,0 19.542,19.542 0,19.542 0,0" stroke="none" fill="#000000"></polygon></g></g><g transform="translate(11.0 2.0)"><g clip-path="url(#i2)"><polygon points="0,0 11,0 11,11 0,11 0,0" stroke="none" fill="#F31248"></polygon></g></g></g></g></g></svg>