<?xml version="1.0" encoding="UTF-8"?><svg version="1.1" width="48px" height="48px" viewBox="0 0 48.0 48.0" xmlns="http://www.w3.org/2000/svg" xmlns:xlink="http://www.w3.org/1999/xlink"><defs><clipPath id="i0"><path d="M24,0 C37.2548346,0 48,10.7451654 48,24 C48,37.2548346 37.2548346,48 24,48 C10.7451654,48 0,37.2548346 0,24 C0,10.7451654 10.7451654,0 24,0 Z M25.1998379,11.2008274 L22.7988509,11.2008274 C21.1085487,11.2035554 20.3678488,11.2135315 19.6629144,11.238062 L19.4404266,11.2463008 C19.2169959,11.2550405 18.9875392,11.2653082 18.7232784,11.2773342 C17.3605975,11.3397348 16.4304545,11.5554704 15.6165794,11.872007 C14.7747039,12.1989438 14.0605631,12.6362816 13.349089,13.3480224 C12.6370816,14.0594965 12.1997438,14.7736372 11.8717403,15.615246 C11.5544037,16.4293878 11.3384014,17.3597975 11.2770674,18.721945 C11.265248,18.9862059 11.2551168,19.2156725 11.246463,19.4391193 L11.238294,19.6616252 C11.2139357,20.3666222 11.203689,21.1074332 11.2008616,22.7977721 L11.200839,25.2024215 C11.203601,26.8925401 11.2136725,27.6326847 11.2381757,28.3373062 L11.2464015,28.5597039 C11.2551237,28.783054 11.2653598,29.0124608 11.2773342,29.2767216 C11.3400014,30.6394025 11.555737,31.5695455 11.872007,32.3834206 C12.1992104,33.2252961 12.6365483,33.9394369 13.348289,34.650911 C14.0594965,35.3629184 14.7736372,35.801323 15.6149794,36.1282597 C16.4293878,36.4447963 17.3597975,36.6605319 18.7222117,36.7229326 C19.9994723,36.7810578 20.4634369,36.79811 23.3637137,36.8000683 L24.6355702,36.8000683 C27.5361632,36.79811 27.9991944,36.7810578 29.276455,36.7229326 C30.6391358,36.6605319 31.5703455,36.4447963 32.384754,36.1282597 C33.2263628,35.801323 33.9394369,35.3629184 34.6506442,34.650911 C35.3626517,33.9394369 35.7999896,33.2252961 36.127993,32.3836874 C36.442663,31.5695455 36.6586652,30.6391358 36.7226658,29.2769883 C36.7345369,29.0127275 36.7447098,28.7833107 36.7533971,28.5599445 L36.761597,28.3375287 C36.7860454,27.6328447 36.7963078,26.892589 36.7991378,25.2024337 L36.7999491,24.3271895 C36.7999834,24.2212465 36.8,24.1122722 36.8,24.0001334 L36.7999491,23.6730739 L36.7991378,22.7977843 C36.7963078,21.1074821 36.7860454,20.3667822 36.761597,19.6618477 L36.7533971,19.4393599 C36.7447098,19.2159292 36.7345369,18.9864725 36.7226658,18.7222117 C36.6586652,17.3595308 36.442663,16.4293878 36.127993,15.6155126 C35.7999896,14.7736372 35.3626517,14.0594965 34.6506442,13.3480224 C33.9386369,12.636015 33.2266294,12.198677 32.383954,11.872007 C31.5679455,11.5554704 30.6372691,11.3397348 29.2745882,11.2773342 C29.0103274,11.2653082 28.7809307,11.2550405 28.5575889,11.2463008 L28.3351986,11.238062 C27.6305962,11.2135315 26.8904157,11.2035554 25.1998379,11.2008274 Z"></path></clipPath><clipPath id="i1"><path d="M9.345164,0 C9.5155658,0.0029334 9.69583436,0.0029334 9.88690302,0.00300007 L11.6744279,0.00389183989 C13.2457017,0.00608570674 13.9734393,0.0140162375 14.6322993,0.0348876034 L14.9595758,0.0464350419 C15.1787155,0.0548967397 15.4045476,0.0649297187 15.6657632,0.0768008 C16.9137762,0.13386808 17.5911166,0.3424036 18.0423213,0.51760544 C18.6396609,0.74960784 19.0655319,1.02694408 19.5132699,1.47494872 C19.9612746,1.92295336 20.2386108,2.34962448 20.4711466,2.94696408 C20.6463484,3.39763544 20.8551506,4.07497584 20.9119512,5.3229888 C20.9238223,5.58415281 20.9338952,5.80995328 20.9424214,6.02906388 L20.9540819,6.35629659 C20.9763822,7.05166221 20.9844319,7.82370979 20.9862126,9.58296065 L20.9862126,11.404458 C20.9844319,13.1637089 20.9763822,13.9357564 20.9540819,14.6311221 L20.9424214,14.9583548 C20.9338952,15.1774654 20.9238223,15.4032658 20.9119512,15.6644298 C20.8548839,16.9124429 20.6463484,17.5897833 20.4711466,18.0404546 C20.2391442,18.6377942 19.9612746,19.0631319 19.5132699,19.5108699 C19.0652653,19.9588746 18.6399275,20.2362108 18.0423213,20.4682132 C17.5916499,20.644215 16.9137762,20.8522172 15.6657632,20.9092845 C15.4045992,20.9211556 15.1787987,20.9312285 14.9596765,20.9397547 L14.6324163,20.9514152 C13.9735705,20.9725418 13.2457456,20.9808784 11.6744395,20.9832115 L9.31236747,20.9832115 C7.74097876,20.9808784 7.0132162,20.9725418 6.35442121,20.9514152 L6.02718463,20.9397547 C5.8080766,20.9312285 5.5822861,20.9211556 5.32112208,20.9092845 C4.07310912,20.8516839 3.39576872,20.6431484 2.94429736,20.4679466 C2.34695776,20.2359442 1.92028672,19.9586079 1.472282,19.5106033 C1.02427736,19.0625986 0.74694112,18.6369942 0.51440536,18.0393879 C0.33920352,17.5887166 0.13040136,16.9113762 0.0736008,15.6633632 C0.0617297032,15.4021992 0.0516967118,15.1763987 0.0432350039,14.9572726 L0.031687552,14.6300032 C0.0108161627,13.9711313 0.00288562769,13.2432281 0.000691760062,11.6716871 L0.000691760062,9.30942883 C0.00288562769,7.73816627 0.0108161627,7.01107512 0.031687552,6.35271374 L0.0432350039,6.02567053 C0.0516967118,5.80667336 0.0617297032,5.58095281 0.0736008,5.3197888 C0.13066808,4.07177576 0.33920352,3.39443536 0.51440536,2.94323072 C0.74640776,2.34589112 1.02427736,1.91922 1.472282,1.47121536 C1.92028672,1.02321064 2.34695776,0.74587448 2.94429736,0.51333872 C3.39550208,0.33733688 4.07310912,0.12933472 5.32112208,0.0720008 C6.5019344,0.01866688 6.9595392,0.00266672 9.345164,0 Z M10.493176,3.92324088 C6.86327152,3.92324088 3.92004088,6.86647152 3.92004088,10.4966427 C3.92004088,14.1268138 6.86327152,17.0687111 10.4934426,17.0687111 C14.1236138,17.0687111 17.0657778,14.1268138 17.0657778,10.4966427 C17.0657778,6.86647152 14.1233471,3.92324088 10.493176,3.92324088 Z M17.3260471,2.12802216 C16.4780383,2.12855552 15.7900311,2.81576272 15.7900311,3.66403816 C15.7900311,4.51204704 16.4780383,5.20005416 17.3260471,5.20005416 C18.174056,5.20005416 18.8620631,4.51204704 18.8620631,3.66403816 C18.8620631,2.81602936 18.174056,2.12802216 17.3260471,2.12802216 Z"></path></clipPath><clipPath id="i2"><path d="M4.26671112,0 C6.62300232,0 8.53342224,1.9101532 8.53342224,4.26671112 C8.53342224,6.62300232 6.62300232,8.53342224 4.26671112,8.53342224 C1.91015328,8.53342224 0,6.62300232 0,4.26671112 C0,1.9101532 1.91015328,0 4.26671112,0 Z"></path></clipPath></defs><g clip-path="url(#i0)"><polygon points="0,0 48,0 48,48 0,48 0,0" stroke="none" fill="#F31248"></polygon></g><g transform="translate(13.507757359999909 13.50349064)"><g clip-path="url(#i1)"><polygon points="0,0 20.9866186,0 20.9866186,20.9839519 0,20.9839519 0,0" stroke="none" fill="#F31248"></polygon></g></g><g transform="translate(19.73448888000007 19.73342223999998)"><g clip-path="url(#i2)"><polygon points="0,0 8.53342224,0 8.53342224,8.53342224 0,8.53342224 0,0" stroke="none" fill="#F31248"></polygon></g></g></svg>