<?xml version="1.0" encoding="UTF-8"?><svg version="1.1" width="24px" height="24px" viewBox="0 0 24.0 24.0" xmlns="http://www.w3.org/2000/svg" xmlns:xlink="http://www.w3.org/1999/xlink"><defs><clipPath id="i0"><path d="M1559,0 L1559,819 L0,819 L0,0 L1559,0 Z"></path></clipPath><clipPath id="i1"><path d="M9.91361185,0.966514514 L6.50061185,4.38051451 C4.96326165,5.91480031 4.9312032,8.39554522 6.42839173,9.9690461 C7.92558027,11.542547 10.4048552,11.6337543 12.0136119,10.1745145 L12.1576119,10.0375145 L16.4006119,14.2795145 L12.1576119,18.5225145 C11.3766121,19.3032784 10.1106116,19.3032784 9.32961185,18.5225145 L1.90361185,11.0965145 C-0.634537284,8.55815102 -0.634537284,4.44287801 1.90361185,1.90451451 C4.03480062,-0.225392024 7.34891946,-0.613535796 9.91361185,0.966514514 Z"></path></clipPath><clipPath id="i2"><path d="M13.2475073,3.14220198 C14.6960341,5.54270873 14.4421274,8.6014944 12.617626,10.7303104 L10.509626,12.8653104 L5.55962599,7.91531036 C5.16912614,7.52592842 4.53612584,7.52592842 4.14562599,7.91631036 L3.43862599,8.62231036 C2.93647705,9.14222353 2.1928702,9.35073556 1.49361134,9.16770468 C0.794352475,8.98467379 0.248262555,8.43858387 0.0652316735,7.73932501 C-0.117799208,7.04006615 0.0907128178,6.2964593 0.610625987,5.79431036 L6.24062599,0.162310362 C8.97448887,-0.459506621 11.7989804,0.741695223 13.2475073,3.14220198 Z"></path></clipPath></defs><g transform="translate(-184.0 -34.0)"><g clip-path="url(#i0)"><g transform="translate(184.0 34.0)"><g transform="translate(1.2563881472306093 2.5634854860998075)"><g clip-path="url(#i1)"><polygon points="2.22044605e-16,-6.66133815e-16 16.4006119,-6.66133815e-16 16.4006119,19.1080874 2.22044605e-16,19.1080874 2.22044605e-16,-6.66133815e-16" stroke="none" fill="#000000"></polygon></g></g><g transform="translate(8.561374013311251 2.5636896380868848)"><g clip-path="url(#i2)"><polygon points="-8.32667268e-17,0 14.1822845,0 14.1822845,12.8653104 -8.32667268e-17,12.8653104 -8.32667268e-17,0" stroke="none" fill="#F31248"></polygon></g></g></g></g></g></svg>