<?xml version="1.0" encoding="UTF-8"?>
<svg version="1.1" xmlns="http://www.w3.org/2000/svg" width="512" height="512">
<path d="M0 0 C1.3365287 -0.01469078 1.3365287 -0.01469078 2.70005798 -0.02967834 C22.60828118 -0.20334589 41.90456474 -0.03544421 61.4453125 4.23828125 C62.92451172 4.55974121 62.92451172 4.55974121 64.43359375 4.88769531 C113.29447026 15.88619536 161.14969796 42.34158506 193.4453125 81.23828125 C194.22777344 82.1096875 195.01023437 82.98109375 195.81640625 83.87890625 C224.76774894 116.38002403 243.92344787 159.36421165 250.4453125 202.23828125 C250.62046387 203.358396 250.79561523 204.47851074 250.97607422 205.63256836 C252.5800588 216.94273439 252.84456538 228.13833039 252.8203125 239.55078125 C252.81949677 240.99969254 252.81949677 240.99969254 252.81866455 242.47787476 C252.67723335 297.28359543 233.91294268 351.1405859 198.4453125 393.23828125 C198.00074707 393.77163086 197.55618164 394.30498047 197.09814453 394.85449219 C188.22536736 405.48522354 179.07675597 415.36819695 168.21484375 424.02734375 C166.40012249 425.47604929 164.60476024 426.94942113 162.83203125 428.44921875 C121.52207816 463.33317913 66.69507132 480.72710773 13.1328125 480.61328125 C12.16687164 480.61273743 11.20093079 480.6121936 10.20571899 480.6116333 C-5.69146444 480.57060916 -20.9742443 479.64585488 -36.5546875 476.23828125 C-37.54082031 476.02397461 -38.52695313 475.80966797 -39.54296875 475.58886719 C-80.68601851 466.32763679 -118.66455293 447.01341561 -149.5546875 418.23828125 C-150.94613416 417.02489906 -152.34177389 415.81630322 -153.7421875 414.61328125 C-160.23579506 408.92488103 -165.82997583 402.84849748 -171.23828125 396.11328125 C-172.72964128 394.26228465 -174.24130496 392.42737276 -175.77734375 390.61328125 C-186.48593264 377.92162035 -194.84788293 363.9027082 -202.5546875 349.23828125 C-202.90241211 348.58762695 -203.25013672 347.93697266 -203.60839844 347.26660156 C-214.77726192 326.11658788 -221.86063665 301.78641992 -225.5546875 278.23828125 C-225.73725098 277.08271729 -225.91981445 275.92715332 -226.10791016 274.73657227 C-227.70824137 263.46656388 -227.95385383 252.29750635 -227.9296875 240.92578125 C-227.92914368 239.95984039 -227.92859985 238.99389954 -227.92803955 237.99868774 C-227.88701541 222.10150431 -226.96226113 206.81872445 -223.5546875 191.23828125 C-223.34038086 190.25214844 -223.12607422 189.26601562 -222.90527344 188.25 C-213.64404304 147.10695024 -194.32982186 109.12841582 -165.5546875 78.23828125 C-164.34130531 76.84683459 -163.13270947 75.45119486 -161.9296875 74.05078125 C-123.16385022 29.67058133 -58.73818865 0.53610464 0 0 Z M-81.296875 51.60546875 C-84.92833638 56.43906906 -85.67629523 59.62732044 -85.69512939 65.5695343 C-85.70083954 66.65034271 -85.70654968 67.73115112 -85.71243286 68.8447113 C-85.71355072 70.02557816 -85.71466858 71.20644501 -85.71582031 72.4230957 C-85.72078522 73.67064636 -85.72575012 74.91819702 -85.73086548 76.20355225 C-85.7429638 79.62311347 -85.75042952 83.04261362 -85.75487614 86.46218896 C-85.75781085 88.60036179 -85.76191641 90.7385293 -85.76638031 92.87669945 C-85.78004858 99.57172314 -85.78971855 106.26673463 -85.7935822 112.96177131 C-85.79806166 120.68065746 -85.81560702 128.39936641 -85.8445828 136.11819869 C-85.86622368 142.09116676 -85.87628776 148.06408507 -85.87762332 154.03709191 C-85.87866962 157.6015166 -85.88453985 161.16577457 -85.90244293 164.73015785 C-85.92203764 168.70859069 -85.91762503 172.68680332 -85.91113281 176.6652832 C-85.9203476 177.84007736 -85.92956238 179.01487152 -85.9390564 180.2252655 C-85.90338963 187.20131108 -85.5875717 192.70578039 -80.87109375 198.19921875 C-80.29230469 198.66585937 -79.71351563 199.1325 -79.1171875 199.61328125 C-78.54097656 200.09539062 -77.96476563 200.5775 -77.37109375 201.07421875 C-73.39045584 203.62525122 -69.24393241 203.36772061 -64.6222229 203.37872314 C-63.92475114 203.38169427 -63.22727938 203.38466539 -62.50867212 203.38772655 C-60.17194762 203.39639702 -57.83527446 203.39792038 -55.49853516 203.39941406 C-53.82297151 203.40404334 -52.14740891 203.40906815 -50.47184753 203.41445923 C-45.9201742 203.42757315 -41.36851561 203.43402602 -36.81682634 203.43846989 C-33.97311104 203.44140175 -31.12939977 203.44550674 -28.28568649 203.44997406 C-19.3881789 203.46364527 -10.4906805 203.47331422 -1.59316313 203.47717595 C8.67774676 203.48165833 18.94852368 203.49921614 29.21939313 203.52817655 C37.15920738 203.54978728 45.09898419 203.55987988 53.03882754 203.56121707 C57.78083383 203.56226537 62.52271506 203.56817882 67.2646904 203.58603668 C71.72492452 203.60250722 76.18493942 203.60467784 80.6451931 203.59589767 C82.28104044 203.5951268 83.91689952 203.59947667 85.55271721 203.60935593 C87.78836599 203.62206476 90.02323702 203.61620505 92.25888062 203.60577393 C93.50916739 203.60724049 94.75945415 203.60870705 96.0476284 203.61021805 C101.05258159 203.06233714 104.30531687 201.43989827 107.7578125 197.80078125 C110.21677619 194.06679935 110.56988917 190.98421873 110.57902527 186.57019043 C110.58329025 185.63650131 110.58755524 184.70281219 110.59194946 183.74082947 C110.59149628 182.72356277 110.59104309 181.70629608 110.59057617 180.65820312 C110.59393478 179.58139786 110.5972934 178.50459259 110.60075378 177.39515686 C110.61026008 173.83243662 110.6122066 170.26976338 110.61328125 166.70703125 C110.61649353 164.23368307 110.61985758 161.76033508 110.62336731 159.2869873 C110.6293574 154.10196492 110.63120728 148.9169592 110.63061523 143.73193359 C110.6305135 137.08035676 110.64417804 130.42892363 110.66138744 123.77736664 C110.67249127 118.66965237 110.67453496 113.561964 110.67400551 108.45423889 C110.67518759 106.00138481 110.67962209 103.5485301 110.68733788 101.09568787 C110.69710709 97.66983513 110.69427201 94.24421566 110.68823242 90.81835938 C110.69385193 89.80109268 110.69947144 88.78382599 110.70526123 87.73573303 C110.70106674 86.80204391 110.69687225 85.8683548 110.69255066 84.90637207 C110.69309543 84.09670235 110.69364019 83.28703262 110.69420147 82.45282745 C110.41392665 79.95901849 109.7740027 78.35875865 108.4453125 76.23828125 C106.02397896 75.02761448 104.46928259 75.10034527 101.76303101 75.08006287 C100.77582565 75.07027405 99.7886203 75.06048523 98.77149963 75.05039978 C97.68465378 75.04464432 96.59780792 75.03888885 95.47802734 75.03295898 C94.33656754 75.02305939 93.19510773 75.01315979 92.01905823 75.00296021 C88.23147686 74.9712746 84.44388294 74.94655987 80.65625 74.921875 C78.03593614 74.90131157 75.41562565 74.88031527 72.7953186 74.85890198 C66.59407483 74.80895771 60.39280519 74.76402533 54.1915108 74.72087961 C47.13231771 74.67152204 40.0731714 74.61659843 33.01402354 74.56120002 C18.49116414 74.44735337 3.96825819 74.34052018 -10.5546875 74.23828125 C-10.82619629 73.65860596 -11.09770508 73.07893066 -11.37744141 72.48168945 C-12.62972135 69.83059744 -13.90440171 67.19087862 -15.1796875 64.55078125 C-15.81970703 63.18276367 -15.81970703 63.18276367 -16.47265625 61.78710938 C-19.40303156 55.77327946 -22.2007586 50.75693239 -28.85400391 48.4362793 C-32.82784234 48.14494111 -36.78184123 48.07553387 -40.765625 48.0703125 C-41.65198639 48.0669841 -42.53834778 48.0636557 -43.4515686 48.06022644 C-45.32252485 48.05517514 -47.19349006 48.05281756 -49.06445312 48.05297852 C-51.91291288 48.05079411 -54.76098379 48.03262505 -57.609375 48.01367188 C-59.43229035 48.01073708 -61.25520753 48.00875286 -63.078125 48.0078125 C-63.92313568 48.00062698 -64.76814636 47.99344147 -65.63876343 47.98603821 C-71.07962818 48.00685376 -76.83495885 48.10396504 -81.296875 51.60546875 Z M-5.5546875 55.23828125 C-4.5646875 57.54828125 -3.5746875 59.85828125 -2.5546875 62.23828125 C34.0753125 62.23828125 70.7053125 62.23828125 108.4453125 62.23828125 C106.28180663 57.91126952 105.76297074 57.05319862 101.4453125 55.23828125 C97.97904203 54.81982806 94.54297098 54.859421 91.05541992 54.89770508 C90.01105774 54.897267 88.96669556 54.89682892 87.89068604 54.89637756 C84.44385996 54.89846508 80.99752221 54.92179506 77.55078125 54.9453125 C75.15896368 54.95090857 72.76714267 54.95517861 70.37532043 54.95817566 C64.08373501 54.9696235 57.79235774 54.99909047 51.50085449 55.0322876 C45.07937435 55.0629896 38.65786053 55.07668129 32.23632812 55.09179688 C19.63923417 55.12395996 7.04228441 55.1745782 -5.5546875 55.23828125 Z M-88.5546875 219.23828125 C-90.37212898 221.76434014 -90.37212898 221.76434014 -91.88671875 224.58984375 C-92.45712891 225.605625 -93.02753906 226.62140625 -93.61523438 227.66796875 C-94.48245117 229.24964844 -94.48245117 229.24964844 -95.3671875 230.86328125 C-95.96466797 231.92546875 -96.56214844 232.98765625 -97.17773438 234.08203125 C-100.25720222 238.89112186 -100.25720222 238.89112186 -101.5546875 244.23828125 C-102.2146875 244.23828125 -102.8746875 244.23828125 -103.5546875 244.23828125 C-104.01041667 242.22005208 -104.46614583 240.20182292 -104.921875 238.18359375 C-105.45943178 236.03108161 -105.45943178 236.03108161 -107.5546875 234.23828125 C-110.5546875 233.82161458 -110.5546875 233.82161458 -113.5546875 234.23828125 C-115.84213457 237.66945185 -115.71607937 239.23669331 -115.16796875 243.21875 C-114.34752275 247.25827074 -113.30098533 251.21028673 -112.1796875 255.17578125 C-111.97077881 255.93391113 -111.76187012 256.69204102 -111.54663086 257.47314453 C-110.20738334 262.13887802 -110.20738334 262.13887802 -106.5546875 265.23828125 C-98.78642888 264.88080386 -85.06973311 262.75332686 -79.5546875 257.23828125 C-79.22135417 254.23828125 -79.22135417 254.23828125 -79.5546875 251.23828125 C-81.48236968 248.86606917 -81.48236968 248.86606917 -84.9296875 249.05078125 C-87.7399923 249.19614184 -89.89037522 249.50471509 -92.5546875 250.23828125 C-90.99586787 247.4029086 -89.43194471 244.57038082 -87.8671875 241.73828125 C-87.43212891 240.94679688 -86.99707031 240.1553125 -86.54882812 239.33984375 C-84.02267325 234.77405272 -81.39884061 230.32892102 -78.51660156 225.9777832 C-77.00630303 223.24659613 -76.92332782 221.2547775 -77.5546875 218.23828125 C-82.0540492 213.73891955 -84.20051836 215.30343905 -88.5546875 219.23828125 Z M8.86450195 218.29760742 C5.9023309 221.89830884 5.79712949 223.67928395 5.73828125 228.2890625 C5.72315994 228.94786911 5.70803864 229.60667572 5.69245911 230.28544617 C5.64972684 232.37424325 5.64075985 234.46159145 5.6328125 236.55078125 C5.60965636 237.97334542 5.58428867 239.39587542 5.55664062 240.81835938 C5.49393634 244.29163929 5.46148466 247.76443738 5.4453125 251.23828125 C3.97233073 249.93416341 2.49934896 248.63004557 1.02636719 247.32592773 C-0.61263884 245.97117904 -0.61263884 245.97117904 -3.3046875 246.30078125 C-5.702568 247.13232855 -5.702568 247.13232855 -7.5546875 249.23828125 C-7.63576482 253.93497447 -6.62743078 256.55580182 -3.5 259.9140625 C-2.2417093 261.14201705 -0.96769799 262.35403698 0.3203125 263.55078125 C0.95839844 264.17017578 1.59648437 264.78957031 2.25390625 265.42773438 C4.90208212 267.97363205 7.37800161 270.19340732 10.4453125 272.23828125 C16.75455869 271.85455507 20.06342546 267.24243742 24.2578125 262.98828125 C25.04607422 262.22386719 25.83433594 261.45945312 26.64648438 260.671875 C27.39091797 259.92550781 28.13535156 259.17914063 28.90234375 258.41015625 C29.9229187 257.39066895 29.9229187 257.39066895 30.96411133 256.35058594 C32.78250912 253.75741341 32.82973526 252.34325909 32.4453125 249.23828125 C31.4453125 247.23828125 31.4453125 247.23828125 29.4453125 246.23828125 C25.42963318 246.23828125 23.19622689 247.23330136 20.24609375 249.80078125 C19.32183594 250.60515625 18.39757812 251.40953125 17.4453125 252.23828125 C17.4767334 250.76234497 17.4767334 250.76234497 17.50878906 249.2565918 C17.58119092 245.60586094 17.627112 241.9551935 17.66503906 238.30395508 C17.68515436 236.7237684 17.71245054 235.14365616 17.74707031 233.5637207 C17.79559593 231.29229377 17.81828059 229.02185067 17.8359375 226.75 C17.85658264 226.04364914 17.87722778 225.33729828 17.89849854 224.60954285 C17.90000048 221.32622494 17.87549058 219.68432837 15.54589844 217.26879883 C12.22667173 215.64043342 11.83932589 215.92388309 8.86450195 218.29760742 Z M105.1953125 217.92578125 C103.17503199 220.05974837 103.17503199 220.05974837 103.63842773 222.51049805 C104.58439107 225.70845518 105.95529669 228.29636159 107.60546875 231.1953125 C108.23388672 232.30712891 108.86230469 233.41894531 109.50976562 234.56445312 C110.17563204 235.726648 110.84164956 236.88875631 111.5078125 238.05078125 C112.17836623 239.23206342 112.84829481 240.4137007 113.51757812 241.59570312 C115.15404037 244.48011499 116.79679496 247.36074775 118.4453125 250.23828125 C116.45963542 249.89851888 114.47395833 249.55875651 112.48828125 249.21899414 C110.0653805 249.02963996 110.0653805 249.02963996 107.4453125 251.67578125 C106.4553125 252.94421875 106.4553125 252.94421875 105.4453125 254.23828125 C105.94078793 256.69459126 105.94078793 256.69459126 107.4453125 259.23828125 C112.32713911 261.65135144 117.30673793 263.20254996 122.5703125 264.55078125 C123.25996094 264.74478516 123.94960938 264.93878906 124.66015625 265.13867188 C127.6945502 265.91902749 130.14571727 266.28710109 133.25 265.78125 C138.11963691 262.35864043 139.20513662 255.07355258 140.6953125 249.61328125 C141.22898437 247.70675781 141.22898437 247.70675781 141.7734375 245.76171875 C142.41757246 242.38375517 142.53911132 240.46149691 141.4453125 237.23828125 C139.62327669 235.00861378 139.62327669 235.00861378 137.0078125 234.92578125 C134.47437656 235.05629786 134.47437656 235.05629786 132.6953125 236.30078125 C130.86625502 239.13582034 130.75776441 241.926291 130.4453125 245.23828125 C127.66121194 242.75240231 126.02384919 240.00374773 124.1953125 236.765625 C123.586875 235.70150391 122.9784375 234.63738281 122.3515625 233.54101562 C121.07905362 231.29456809 119.80822399 229.04716851 118.5390625 226.79882812 C117.930625 225.73599609 117.3221875 224.67316406 116.6953125 223.578125 C116.14359375 222.60222412 115.591875 221.62632324 115.0234375 220.62084961 C113.50978109 218.00149349 113.50978109 218.00149349 110.4453125 216.23828125 C107.3765625 215.93828125 107.3765625 215.93828125 105.1953125 217.92578125 Z M-133.5546875 293.23828125 C-137.92307375 298.85477785 -139.87647791 304.05982666 -139.4296875 311.17578125 C-138.47510075 318.24401346 -136.30049474 323.17386767 -130.6171875 327.61328125 C-124.19330177 332.18535102 -118.30977219 333.08905004 -110.5546875 332.23828125 C-103.91686246 330.41432237 -99.38892918 325.80311309 -95.5546875 320.23828125 C-92.61406493 314.23941121 -92.45584962 307.35544595 -94.171875 300.92578125 C-97.00149738 294.51530932 -102.26644617 289.84742062 -108.4921875 286.80078125 C-117.96003811 285.06178828 -126.44237924 286.3235371 -133.5546875 293.23828125 Z M-5.4921875 294.11328125 C-9.83404392 300.69185158 -11.79052241 306.40355429 -10.5546875 314.23828125 C-7.76843754 322.43033241 -3.79515152 326.87340709 3.6953125 331.05078125 C10.57191323 333.22837148 16.15791859 333.15787517 22.7578125 330.11328125 C29.44248795 326.38327426 33.10459258 321.63002836 35.4453125 314.23828125 C36.61310799 306.6283612 34.92511326 300.48415731 30.4453125 294.23828125 C25.2931649 289.21078238 19.97198389 286.23834374 12.7578125 285.80078125 C5.72351761 285.95826546 -0.75925836 288.84187514 -5.4921875 294.11328125 Z M121.85546875 296.140625 C117.80116383 302.17154396 117.72804369 308.17594223 118.4453125 315.23828125 C120.21873683 321.88301039 124.8919772 326.41196084 130.4453125 330.23828125 C136.48675975 333.14244962 142.77168839 333.36984168 149.171875 331.3984375 C156.64611494 328.04519088 160.70618199 323.32145723 163.8828125 315.86328125 C165.05478944 308.31054098 164.10540814 301.86231607 160.10546875 295.28515625 C155.82674526 290.00974187 150.11072357 286.78243053 143.40234375 286 C133.98022933 285.67391589 127.85973989 289.0007943 121.85546875 296.140625 Z M113.4453125 333.23828125 C112.30912032 334.91826595 111.18688479 336.60769307 110.0703125 338.30078125 C109.44382812 339.24050781 108.81734375 340.18023437 108.171875 341.1484375 C104.08542828 348.46151296 104.05068105 355.62241473 104.0078125 363.80078125 C103.97494141 364.91130859 103.94207031 366.02183594 103.90820312 367.16601562 C103.76618857 373.92645417 103.76618857 373.92645417 106.53515625 379.890625 C112.81668132 384.95800295 119.87398755 384.53476742 127.6015625 384.50390625 C128.66266235 384.5058197 129.72376221 384.50773315 130.8170166 384.50970459 C133.05265542 384.51106102 135.28830226 384.50740259 137.52392578 384.49902344 C140.93410028 384.48831645 144.34374802 384.49893742 147.75390625 384.51171875 C149.93229282 384.51039706 152.11067907 384.50783447 154.2890625 384.50390625 C155.30278931 384.50795471 156.31651611 384.51200317 157.36096191 384.51617432 C166.32115549 384.57854351 166.32115549 384.57854351 174.1875 380.80078125 C180.20974381 372.49423806 179.63720793 362.15482128 178.12890625 352.13671875 C176.64021093 345.22801617 173.95993545 339.63074755 169.4453125 334.23828125 C165.05248019 335.84127971 161.68042673 338.06728908 157.921875 340.80078125 C149.92115056 345.44473487 139.29015367 345.72244249 130.4609375 343.48046875 C124.10591557 341.03474819 118.85792644 337.3034998 113.4453125 333.23828125 Z M-92.6171875 335.98828125 C-100.86751108 343.16911844 -108.90653706 344.72536287 -119.65625 344.515625 C-128.12866638 343.91287794 -134.55422779 340.86368349 -140.8984375 335.3125 C-141.445 334.95800781 -141.9915625 334.60351562 -142.5546875 334.23828125 C-147.14788413 335.76934679 -148.441939 339.04013375 -150.5546875 343.23828125 C-153.56638346 350.16637235 -153.85119829 357.16686912 -153.9296875 364.61328125 C-153.94362549 365.48178711 -153.95756348 366.35029297 -153.97192383 367.24511719 C-153.93588351 372.06983912 -153.67472666 375.32323211 -150.5546875 379.23828125 C-145.87341769 383.67316844 -141.88385047 384.35497109 -135.60009766 384.38354492 C-134.64205231 384.38992477 -133.68400696 384.39630463 -132.69692993 384.40287781 C-131.67288055 384.40399063 -130.64883118 384.40510345 -129.59375 384.40625 C-128.52982025 384.4095784 -127.4658905 384.4129068 -126.36972046 384.41633606 C-124.12213574 384.42139183 -121.87454353 384.4237448 -119.62695312 384.42358398 C-116.19909217 384.42576888 -112.77155399 384.4439348 -109.34375 384.46289062 C-107.1562511 384.46582518 -104.96875067 384.46780956 -102.78125 384.46875 C-101.25124863 384.47952827 -101.25124863 384.47952827 -99.69033813 384.49052429 C-92.83297853 384.4686468 -87.1630504 384.36218374 -81.65234375 379.875 C-78.21616504 375.22439487 -78.87154647 369.57744487 -78.9921875 364.05078125 C-78.97575195 362.44106445 -78.97575195 362.44106445 -78.95898438 360.79882812 C-79.05498854 350.21916919 -81.81244656 341.43830402 -88.5546875 333.23828125 C-90.31642136 333.23828125 -91.37103264 334.84147815 -92.6171875 335.98828125 Z M-15.5546875 334.23828125 C-17.05250059 335.94061739 -17.05250059 335.94061739 -18.4921875 338.17578125 C-18.99621094 338.90667969 -19.50023437 339.63757813 -20.01953125 340.390625 C-24.18486916 348.11716783 -25.05423646 355.22200374 -24.9921875 363.92578125 C-25.01216797 364.93189453 -25.03214844 365.93800781 -25.05273438 366.97460938 C-25.04889296 372.80203217 -24.87208343 376.90724426 -20.5546875 381.23828125 C-13.99282807 384.34805025 -8.31101378 384.67924362 -1.1171875 384.63671875 C0.50207642 384.64102402 0.50207642 384.64102402 2.15405273 384.64541626 C4.42660042 384.64744928 6.69916591 384.64197302 8.97167969 384.62939453 C12.4346458 384.61333073 15.89644485 384.62926999 19.359375 384.6484375 C21.57552339 384.64645493 23.79167106 384.64261098 26.0078125 384.63671875 C27.03511475 384.64279144 28.06241699 384.64886414 29.12084961 384.65512085 C36.2844604 384.58561363 42.62298721 384.08293506 47.9140625 378.75 C50.07324464 373.79820218 50.04368441 369.39808938 49.9453125 364.05078125 C49.93395264 363.02082031 49.92259277 361.99085938 49.91088867 360.9296875 C49.63637074 350.2141393 47.14366465 342.61122144 40.4453125 334.23828125 C37.36532985 335.71100859 34.52003348 337.41955937 31.6328125 339.23828125 C22.48452512 344.68210974 12.83947249 345.89397102 2.375 343.55078125 C-3.1545925 341.7024495 -7.5368265 339.15556991 -11.99609375 335.41015625 C-13.49611335 334.03796088 -13.49611335 334.03796088 -15.5546875 334.23828125 Z " fill="#2A8BFF" transform="translate(243.5546875,15.76171875)"/>
</svg>
