<?xml version="1.0" encoding="UTF-8"?>
<svg version="1.1" xmlns="http://www.w3.org/2000/svg" width="512" height="512">
<path d="M0 0 C1.39887955 -0.01475876 1.39887955 -0.01475876 2.82601929 -0.02981567 C23.53329982 -0.20314059 43.70323057 -0.12403673 64.04296875 4.23828125 C65.1501123 4.47434082 66.25725586 4.71040039 67.39794922 4.95361328 C116.15214423 15.74227878 158.08920788 40.09284563 194.04296875 74.23828125 C194.87054688 75.02332031 195.698125 75.80835937 196.55078125 76.6171875 C202.20075987 82.1195186 207.1336697 88.07516841 212.04296875 94.23828125 C212.6771875 94.99367188 213.31140625 95.7490625 213.96484375 96.52734375 C257.44908842 148.81624953 273.76324358 216.78615771 268.74560547 283.60693359 C267.99585311 291.58781034 266.72338376 299.40318038 265.04296875 307.23828125 C264.80690918 308.3454248 264.57084961 309.45256836 264.32763672 310.59326172 C251.97432867 366.41810771 220.5197159 419.93242614 175.04296875 455.23828125 C173.80040495 456.23260285 172.5582445 457.22742863 171.31640625 458.22265625 C130.3852229 490.6664864 77.92944273 512.16502082 25.25 512.44140625 C24.3494136 512.44842056 23.44882721 512.45543488 22.52095032 512.46266174 C19.63240494 512.48005934 16.74406459 512.48651352 13.85546875 512.48828125 C12.86842957 512.48895599 11.88139038 512.48963074 10.86444092 512.49032593 C-3.60428676 512.47459617 -17.73044345 512.11839209 -31.95703125 509.23828125 C-32.87484375 509.05604004 -33.79265625 508.87379883 -34.73828125 508.68603516 C-41.19001707 507.37443057 -47.57853367 505.86670067 -53.95703125 504.23828125 C-54.69050781 504.05571777 -55.42398438 503.8731543 -56.1796875 503.68505859 C-105.89187018 491.10601798 -154.50151503 458.75548592 -185.95703125 418.23828125 C-186.95135285 416.99571745 -187.94617863 415.753557 -188.94140625 414.51171875 C-231.85471502 360.37222593 -248.71123012 293.28659402 -242.296875 225.0078125 C-235.55627597 167.8177994 -208.21921592 116.57977165 -168.95703125 75.23828125 C-168.17199219 74.41070312 -167.38695312 73.583125 -166.578125 72.73046875 C-161.0757939 67.08049013 -155.12014409 62.1475803 -148.95703125 57.23828125 C-148.20164062 56.6040625 -147.44625 55.96984375 -146.66796875 55.31640625 C-106.79623968 22.15847348 -52.00343288 0.45283128 0 0 Z " fill="#FE9469" transform="translate(242.95703125,-0.23828125)"/>
<path d="M0 0 C1.5647834 0.53626259 1.5647834 0.53626259 3.16117859 1.08335876 C6.47016689 2.2184069 9.77259479 3.37106459 13.07421875 4.52734375 C16.394047 5.68602702 19.7150525 6.8405015 23.04081726 7.98204041 C25.10445247 8.69061977 27.16469524 9.40917439 29.22102356 10.13868713 C30.61849068 10.61929848 30.61849068 10.61929848 32.04418945 11.10961914 C32.86087601 11.39607803 33.67756256 11.68253693 34.51899719 11.97767639 C37.02884217 12.5228687 38.37430311 12.36364933 40.76171875 11.46484375 C42.83872522 9.78161466 42.83872522 9.78161466 44.88671875 7.71484375 C54.56032091 -1.14865379 65.25819165 -4.0683362 78.16796875 -3.84765625 C89.83929672 -2.83275817 101.1929685 2.91920669 109.16796875 11.49609375 C118.27327324 22.74382283 120.87569908 34.49986982 119.55078125 48.73046875 C117.77581101 59.38029018 111.55493614 71.14560231 102.76171875 77.46484375 C89.90764928 85.10739333 77.16589782 88.8611198 62.19921875 85.40234375 C56.01902734 83.5028044 50.92418494 80.30235774 45.76171875 76.46484375 C45.11332031 75.98660156 44.46492188 75.50835937 43.796875 75.015625 C36.20360418 68.45545225 30.65940917 56.8650867 29.76171875 46.96484375 C29.75120639 45.46488059 29.74928431 43.96479221 29.76171875 42.46484375 C28.80011841 42.22157349 28.80011841 42.22157349 27.8190918 41.97338867 C20.23884614 39.98877947 12.92610275 37.47777214 5.57421875 34.77734375 C4.43146484 34.36162109 3.28871094 33.94589844 2.11132812 33.51757812 C-0.67333116 32.50391554 -3.45646742 31.48628351 -6.23828125 30.46484375 C-6.32456787 31.38015869 -6.41085449 32.29547363 -6.49975586 33.23852539 C-7.29099217 38.72974149 -9.24368983 43.86293399 -11.0546875 49.0859375 C-11.61856422 50.73578392 -11.61856422 50.73578392 -12.1938324 52.41896057 C-13.39033357 55.91544689 -14.59542467 59.40890154 -15.80078125 62.90234375 C-16.61580381 65.27910169 -17.43026327 67.65605279 -18.24414062 70.03320312 C-20.23567009 75.84600353 -22.23425162 81.65634187 -24.23828125 87.46484375 C-23.41078369 87.51745361 -22.58328613 87.57006348 -21.73071289 87.62426758 C-14.94131975 88.0944715 -8.33920152 88.768155 -1.67578125 90.15234375 C-0.83644043 90.32459473 0.00290039 90.4968457 0.86767578 90.67431641 C14.37455691 93.55662202 27.47166047 97.42871586 39.9140625 103.4609375 C43.13517324 104.59650054 44.57678527 104.62980264 47.76171875 103.46484375 C49.49792661 102.12885778 49.49792661 102.12885778 51.07421875 100.40234375 C59.9174266 92.31139366 71.83443734 87.16553261 83.76171875 86.46484375 C84.89351563 86.39652344 86.0253125 86.32820313 87.19140625 86.2578125 C102.8385698 85.79558776 117.38726141 90.51674766 129.26171875 100.96484375 C130.78015171 102.44618144 132.28248184 103.94436417 133.76171875 105.46484375 C134.58542969 106.24021484 134.58542969 106.24021484 135.42578125 107.03125 C139.22627617 110.92320068 141.56460379 115.59774973 144.01171875 120.40234375 C144.35348145 121.07080322 144.69524414 121.7392627 145.04736328 122.42797852 C152.34158095 137.32715407 150.85828821 153.12720525 145.76171875 168.46484375 C141.63932085 179.49325227 134.36976638 188.85753075 124.453125 195.2421875 C122.18684885 196.90784148 120.97121366 197.80809135 120.11035156 200.50683594 C119.92517128 202.91836452 119.96251986 205.23650323 120.07421875 207.65234375 C120.04766481 222.01138624 116.60941938 235.78391665 109.76171875 248.46484375 C109.23707031 249.44710937 108.71242188 250.429375 108.171875 251.44140625 C104.31406675 258.35221922 99.91207168 264.46732997 94.76171875 270.46484375 C94.06175781 271.29886719 93.36179687 272.13289063 92.640625 272.9921875 C64.08751833 306.02421287 17.41710484 322.76786106 -25.11279297 326.28393555 C-75.70085093 329.21205232 -130.0679453 320.02450008 -169.44140625 285.7109375 C-172.44316485 283.0320791 -175.34233044 280.25751529 -178.23828125 277.46484375 C-179.02847656 276.7378125 -179.81867188 276.01078125 -180.6328125 275.26171875 C-197.19179481 259.60173548 -207.73160435 238.09866165 -210.23828125 215.46484375 C-210.24443776 214.09110964 -210.23195079 212.71719544 -210.203125 211.34375 C-209.89567499 203.12694418 -209.89567499 203.12694418 -213.2109375 195.93359375 C-215.7289667 193.98649741 -215.7289667 193.98649741 -218.4765625 192.2578125 C-229.40430945 185.16327806 -235.55252054 172.59218543 -239.23828125 160.46484375 C-242.41087327 143.33284685 -240.05926308 127.10940516 -230.23828125 112.46484375 C-227.42717552 108.92531282 -224.4244765 105.66804716 -221.23828125 102.46484375 C-220.72007812 101.91183594 -220.201875 101.35882813 -219.66796875 100.7890625 C-215.76824077 97.00163035 -211.10319252 94.66084697 -206.30078125 92.21484375 C-205.63232178 91.87308105 -204.9638623 91.53131836 -204.27514648 91.17919922 C-190.65851422 84.5128787 -174.66123913 84.45309642 -160.3828125 89.20703125 C-152.05306921 92.53892857 -145.61220973 96.50537921 -139.40625 103.0234375 C-137.30068663 104.71939428 -137.30068663 104.71939428 -134.5625 104.41796875 C-131.08957086 103.42220528 -127.81072666 102.19785278 -124.46704102 100.83691406 C-106.9293287 93.70014224 -89.19172342 89.66241694 -70.453125 87.29296875 C-69.06499837 87.11329529 -67.67693632 86.93312207 -66.28894043 86.75244141 C-62.93931874 86.31835258 -59.58914133 85.889248 -56.23828125 85.46484375 C-55.74754875 83.962668 -55.74754875 83.962668 -55.24690247 82.43014526 C-52.15759124 72.97953471 -49.05392654 63.53374468 -45.93625355 54.0924511 C-44.33399563 49.23876838 -42.73678909 44.38354503 -41.15112305 39.52441406 C-39.61984351 34.83257806 -38.07530173 30.14530025 -36.52158165 25.46084976 C-35.93199827 23.67550801 -35.34715939 21.88859202 -34.76722145 20.10009384 C-33.9522405 17.5895405 -33.12035775 15.08518452 -32.28442383 12.58154297 C-32.04993027 11.8457048 -31.81543671 11.10986664 -31.57383728 10.35173035 C-29.69018388 4.8003385 -27.22096271 0.42485747 -22.17875671 -2.88853455 C-14.58565496 -5.41877236 -7.18832884 -2.56152817 0 0 Z " fill="#D7E8FE" transform="translate(301.23828125,94.53515625)"/>
<path d="M0 0 C26.87052257 0 26.87052257 0 36.75 1.5625 C37.91063965 1.73958496 39.0712793 1.91666992 40.26708984 2.09912109 C94.46094029 10.85942346 141.51330582 36.49932299 181 74 C181.82757813 74.78503906 182.65515625 75.57007812 183.5078125 76.37890625 C189.15779112 81.88123735 194.09070095 87.83688716 199 94 C199.63421875 94.75539063 200.2684375 95.51078125 200.921875 96.2890625 C244.40611967 148.57796828 260.72027483 216.54787646 255.70263672 283.36865234 C254.95288436 291.34952909 253.68041501 299.16489913 252 307 C251.64591064 308.66071533 251.64591064 308.66071533 251.28466797 310.35498047 C238.93135992 366.17982646 207.47674715 419.69414489 162 455 C160.7574362 455.9943216 159.51527575 456.98914738 158.2734375 457.984375 C112.50518044 494.26227945 58.12753789 512 0 512 C0 481.97 0 451.94 0 421 C9.24 420.34 18.48 419.68 28 419 C63.452838 413.6820743 97.21192377 402.19235593 125 379 C126.50820313 377.75669922 126.50820313 377.75669922 128.046875 376.48828125 C136.35873252 369.28538917 142.75937702 361.02486318 149 352 C149.61875 351.11441406 150.2375 350.22882813 150.875 349.31640625 C158.35853547 337.7598007 164.14482985 321.82253349 164.01171875 308.0625 C163.9260199 294.43260262 163.9260199 294.43260262 167.22265625 290.03515625 C170.05125552 287.8213007 172.96517901 285.91758435 176 284 C187.83911377 273.36728987 193.09304007 258.55240205 194.3125 243.01953125 C194.98189933 227.46298908 189.87563748 213.51783128 179.6875 201.75 C168.78772148 190.28800329 155.71250131 182.69040739 139.69140625 181.8203125 C123.24009767 181.49597126 108.05116457 184.8791313 95.875 196.5625 C95.25367188 197.24441406 94.63234375 197.92632812 93.9921875 198.62890625 C92 200 92 200 89.16796875 199.8828125 C85.77150897 198.93632679 82.67291901 197.71488299 79.4375 196.3125 C60.74828139 188.57302018 40.96335213 184.74700077 21 182 C22.35663235 175.34174127 24.2080234 169.04943366 26.44140625 162.63671875 C26.76914536 161.682314 27.09688446 160.72790924 27.43455505 159.74458313 C28.47263249 156.72395822 29.51721293 153.70563674 30.5625 150.6875 C31.61022728 147.65113581 32.65656105 144.61430153 33.70115662 141.57685852 C34.34903695 139.69413506 34.99891086 137.81209615 35.65101624 135.93083191 C35.9447966 135.07927017 36.23857697 134.22770844 36.54125977 133.3503418 C36.79948013 132.60471481 37.0577005 131.85908783 37.32374573 131.09086609 C37.97557499 129.07551809 38.51250197 127.06063576 39 125 C39.565979 125.17160645 40.13195801 125.34321289 40.71508789 125.52001953 C41.92539673 125.88522705 41.92539673 125.88522705 43.16015625 126.2578125 C44.0742627 126.53399414 44.98836914 126.81017578 45.93017578 127.09472656 C48.01902662 127.71071662 50.11417236 128.30566539 52.21435547 128.88183594 C55.63950894 129.82701627 59.0364321 130.84681478 62.4375 131.875 C64.19223633 132.33519531 64.19223633 132.33519531 65.98242188 132.8046875 C69.43313881 133.8866414 72.07844027 134.86009809 75 137 C76.90960042 141.23323851 77.38513517 145.42872052 78 150 C81.8528815 161.69683604 88.77544813 169.74473958 99.3359375 175.7109375 C110.51655967 181.12091597 122.1949602 181.35883968 134.046875 178.0390625 C146.28896589 173.73166015 153.56029952 167.36998984 159.375 156 C159.72135498 155.32340332 160.06770996 154.64680664 160.42456055 153.94970703 C165.75178966 142.94268212 165.20607155 130.4961432 161.32421875 119.109375 C156.39702565 107.53991864 148.07236469 99.77356403 136.578125 95 C135.72734375 94.67 134.8765625 94.34 134 94 C132.906875 93.566875 131.81375 93.13375 130.6875 92.6875 C117.82461309 90.28933464 105.41738929 92.04080726 94.5 99.4375 C91.68135768 101.52772914 89.71088045 103.34553312 87.4375 106.0625 C85 108 85 108 83.13598633 107.86624146 C77.39652921 106.43981755 71.8299774 104.69852193 66.25 102.7421875 C64.4064289 102.110155 62.5626732 101.47866077 60.71875 100.84765625 C57.85334092 99.8615664 54.98957177 98.87135544 52.12890625 97.87158203 C49.34003334 96.89939777 46.54565381 95.94466711 43.75 94.9921875 C42.90598633 94.6922287 42.06197266 94.3922699 41.19238281 94.08322144 C34.54546313 91.83927535 28.29477326 90.57019274 21.6875 93.4375 C15.98402393 98.87569811 14.00956988 107.51467353 11.546875 114.84765625 C11.24179016 115.74495956 10.93670532 116.64226288 10.62237549 117.5667572 C9.66096689 120.39735018 8.70538832 123.22987012 7.75 126.0625 C7.09413656 127.9968759 6.43789007 129.93112197 5.78125 131.86523438 C4.18307202 136.57533502 2.59011489 141.28717148 1 146 C0.67 146 0.34 146 0 146 C0 97.82 0 49.64 0 0 Z " fill="#FE5B5C" transform="translate(256,0)"/>
<path d="M0 0 C0.33 0 0.66 0 1 0 C1 64.35 1 128.7 1 195 C20.60513404 192.4428086 38.42044445 189.78977777 56 181 C62.51823377 180.19019906 66.73510608 181.07713787 72 185 C75.05056252 188.36344073 76.26454663 190.97148133 76.5 195.4375 C76.24003124 199.99459949 75.12815593 203.6097996 72 207 C53.3632515 222.01503219 23.62414651 225 1 225 C1 240.18 1 255.36 1 271 C-20.14526122 271 -20.14526122 271 -28.125 269.875 C-29.07745605 269.74375732 -30.02991211 269.61251465 -31.01123047 269.47729492 C-68.97479576 263.86121775 -104.28088211 248.73056161 -132 222 C-132.79019531 221.27296875 -133.58039063 220.5459375 -134.39453125 219.796875 C-150.95351356 204.13689173 -161.4933231 182.6338179 -164 160 C-164.00615651 158.62626589 -163.99366954 157.25235169 -163.96484375 155.87890625 C-163.65739374 147.66210043 -163.65739374 147.66210043 -166.97265625 140.46875 C-169.49068545 138.52165366 -169.49068545 138.52165366 -172.23828125 136.79296875 C-183.1660282 129.69843431 -189.31423929 117.12734168 -193 105 C-196.17259202 87.8680031 -193.82098183 71.64456141 -184 57 C-181.18889427 53.46046907 -178.18619525 50.20320341 -175 47 C-174.48179687 46.44699219 -173.96359375 45.89398438 -173.4296875 45.32421875 C-169.52995952 41.5367866 -164.86491127 39.19600322 -160.0625 36.75 C-159.39404053 36.4082373 -158.72558105 36.06647461 -158.03686523 35.71435547 C-144.42023297 29.04803495 -128.42295788 28.98825267 -114.14453125 33.7421875 C-105.81478796 37.07408482 -99.37392848 41.04053546 -93.16796875 47.55859375 C-91.06240538 49.25455053 -91.06240538 49.25455053 -88.32421875 48.953125 C-84.85128961 47.95736153 -81.57244541 46.73300903 -78.22875977 45.37207031 C-56.00025903 36.32643569 -33.70357292 32.85320785 -10 30 C-6.7 20.1 -3.4 10.2 0 0 Z " fill="#EDF4FE" transform="translate(255,150)"/>
<path d="M0 0 C11.49808627 5.11989831 23.3222519 8.82205914 36 9.25 C37.27746094 9.3015625 38.55492187 9.353125 39.87109375 9.40625 C60.16636511 9.96168991 81.06281369 6.85917844 99.3203125 -2.44140625 C103.31028873 -4.38986403 106.65731792 -4.42334269 111 -3.75 C114.95722294 -2.37661086 117.61980059 -0.16919422 120.4375 2.9375 C122.47573984 7.25856846 122.77114924 10.55747485 122 15.25 C119.3572479 22.33738062 114.66635476 25.05694345 108 28.25 C72.42242813 43.93774822 30.19951389 45.1383116 -6.20263672 31.41992188 C-8.39913243 30.56036085 -10.5768787 29.6669457 -12.75 28.75 C-13.40589111 28.47768555 -14.06178223 28.20537109 -14.73754883 27.92480469 C-20.1448991 25.52404555 -23.62499123 22.38363429 -26.8125 17.4375 C-28.27311533 13.51690096 -28.72674643 10.37924109 -28 6.25 C-25.86492643 1.80904697 -23.27322072 -0.58858342 -19.171875 -3.0859375 C-11.93425996 -5.29887735 -6.50091697 -3.05992949 0 0 Z " fill="#FE5C5D" transform="translate(209,334.75)"/>
<path d="M0 0 C7.16252508 4.5999043 11.35117086 10.95683997 14 19 C15.43443955 28.35695951 13.74011313 36.36502849 8.52734375 44.21875 C3.62622295 50.42915366 -2.59646998 53.53215666 -10 56 C-19.68068559 57.10039448 -26.94213509 55.52944395 -35 50 C-41.60125778 44.42348621 -45.21822552 37.40444094 -46.44921875 28.89453125 C-46.9537259 19.51069818 -44.28367347 11.97516793 -38.13671875 4.8359375 C-27.38784797 -5.28824941 -13.01717952 -7.47985444 0 0 Z " fill="#FE5C5D" transform="translate(332,245)"/>
<path d="M0 0 C7.16252508 4.5999043 11.35117086 10.95683997 14 19 C15.43443955 28.35695951 13.74011313 36.36502849 8.52734375 44.21875 C3.62622295 50.42915366 -2.59646998 53.53215666 -10 56 C-19.68068559 57.10039448 -26.94213509 55.52944395 -35 50 C-41.60125778 44.42348621 -45.21822552 37.40444094 -46.44921875 28.89453125 C-46.9537259 19.51069818 -44.28367347 11.97516793 -38.13671875 4.8359375 C-27.38784797 -5.28824941 -13.01717952 -7.47985444 0 0 Z " fill="#FE956A" transform="translate(212,245)"/>
<path d="M0 0 C15.49645044 6.84754855 30.18796065 8.92273374 47 10.25 C47 20.15 47 30.05 47 40.25 C38.93293767 40.25 31.6101148 40.24239831 23.75 39.0625 C22.40675659 38.86285645 22.40675659 38.86285645 21.03637695 38.65917969 C9.2535402 36.78965159 -1.77087185 33.38262879 -12.75 28.75 C-13.40589111 28.47768555 -14.06178223 28.20537109 -14.73754883 27.92480469 C-20.1448991 25.52404555 -23.62499123 22.38363429 -26.8125 17.4375 C-28.27311533 13.51690096 -28.72674643 10.37924109 -28 6.25 C-25.86492643 1.80904697 -23.27322072 -0.58858342 -19.171875 -3.0859375 C-11.93249176 -5.29941799 -6.50275572 -3.05797984 0 0 Z " fill="#FE956A" transform="translate(209,334.75)"/>
</svg>
