<?xml version="1.0" encoding="UTF-8"?>
<svg version="1.1" xmlns="http://www.w3.org/2000/svg" width="512" height="512">
<path d="M0 0 C168.96 0 337.92 0 512 0 C512 168.96 512 337.92 512 512 C343.04 512 174.08 512 0 512 C0 343.04 0 174.08 0 0 Z " fill="#E91E63" transform="translate(0,0)"/>
<path d="M0 0 C14.52 0 29.04 0 44 0 C44.99 4.95 45.98 9.9 47 15 C52.94100995 33.72167001 62.19820373 47.3180551 79.77734375 56.44140625 C88.62766955 60.50842839 95.84159791 61.20734081 106 63 C106 77.52 106 92.04 106 107 C86.18505144 107 86.18505144 107 79.625 105.0625 C78.85317383 104.84795166 78.08134766 104.63340332 77.28613281 104.41235352 C65.49176363 100.91618251 54.62859488 95.08881046 44 89 C44.00444122 90.14432999 44.00888245 91.28865997 44.01345825 92.46766663 C44.05419164 103.3087804 44.08407369 114.14987843 44.10362434 124.99105167 C44.11401374 130.56315897 44.12808337 136.13520395 44.15087891 141.70727539 C44.1727814 147.09543397 44.18460495 152.48353301 44.18975449 157.87173271 C44.19341925 159.91637546 44.20057454 161.96101535 44.21146011 164.0056324 C44.37607125 196.23769231 37.7764276 222.70875826 14.79296875 246.26171875 C-1.68603703 261.82352569 -23.36345724 270.66362819 -46.0390625 270.1875 C-67.69427963 268.81619337 -86.59526385 259.82993575 -101.62109375 244.2890625 C-119.8890015 223.54650667 -125.18709376 197.9791126 -124.19091797 170.92529297 C-122.88769993 150.9570596 -110.84157208 132.94772179 -96.796875 119.3828125 C-77.90263538 103.28576478 -55.37519671 97 -31 97 C-31 111.85 -31 126.7 -31 142 C-38.425 143.98 -38.425 143.98 -46 146 C-60.1205531 150.54729676 -70.64221411 155.5206104 -77.875 168.875 C-81.58902702 177.58914107 -81.66272774 188.60787561 -78.375 197.5 C-77.63523003 199.02626226 -76.84290325 200.52818132 -76 202 C-75.55269531 202.78890625 -75.10539062 203.5778125 -74.64453125 204.390625 C-68.73892755 213.95358648 -60.62243411 219.45918863 -50 223 C-39.13762213 224.10597738 -28.52787992 223.87221766 -19 218 C-17.99419632 217.00583756 -16.99258741 216.00735805 -16 215 C-15.34 215 -14.68 215 -14 215 C-13.73058594 214.43667969 -13.46117187 213.87335938 -13.18359375 213.29296875 C-11.93348547 210.87114182 -10.51972055 208.61513094 -9.0625 206.3125 C-6.25448444 201.64613838 -4.42004935 197.23624232 -3 192 C-2.81904093 191.34010386 -2.63808186 190.68020771 -2.45163918 190.00031471 C-0.44630568 181.47914966 -0.69152016 172.8545487 -0.68115234 164.15771484 C-0.67184152 162.36315465 -0.66167115 160.56859873 -0.65071106 158.77404785 C-0.62352708 153.9276962 -0.60829622 149.08137343 -0.59528303 144.2349658 C-0.57960149 139.16073024 -0.55282738 134.08655322 -0.5272522 129.01235962 C-0.4805531 119.41498762 -0.44376616 109.81760449 -0.41057932 100.22017729 C-0.37229513 89.2890409 -0.32290153 78.35796343 -0.27259517 67.42687678 C-0.16940726 44.95128937 -0.08157057 22.47567698 0 0 Z " fill="#FEFDFE" transform="translate(265,121)"/>
<path d="M0 0 C0.33 0 0.66 0 1 0 C1 10.23 1 20.46 1 31 C-9.23 31 -19.46 31 -30 31 C-27.12594215 29.08396144 -24.30114921 27.67186862 -21.1875 26.1875 C-9.97244349 20.59348386 -4.71543966 13.95482872 -0.69921875 2.16015625 C-0.46847656 1.44730469 -0.23773438 0.73445313 0 0 Z " fill="#000000" transform="translate(511,481)"/>
<path d="M0 0 C1.04954459 2.09908918 2.09329958 4.20181104 3.078125 6.33203125 C8.20333889 17.18040065 14.57433159 24.14600492 25.9375 28.3125 C27.62133891 28.88586641 29.30766749 29.45221064 31 30 C31 30.33 31 30.66 31 31 C20.77 31 10.54 31 0 31 C0 20.77 0 10.54 0 0 Z " fill="#000000" transform="translate(0,481)"/>
<path d="M0 0 C10.23 0 20.46 0 31 0 C28.90091082 1.04954459 26.79818896 2.09329958 24.66796875 3.078125 C13.81959935 8.20333889 6.85399508 14.57433159 2.6875 25.9375 C2.11413359 27.62133891 1.54778936 29.30766749 1 31 C0.67 31 0.34 31 0 31 C0 20.77 0 10.54 0 0 Z " fill="#000000" transform="translate(0,0)"/>
<path d="M0 0 C10.23 0 20.46 0 31 0 C31 10.23 31 20.46 31 31 C29.95045541 28.90091082 28.90670042 26.79818896 27.921875 24.66796875 C22.79666111 13.81959935 16.42566841 6.85399508 5.0625 2.6875 C3.37866109 2.11413359 1.69233251 1.54778936 0 1 C0 0.67 0 0.34 0 0 Z " fill="#000000" transform="translate(481,0)"/>
</svg>
