<?xml version="1.0" encoding="UTF-8"?><svg version="1.1" width="140px" height="140px" viewBox="0 0 140.0 140.0" xmlns="http://www.w3.org/2000/svg" xmlns:xlink="http://www.w3.org/1999/xlink"><defs><clipPath id="i0"><path d="M687,0 L687,948 L0,948 L0,0 L687,0 Z"></path></clipPath><filter id="i1" x="-44.2857143%" y="-42.8571429%" filterUnits="userSpaceOnUse" width="160%" height="160%"><feGaussianBlur stdDeviation="10" in="SourceAlpha" result="i2"></feGaussianBlur><feOffset dx="0" dy="2" in="i2" result="i3"></feOffset><feColorMatrix values="0 0 0 0.0 0 0 0 0 0.0 0 0 0 0 0.0 0 0 0 0 0.75 0" type="matrix" in="i3"></feColorMatrix></filter><clipPath id="i4"><path d="M50,0 C77.6142375,0 100,22.3857625 100,50 C100,77.6142375 77.6142375,100 50,100 C22.3857625,100 0,77.6142375 0,50 C0,22.3857625 22.3857625,0 50,0 Z"></path></clipPath><clipPath id="i5"><path d="M28.285,0 L31.82,3.535 L19.445,15.91 L31.82,28.285 L28.285,31.82 L15.91,19.445 L3.535,31.82 L0,28.285 L12.375,15.91 L0,3.535 L3.535,0 L15.91,12.375 L28.285,0 Z"></path></clipPath></defs><g transform="translate(-207.0 -255.0)"><g clip-path="url(#i0)"><g transform="translate(227.0 273.0)"><path d="M50,100 C77.6142375,100 100,77.6142375 100,50 C100,22.3857625 77.6142375,0 50,0 C22.3857625,0 0,22.3857625 0,50 C0,77.6142375 22.3857625,100 50,100 Z" stroke="none" fill="#000000" filter="url(#i1)"></path><g clip-path="url(#i4)"><polygon points="0,0 100,0 100,100 0,100 0,0" stroke="none" fill="#FFFFFF"></polygon></g><g transform="translate(20.0 20.0)"><g transform="translate(14.089999999999996 14.089999999999996)"><g clip-path="url(#i5)"><polygon points="0,0 31.82,0 31.82,31.82 0,31.82 0,0" stroke="none" fill="#000000"></polygon></g></g></g></g></g></g></svg>