<?xml version="1.0" encoding="UTF-8"?><svg version="1.1" width="20px" height="20px" viewBox="0 0 20.0 20.0" xmlns="http://www.w3.org/2000/svg" xmlns:xlink="http://www.w3.org/1999/xlink"><defs><clipPath id="i0"><path d="M948,0 L948,1228 L0,1228 L0,0 L948,0 Z"></path></clipPath><clipPath id="i1"><path d="M10,0 C15.5228475,0 20,4.4771525 20,10 C20,15.5228475 15.5228475,20 10,20 C4.4771525,20 0,15.5228475 0,10 C0,4.4771525 4.4771525,0 10,0 Z"></path></clipPath><clipPath id="i2"><path d="M26.0087557,0 C27.1084896,0 28,0.898212381 28,1.99079514 L28,18.0092049 C28,19.1086907 27.1001025,20 26.0087557,20 L1.99124431,20 C0.891510444,20 0,19.1017876 0,18.0092049 L0,1.99079514 C0,0.891309342 0.899897516,0 1.99124431,0 L26.0087557,0 Z"></path></clipPath><clipPath id="i3"><path d="M28,0 L28,10.6666667 L0,10.6666667 L0,0 L28,0 Z"></path></clipPath></defs><g transform="translate(-680.0 -264.0)"><g clip-path="url(#i0)"><g transform="translate(680.0 264.0)"><g clip-path="url(#i1)"><polygon points="0,0 20,0 20,20 0,20 0,0" stroke="none" fill="#D7D7D7"></polygon><path d="M10,20 C15.5228475,20 20,15.5228475 20,10 C20,4.4771525 15.5228475,0 10,0 C4.4771525,0 0,4.4771525 0,10 C0,15.5228475 4.4771525,20 10,20 Z" stroke="#1E1E1E" stroke-width="2" fill="none" stroke-miterlimit="5"></path></g><g clip-path="url(#i1)"><g transform="translate(-4.0 20.0) scale(1.0 -1.0)"><g clip-path="url(#i2)"><polygon points="4,0 24,0 24,20 4,20 4,0" stroke="none" fill="#FFFFFF"></polygon><path d="M0,1.99079514 C0,0.891309342 0.899897516,0 1.99124431,0 L26.0087557,0 C27.1084896,0 28,0.898212381 28,1.99079514 L28,18.0092049 C28,19.1086907 27.1001025,20 26.0087557,20 L1.99124431,20 C0.891510444,20 0,19.1017876 0,18.0092049 L0,1.99079514 Z" stroke="#F5F5F5" stroke-width="1" fill="none" stroke-miterlimit="5"></path></g><g clip-path="url(#i2)"><g transform="translate(0.0 9.333333333333371)"><g clip-path="url(#i3)"><polygon points="4,0 24,0 24,10.6666667 4,10.6666667 4,0" stroke="none" fill="#EB294F"></polygon></g></g></g></g></g></g></g></g></svg>