<?xml version="1.0" encoding="UTF-8"?><svg version="1.1" width="20px" height="20px" viewBox="0 0 20.0 20.0" xmlns="http://www.w3.org/2000/svg" xmlns:xlink="http://www.w3.org/1999/xlink"><defs><clipPath id="i0"><path d="M948,0 L948,1228 L0,1228 L0,0 L948,0 Z"></path></clipPath><clipPath id="i1"><path d="M10,0 C15.5228475,0 20,4.4771525 20,10 C20,15.5228475 15.5228475,20 10,20 C4.4771525,20 0,15.5228475 0,10 C0,4.4771525 4.4771525,0 10,0 Z"></path></clipPath><clipPath id="i2"><path d="M26.0087557,0 C27.1084896,0 28,0.898212381 28,1.99079514 L28,18.0092049 C28,19.1086907 27.1001025,20 26.0087557,20 L1.99124431,20 C0.891510444,20 0,19.1017876 0,18.0092049 L0,1.99079514 C0,0.891309342 0.899897516,0 1.99124431,0 L26.0087557,0 Z"></path></clipPath><clipPath id="i3"><path d="M28,0 L28,20 L0,20 L0,0 L28,0 Z"></path></clipPath><clipPath id="i4"><path d="M0.666666667,0 L5.33333333,3.33333333 L6.66666667,3.33333333 L12,0 L12,0.333333333 C12,0.51742825 11.8846436,0.749064128 11.7220542,0.865199407 L7.33333333,4 L7.33333333,5.33333333 L11.7490997,9.11827596 C11.8703471,9.22220225 11.8531243,9.30891084 11.7272018,9.32896413 L11.6666667,9.33333333 C11.4825718,9.33333333 11.2179769,9.25093587 11.0553875,9.13480059 L6.66666667,6 L5.33333333,6 L0,9.33333333 L0,8.66666667 L4.66666667,5.33333333 L4.66666667,4 L0,0 L0.666666667,0 Z"></path></clipPath><clipPath id="i5"><path d="M7.33333333,0 L7.33333333,3.33333333 L11.9911963,3.33333333 C12.3646425,3.33333333 12.6666667,3.63460657 12.6666667,4.00624593 L12.6666667,5.3270874 C12.6666667,5.69409943 12.3642483,6 11.9911963,6 L7.33333333,6 L7.33333333,9.33948135 C7.33333333,9.69934988 7.0320601,10 6.66042074,10 L5.33957926,10 C4.97256724,10 4.66666667,9.70427573 4.66666667,9.33948135 L4.66666667,6 L0,6 L0,3.33333333 L4.66666667,3.33333333 L4.66666667,0 L7.33333333,0 Z"></path></clipPath><linearGradient id="i6" x1="6.33333333px" y1="0px" x2="6.33333333px" y2="10px" gradientUnits="userSpaceOnUse"><stop stop-color="#FFFFFF" offset="0%"></stop><stop stop-color="#EFEFEF" offset="100%"></stop></linearGradient><clipPath id="i7"><path d="M6.66666667,0 L6.66666667,4 L12,4 L12,5.33333333 L6.66666667,5.33333333 L6.66666667,9.33333333 L5.33333333,9.33333333 L5.33333333,5.33333333 L0,5.33333333 L0,4 L5.33333333,4 L5.33333333,0 L6.66666667,0 Z"></path></clipPath><linearGradient id="i8" x1="6px" y1="0px" x2="6px" y2="9.33333333px" gradientUnits="userSpaceOnUse"><stop stop-color="#FF2E3A" offset="0%"></stop><stop stop-color="#FC0D1B" offset="100%"></stop></linearGradient><clipPath id="i9"><path d="M1.90211303,0 L2.48989828,1.19098301 L3.80422607,1.38196601 L2.85316955,2.30901699 L3.07768354,3.61803399 L1.90211303,3 L0.726542528,3.61803399 L0.951056516,2.30901699 L-5.68443571e-14,1.38196601 L1.31432778,1.19098301 L1.90211303,0 Z"></path></clipPath><clipPath id="i10"><path d="M1.88561808,7.39856705e-15 L1.60947571,0.942809042 L1.88561808,1.88561808 L0.942809042,1.60947571 L7.69462652e-15,1.88561808 L0.276142375,0.942809042 L7.39856705e-15,7.69462652e-15 L0.942809042,0.276142375 L1.88561808,7.39856705e-15 Z"></path></clipPath><clipPath id="i11"><path d="M0.942809042,3.69928352e-15 L0.804737854,0.471404521 L0.942809042,0.942809042 L0.471404521,0.804737854 L3.84731326e-15,0.942809042 L0.138071187,0.471404521 L3.69928352e-15,3.84731326e-15 L0.471404521,0.138071187 L0.942809042,3.69928352e-15 Z"></path></clipPath></defs><g transform="translate(-780.0 -498.0)"><g clip-path="url(#i0)"><g transform="translate(780.0 498.0)"><g clip-path="url(#i1)"><polygon points="0,0 20,0 20,20 0,20 0,0" stroke="none" fill="#D7D7D7"></polygon><g transform="translate(-4.0 0.0)"><g clip-path="url(#i2)"><polygon points="4,0 24,0 24,20 4,20 4,0" stroke="none" fill="#FFFFFF"></polygon><g clip-path="url(#i3)"><polygon points="4,0 24,0 24,20 4,20 4,0" stroke="none" fill="#0917A7"></polygon></g><path d="M4.66666667,4 L0,0 L0.666666667,0 L5.33333333,3.33333333 L6.66666667,3.33333333 L12,0 L12,0.333333333 C12,0.51742825 11.8846436,0.749064128 11.7220542,0.865199407 L7.33333333,4 L7.33333333,5.33333333 L11.7490997,9.11827596 C11.8876681,9.23704887 11.8453776,9.33333333 11.6666667,9.33333333 L11.6666667,9.33333333 C11.4825718,9.33333333 11.2179769,9.25093587 11.0553875,9.13480059 L6.66666667,6 L5.33333333,6 L0,9.33333333 L0,8.66666667 L4.66666667,5.33333333 L4.66666667,4 Z" stroke="#FFFFFF" stroke-width="1.33333333" fill="none" stroke-miterlimit="5"></path><g clip-path="url(#i4)"><polygon points="4,0 12,0 12,9.33333333 4,9.33333333 4,0" stroke="none" fill="#FF2E3B"></polygon></g><g clip-path="url(#i5)"><polygon points="4,0 12.6666667,0 12.6666667,10 4,10 4,0" stroke="none" fill="url(#i6)"></polygon></g><g clip-path="url(#i7)"><polygon points="4,0 12,0 12,9.33333333 4,9.33333333 4,0" stroke="none" fill="url(#i8)"></polygon></g><g transform="translate(4.09788696740975 13.333333333333332)"><g clip-path="url(#i9)"><polygon points="-5.68443571e-14,0 3.80422607,0 3.80422607,3.61803399 -5.68443571e-14,3.61803399 -5.68443571e-14,0" stroke="none" fill="#FFFFFF"></polygon></g></g><g transform="translate(19.057190958418 15.723857625084612)"><g clip-path="url(#i10)"><polygon points="7.39856705e-15,7.39856705e-15 1.88561808,7.39856705e-15 1.88561808,1.88561808 7.39856705e-15,1.88561808 7.39856705e-15,7.39856705e-15" stroke="none" fill="#FFFFFF"></polygon></g></g><g transform="translate(19.057190958418 3.057190958417948)"><g clip-path="url(#i10)"><polygon points="7.39856705e-15,7.39856705e-15 1.88561808,7.39856705e-15 1.88561808,1.88561808 7.39856705e-15,1.88561808 7.39856705e-15,7.39856705e-15" stroke="none" fill="#FFFFFF"></polygon></g></g><g transform="translate(23.057190958418 7.05719095841792)"><g clip-path="url(#i10)"><polygon points="7.39856705e-15,7.39856705e-15 0.942809042,7.39856705e-15 0.942809042,1.88561808 7.39856705e-15,1.88561808 7.39856705e-15,7.39856705e-15" stroke="none" fill="#FFFFFF"></polygon></g></g><g transform="translate(15.057190958418001 8.390524291751262)"><g clip-path="url(#i10)"><polygon points="7.39856705e-15,7.39856705e-15 1.88561808,7.39856705e-15 1.88561808,1.88561808 7.39856705e-15,1.88561808 7.39856705e-15,7.39856705e-15" stroke="none" fill="#FFFFFF"></polygon></g></g><g transform="translate(21.52859547920889 10.86192881254229)"><g clip-path="url(#i11)"><polygon points="3.69928352e-15,3.69928352e-15 0.942809042,3.69928352e-15 0.942809042,0.942809042 3.69928352e-15,0.942809042 3.69928352e-15,3.69928352e-15" stroke="none" fill="#FFFFFF"></polygon></g></g></g></g></g></g></g></g></svg>