<?xml version="1.0" encoding="UTF-8"?><svg version="1.1" width="20px" height="20px" viewBox="0 0 20.0 20.0" xmlns="http://www.w3.org/2000/svg" xmlns:xlink="http://www.w3.org/1999/xlink"><defs><clipPath id="i0"><path d="M948,0 L948,1228 L0,1228 L0,0 L948,0 Z"></path></clipPath><clipPath id="i1"><path d="M10,0 C15.5228475,0 20,4.4771525 20,10 C20,15.5228475 15.5228475,20 10,20 C4.4771525,20 0,15.5228475 0,10 C0,4.4771525 4.4771525,0 10,0 Z"></path></clipPath><clipPath id="i2"><path d="M26.0087557,0 C27.1084896,0 28,0.898212381 28,1.99079514 L28,18.0092049 C28,19.1086907 27.1001025,20 26.0087557,20 L1.99124431,20 C0.891510444,20 0,19.1017876 0,18.0092049 L0,1.99079514 C0,0.891309342 0.899897516,0 1.99124431,0 L26.0087557,0 Z"></path></clipPath><clipPath id="i3"><path d="M28,0 L28,20 L0,20 L0,0 L28,0 Z"></path></clipPath><clipPath id="i4"><path d="M32.0561195,-3.55271368e-15 L33.5473005,2.21076686 L24.099,8.583 L30.7736503,8.5831129 L30.7736503,15.2497796 L24.099,15.249 L33.5473005,21.6221256 L32.0561195,23.8328925 L20.106,15.772 L20.1069836,23.2497796 L13.4403169,23.2497796 L13.44,15.772 L1.49118108,23.8328925 L-1.35447209e-14,21.6221256 L9.448,15.249 L2.77365027,15.2497796 L2.77365027,8.5831129 L9.448,8.583 L-1.35447209e-14,2.21076686 L1.49118108,-2.44249065e-15 L13.44,8.06 L13.4403169,0.583112897 L20.1069836,0.583112897 L20.106,8.06 L32.0561195,-3.55271368e-15 Z"></path></clipPath><clipPath id="i5"><path d="M16,0 L16,8 L28,8 L28,12 L16,12 L16,20 L12,20 L12,12 L0,12 L0,8 L12,8 L12,0 L16,0 Z"></path></clipPath></defs><g transform="translate(-570.0 -208.0)"><g clip-path="url(#i0)"><g transform="translate(570.0 208.0)"><g clip-path="url(#i1)"><polygon points="0,0 20,0 20,20 0,20 0,0" stroke="none" fill="#D7D7D7"></polygon><g transform="translate(-4.0 0.0)"><g clip-path="url(#i2)"><polygon points="4,0 24,0 24,20 4,20 4,0" stroke="none" fill="#FFFFFF"></polygon><g clip-path="url(#i3)"><polygon points="4,0 24,0 24,20 4,20 4,0" stroke="none" fill="#0917A7"></polygon></g><g transform="translate(-2.7736502740251012 -1.9164462305078018)"><g clip-path="url(#i4)"><polygon points="6.77365027,1.91644623 26.7736503,1.91644623 26.7736503,21.9164462 6.77365027,21.9164462 6.77365027,1.91644623" stroke="none" fill="#FFFFFF"></polygon></g></g><g transform="translate(18.66796875 -2.0)"><path d="M0,8.33219401 L12.6653646,0" stroke="#DB1F35" stroke-width="0.666666667" fill="none" stroke-linecap="round" stroke-miterlimit="10"></path></g><g transform="translate(20.01277669270837 21.350341796875) scale(1.0 -1.0)"><path d="M0,7.65283203 L11.3538411,0" stroke="#DB1F35" stroke-width="0.666666667" fill="none" stroke-linecap="round" stroke-miterlimit="10"></path></g><g transform="translate(-3.837483723958314 -1.670979817708314)"><path d="M11.8430176,7.98144531 L0,0" stroke="#DB1F35" stroke-width="0.666666667" fill="none" stroke-linecap="round" stroke-miterlimit="10"></path></g><g transform="translate(-3.837483723958314 22.31046549479169) scale(1.0 -1.0)"><path d="M13.1275228,8.70556641 L0,0" stroke="#DB1F35" stroke-width="0.666666667" fill="none" stroke-linecap="round" stroke-miterlimit="10"></path></g><g clip-path="url(#i5)"><polygon points="4,0 24,0 24,20 4,20 4,0" stroke="none" fill="#E6263E"></polygon></g></g></g></g></g></g></g></svg>