<?xml version="1.0" encoding="UTF-8"?>
<svg id="Layer_1" data-name="Layer 1" xmlns="http://www.w3.org/2000/svg" width="1728.95" height="431.56" xmlns:xlink="http://www.w3.org/1999/xlink" viewBox="0 0 1728.95 431.56">
  <defs>
    <style>
      .cls-1 {
        fill: url(#linear-gradient);
      }

      .cls-2 {
        fill: #051823;
      }

      .cls-3 {
        fill: #d10549;
      }

      .cls-4 {
        fill: #ce2e2e;
      }
    </style>
    <linearGradient id="linear-gradient" x1="142.3" y1="384.63" x2="278.16" y2="37.66" gradientUnits="userSpaceOnUse">
      <stop offset="0" stop-color="#f35048"/>
      <stop offset=".99" stop-color="#f31248"/>
    </linearGradient>
  </defs>
  <path class="cls-1" d="m341.55,297.26c-6.1-3.4-19.2-9.11-38.34-9.11-4.5,0-9.13.32-13.75.97-29.2,4.06-55.02,19.99-80,35.41-24.64,15.21-47.92,29.58-70.35,29.58-1.25,0-2.51-.04-3.75-.14-18.34-21.8-27.55-45.14-33.11-59.23-6.42-16.28-14.17-42.57-14.63-75.36l-.04-3.55.04-3.65c.45-32.79,8.21-59.08,14.63-75.37,5.37-13.61,14.16-35.83,31.26-56.96.61-.84,1.32-1.6,1.96-2.42-.04.05-.08.1-.12.16,1.22-.09,2.45-.13,3.69-.13,1.93,0,3.92.11,5.93.32,4.49.48,9.02,1.5,13.59,2.91,16.39,5.07,33.26,15.46,50.91,26.35,24.97,15.41,50.79,31.35,79.99,35.41,4.62.64,9.25.97,13.75.97,19.14,0,32.24-5.71,38.34-9.11,11.7-6.53,18.28-14.63,21.15-18.88,13.37-19.75,9.84-41.28,8.44-47.41-4.64-20.32-18.28-31.88-24.1-36.82-18.31-15.53-50.25-27.14-83.36-30.29-6.26-.6-12.61-.9-18.86-.9-34.8,0-66.38,8.99-93.86,26.72-10.83,6.99-20.89,15.33-29.93,24.81-.05.01-.11.03-.16.04-13.61,16.67-25.51,34.57-35.54,53.34-3.89,8.31-6.83,15.73-9.15,21.62-7.28,18.46-16.07,48.24-16.58,85.26-.02,1.18-.03,2.5-.05,4.03.01,1.44.03,2.76.05,3.94.51,37.02,9.3,66.8,16.58,85.26,2.81,7.12,6.52,16.54,11.82,27.14-12.02-9.13-23.04-20.09-31.25-31.22-1.16-1.57-2.04-2.83-2.65-3.69-6.45-9.21-26.09-37.23-26.07-77.68,0-1.13.02-2.35.06-3.62v-.35c-.04-1.28-.06-2.49-.06-3.62-.02-40.45,19.62-68.47,26.08-77.7.59-.85,1.47-2.1,2.64-3.68.94-1.27,1.92-2.54,2.93-3.8,7.83-9.8,17.73-19.35,28.3-27.39,4.04-7.8,9.06-16.4,15.27-25.39,5.96-8.63,11.97-16.09,17.62-22.45-3.67.94-7.72,2.13-12,3.78-4.08,1.57-8.22,3.44-12.39,5.56-22.78,11.61-46.07,31.07-62.29,53.06-1.34,1.82-2.36,3.27-3.04,4.24C23.44,129.22-.02,162.7,0,211.99c0,1.2.02,2.46.05,3.79C.02,217.11,0,218.37,0,219.57c-.02,49.3,23.44,82.78,31.15,93.78.68.97,1.7,2.42,3.04,4.24,20.41,27.68,53.04,52.14,81.19,60.87,1.95.61,3.85,1.13,5.65,1.56,9.05,9.49,19.11,17.84,29.93,24.81,27.48,17.73,59.06,26.72,93.87,26.72,6.25,0,12.59-.3,18.86-.9,33.11-3.16,65.05-14.77,83.36-30.29,5.82-4.94,19.46-16.5,24.1-36.82,1.4-6.13,4.93-27.66-8.44-47.41-2.88-4.25-9.45-12.36-21.15-18.88ZM166.05,50.34s.07-.05.1-.07c22.57-14.56,49.87-22.26,78.95-22.26,37.69,0,69.86,12.73,83.81,24.55,4.31,3.66,12.34,10.47,14.91,21.69.54,2.38,2.89,14.79-4.32,25.45-1.19,1.76-4.71,6.28-11.59,10.11-2.34,1.3-11.03,5.55-24.78,5.55-3.2,0-6.5-.23-9.81-.69-23.36-3.25-46.63-17.61-69.13-31.49-12.15-7.5-24.56-15.16-37.35-21.28-7.8-3.74-15.74-6.9-23.86-9.11-.14-.04-.28-.08-.42-.11-1.51.91-3.24,2.03-5.09,3.32,2.79-2.01,5.63-3.93,8.58-5.66Zm177.76,306.97c-2.56,11.22-10.59,18.03-14.9,21.69-13.95,11.83-46.12,24.55-83.81,24.55-29.08,0-56.38-7.7-78.95-22.26-1.2-.78-2.4-1.58-3.59-2.4,21.52-5.76,41.85-18.31,61.63-30.52,22.5-13.89,45.77-28.25,69.13-31.49,3.31-.46,6.61-.69,9.81-.69,13.75,0,22.44,4.25,24.78,5.55,6.88,3.84,10.4,8.35,11.59,10.11,7.22,10.66,4.87,23.07,4.32,25.45Z"/>
  <path class="cls-3" d="m59.68,126.8c7.83-9.8,17.73-19.35,28.3-27.39-.94,1.88-1.81,3.7-2.65,5.5,10.03-18.77,21.93-36.67,35.54-53.34-7.81,1.88-16.07,5.1-24.39,9.34-9.65,13.53-18.31,27.69-25.84,42.35-3.94,7.66-7.6,15.57-10.96,23.53Z"/>
  <path class="cls-3" d="m166.22,73.9c6.33-4.96,13.24-8.96,20.61-11.99-7.8-3.74-15.74-6.9-23.86-9.11-.14-.04-.28-.08-.42-.11-2.4,1.45-5.3,3.35-8.44,5.76-1.16.89-4.6,3.58-8.71,7.62-2.9,2.85-6.42,6.67-10.06,11.53,1.22-.09,2.45-.13,3.69-.13,1.93,0,3.92.11,5.93.32,4.49.48,9.02,1.5,13.59,2.91,2.42-2.4,4.96-4.67,7.66-6.79Z"/>
  <path class="cls-4" d="m166.43,357.58c6.51,4.83,13.63,8.74,21.22,11.69-8.03,3.64-16.21,6.73-24.56,8.88-.14.04-.29.07-.43.11-2.47-1.41-5.45-3.26-8.69-5.62-1.19-.87-4.74-3.49-8.96-7.43-2.98-2.78-6.61-6.5-10.35-11.24,1.25.09,2.52.13,3.8.13,1.98,0,4.03-.1,6.1-.31,4.63-.46,9.29-1.46,13.99-2.84,2.49,2.34,5.11,4.56,7.89,6.62Z"/>
  <path class="cls-4" d="m60,304.66c7.83,9.8,17.73,19.35,28.3,27.39,4.04,7.8,9.06,16.4,15.27,25.39,5.96,8.63,11.97,16.09,17.62,22.45-3.67-.93-7.72-2.13-12-3.78-4.08-1.57-8.22-3.44-12.39-5.56-9.65-13.53-18.31-27.69-25.84-42.35-3.94-7.66-7.6-15.57-10.96-23.53Z"/>
  <g>
    <path class="cls-2" d="m409,217.79c0-16.62,3.03-32.12,9.11-46.5,6.07-14.38,14.95-26.84,26.65-37.39,11.69-10.55,26.01-18.82,42.94-24.83,16.94-6.01,36.27-9.01,58-9.01,9.45,0,18.98.58,28.56,1.72,9.59,1.15,18.82,2.78,27.7,4.89,8.88,2.11,17.23,4.6,25.02,7.48,7.79,2.88,14.57,6.04,20.32,9.49l-26.27,42.76c-12.4-5.75-24.12-9.97-35.18-12.65-11.06-2.69-22.28-4.03-33.65-4.03-13.04,0-24.73,1.7-35.09,5.08-10.35,3.39-19.14,8.12-26.36,14.19-7.22,6.08-12.72,13.23-16.49,21.48-3.77,8.25-5.66,17.23-5.66,26.94s2.01,18.69,6.04,26.94c4.03,8.25,9.71,15.34,17.06,21.28,7.35,5.95,16.23,10.61,26.65,14,10.42,3.39,22.01,5.08,34.8,5.08,14.06,0,27.32-1.98,39.79-5.94,12.46-3.96,24.06-9.26,34.8-15.92l26.27,42.76c-6.77,4.09-14.13,7.89-22.05,11.41-7.93,3.52-16.39,6.55-25.4,9.11-9.01,2.56-18.47,4.57-28.37,6.04-9.91,1.47-20.17,2.2-30.77,2.2-21.6,0-40.97-2.94-58.09-8.82-17.13-5.87-31.64-14.03-43.52-24.44-11.89-10.42-21-22.72-27.32-36.91-6.33-14.19-9.49-29.65-9.49-46.39Z"/>
    <path class="cls-2" d="m695.56,104.09h56.76v32.6c12.53-9.33,25.75-17.38,39.69-24.16,13.93-6.77,27.8-11.95,41.61-15.53l16.68,51.96c-21.85,2.18-41.06,7.07-57.61,14.67-16.55,7.6-30.01,18.31-40.36,32.11v134.6h-56.76V104.09Z"/>
    <path class="cls-2" d="m862.1,259.01c0-10.86,2.37-20.77,7.09-29.72,4.73-8.95,11.82-16.65,21.28-23.1,9.46-6.45,21.25-11.43,35.37-14.95,14.13-3.51,30.58-5.28,49.37-5.28,13.93,0,28.6,1.03,44.01,3.07,15.4,2.05,31.28,5.17,47.64,9.39-.64-7.16-2.81-13.77-6.52-19.84-3.71-6.07-8.85-11.31-15.43-15.72-6.58-4.41-14.51-7.83-23.78-10.26-9.26-2.43-19.78-3.64-31.54-3.64-6.39,0-13.42.39-21.09,1.15-7.67.77-15.6,1.91-23.78,3.45-8.18,1.53-16.27,3.45-24.25,5.75-7.99,2.3-15.43,5.05-22.34,8.24l-17.25-46.59c8.56-3.07,17.73-5.87,27.51-8.44,9.77-2.55,19.78-4.76,30-6.61,10.23-1.85,20.45-3.29,30.68-4.31,10.22-1.02,20.13-1.53,29.72-1.53,42.3,0,73.75,10.8,94.33,32.4,20.58,21.6,30.87,54.71,30.87,99.31v98.55h-56.75v-21.28c-5.88,3.45-12.31,6.71-19.27,9.78-6.97,3.07-14.54,5.75-22.72,8.05-8.18,2.3-16.97,4.12-26.36,5.47-9.39,1.34-19.33,2.01-29.81,2.01-17.64,0-33.14-1.92-46.5-5.75-13.36-3.84-24.51-9.14-33.46-15.92-8.95-6.77-15.69-14.73-20.22-23.87-4.54-9.14-6.81-19.08-6.81-29.81Zm59.82-1.92c0,3.71.96,7.26,2.88,10.64,1.92,3.39,4.98,6.39,9.2,9.01,4.22,2.62,9.62,4.73,16.2,6.33,6.58,1.6,14.54,2.39,23.87,2.39,9.97,0,19.62-.89,28.95-2.68,9.33-1.79,18.02-4.16,26.08-7.09,8.05-2.94,15.33-6.33,21.86-10.17,6.52-3.83,11.95-7.79,16.3-11.89v-9.97c-8.69-2.43-17.29-4.47-25.79-6.13-8.5-1.66-16.62-2.98-24.35-3.93-7.74-.96-15.02-1.63-21.86-2.01-6.84-.38-12.82-.58-17.93-.58-10.61,0-19.43.7-26.46,2.11-7.03,1.41-12.72,3.3-17.06,5.66-4.35,2.37-7.42,5.15-9.2,8.34-1.8,3.19-2.69,6.52-2.69,9.97Z"/>
    <path class="cls-2" d="m1206.37,358.71c5.87,3.84,12.27,7.22,19.17,10.17,6.9,2.94,14.09,5.37,21.57,7.28,7.48,1.92,15.12,3.36,22.91,4.31,7.79.96,15.53,1.44,23.2,1.44,26.08,0,46.17-5.59,60.3-16.78,14.12-11.18,21.19-27.96,21.19-50.33v-7.67c-4.98,3.45-10.58,6.62-16.78,9.49-6.2,2.88-12.84,5.34-19.94,7.38-7.09,2.05-14.57,3.61-22.43,4.7-7.86,1.09-15.82,1.63-23.87,1.63-17.25,0-32.69-2.52-46.3-7.57-13.61-5.05-25.12-12.46-34.51-22.24-9.39-9.78-16.59-21.82-21.57-36.14s-7.47-30.68-7.47-49.09v-111.21h56.56v95.49c0,27.35,5.21,47.52,15.63,60.49,10.42,12.98,26.87,19.46,49.37,19.46,15.85,0,29.87-2.78,42.09-8.34,12.2-5.56,21.95-12.68,29.24-21.38V104.09h56.75v200.36c0,21.61-3.07,40.36-9.2,56.27-6.13,15.92-15.05,29.11-26.74,39.59-11.7,10.48-26.05,18.31-43.04,23.49-17,5.18-36.31,7.77-57.9,7.77s-40.78-2.24-59.05-6.71c-18.28-4.48-35.03-10.55-50.23-18.22l21.09-47.93Z"/>
    <path class="cls-2" d="m1494.27,260.93c15.34,9.2,32.21,15.98,50.62,20.32,18.41,4.35,37.26,6.52,56.56,6.52,13.03,0,23.9-.9,32.59-2.69,8.69-1.79,15.66-4.09,20.9-6.9,5.24-2.81,8.95-6.01,11.12-9.58,2.18-3.58,3.26-7.22,3.26-10.93,0-5.37-2.33-9.97-7-13.81-4.67-3.83-12.36-5.75-23.1-5.75-4.98,0-10.35.32-16.1.96-5.76.64-11.79,1.31-18.12,2.01-6.33.7-12.91,1.37-19.75,2.01-6.84.64-13.77.96-20.81.96-15.33,0-28.41-1.66-39.21-4.98-10.8-3.32-19.59-7.86-26.36-13.62-6.78-5.75-11.7-12.55-14.76-20.42-3.07-7.86-4.6-16.32-4.6-25.4,0-11.5,2.69-22.11,8.06-31.83,5.37-9.71,13.03-18.11,23-25.21,9.97-7.09,22.01-12.62,36.14-16.59,14.13-3.96,29.88-5.94,47.26-5.94,9.07,0,18.57.54,28.48,1.63,9.9,1.09,19.65,2.52,29.24,4.31s18.79,3.87,27.61,6.23c8.82,2.37,16.62,4.89,23.39,7.57l-17.83,44.1c-14.44-5.37-28.86-9.62-43.23-12.75-14.38-3.13-29.17-4.7-44.39-4.7-10.61,0-19.59.8-26.94,2.4-7.35,1.6-13.33,3.71-17.93,6.33-4.6,2.62-7.96,5.63-10.06,9.01-2.11,3.38-3.16,6.93-3.16,10.64,0,2.69.54,5.11,1.63,7.28,1.09,2.18,2.88,4.06,5.37,5.66,2.49,1.6,5.75,2.81,9.77,3.64,4.03.83,8.98,1.25,14.86,1.25,5.37,0,11.05-.32,17.07-.96,6-.64,12.27-1.31,18.79-2.01,6.52-.7,13.26-1.38,20.23-2.01,6.97-.64,14.09-.96,21.38-.96,13.55,0,25.4,1.59,35.57,4.79,10.16,3.2,18.56,7.67,25.21,13.42,6.65,5.75,11.63,12.53,14.95,20.32,3.32,7.8,4.99,16.3,4.99,25.5,0,11.89-2.75,22.95-8.25,33.17-5.5,10.23-13.68,19.08-24.54,26.56-10.86,7.47-24.38,13.33-40.55,17.54-16.17,4.22-34.86,6.33-56.08,6.33-13.03,0-25.63-.8-37.77-2.4-12.15-1.6-23.71-3.77-34.71-6.52-10.99-2.75-21.31-5.97-30.96-9.68-9.66-3.7-18.44-7.67-26.37-11.88l24.54-42.95Z"/>
  </g>
</svg>