<?xml version="1.0" encoding="UTF-8"?><svg version="1.1" width="687px" height="948px" viewBox="0 0 687.0 948.0" xmlns="http://www.w3.org/2000/svg" xmlns:xlink="http://www.w3.org/1999/xlink"><defs><clipPath id="i0"><path d="M687,0 L687,948 L0,948 L0,0 L687,0 Z"></path></clipPath><clipPath id="i1"><path d="M39.398,0 C61.156,0 78.793,17.641 78.793,39.398 C78.793,61.156 61.156,78.793 39.398,78.793 C17.64,78.793 0,61.156 0,39.398 C0,17.64 17.641,0 39.398,0 Z"></path></clipPath><clipPath id="i2"><path d="M32.195,0 L184.085,0.003906 C201.831,0.003906 216.28,14.452906 216.28,32.198906 L216.276094,166.248906 C216.276094,184.005906 201.827094,198.444 184.081094,198.444 L32.195,198.444 C14.449,198.444 0.011719,183.995 0,166.245 L0,32.195 C0,14.438 14.449,0 32.195,0 Z M183.178594,33.123906 L33.138594,33.123906 L33.138594,165.313906 L183.178594,165.313906 L183.178594,33.123906 Z"></path></clipPath><clipPath id="i3"><path d="M184.095,0 C201.841,0 216.29,14.449 216.29,32.195 L216.286093,166.235 C216.286093,183.992 201.837093,198.43 184.091093,198.43 L32.211093,198.43 C14.465093,198.43 0.016093,183.981 0.016093,166.235 L0,166.235 L0,32.195 C0,14.438 14.449,0 32.195,0 Z M183.177093,33.115 L33.137093,33.115 L33.137093,165.308906 L183.177093,165.305 L183.177093,33.115 Z"></path></clipPath><clipPath id="i4"><path d="M447.434,0 C452.5553,0 457.5241,1.7735 461.485,5.0391 L678.895,184.2991 L678.886993,184.305187 C683.972993,188.492187 686.93,194.742387 686.93,201.332187 L686.93,872.932187 C686.93,904.964187 660.863,931.028 628.836,931.028 L552.383,931.028 C540.1917,931.028 530.305,921.139187 530.305,908.948187 C530.305,896.756887 540.192,886.870187 552.383,886.870187 L628.836,886.870187 C636.3872,886.870187 642.77,880.483087 642.77,872.936187 L642.77,222.826187 L476.44,222.826187 C447.448,222.826187 423.854,199.248187 423.854,170.256187 L423.854,44.166187 L58.094,44.166187 C50.5428,44.166187 44.16,50.553287 44.16,58.100187 L44.16,872.930187 C44.16,880.493087 50.5471,886.864187 58.094,886.864187 L304.164,886.872 C316.3553,886.872 326.242,896.7587 326.242,908.95 C326.242,921.1413 316.355,931.028 304.164,931.028 L58.094,931.028 C26.062,931.028 0,904.961 0,872.934 L0,58.094 C0,26.062 26.067,0 58.094,0 Z M456.98,58.5645 L456.98,170.2445 C456.98,180.9748 465.718,189.6975 476.445,189.6975 L616.03,189.7045 L456.98,58.5645 Z"></path></clipPath><clipPath id="i5"><path d="M266.3995,6.93846744 C271.6925,-0.499032557 282.0598,-2.22953256 289.4895,3.07516744 C296.9426,8.39216744 298.6692,18.7357674 293.3528,26.1771674 L215.457496,135.379174 C215.961406,137.636974 216.273906,139.953374 216.273906,142.363574 L216.27,276.413574 C216.27,294.170574 201.821,308.608574 184.075,308.608574 L32.195,308.608574 C14.449,308.608574 0,294.159574 0,276.413574 L0,142.363574 C0,124.606574 14.449,110.168574 32.195,110.168574 L184.095,110.164667 C186.8293,110.164667 189.4465,110.610027 191.9895,111.258467 Z M169.1428,143.277167 L33.1328,143.277167 L33.1328,275.477167 L183.1528,275.477167 L183.15964,180.643948 L128.63264,257.084948 C125.64404,261.276348 120.89404,263.842758 115.74564,264.022448 C115.53861,264.034167 115.34721,264.034167 115.1558,264.034167 C110.2217,264.034167 105.542,261.850567 102.3858,258.034167 L48.5068,192.874167 C42.6865,185.820167 43.6591,175.390167 50.7138,169.558167 C57.7568,163.726067 68.1978,164.722167 74.0298,171.765167 L114.1818,220.316167 L169.1428,143.277167 Z"></path></clipPath></defs><g clip-path="url(#i0)"><g transform=""><g transform="translate(393.1119999999999 869.5310999999997)"><g clip-path="url(#i1)"><polygon points="0,0 78.793,0 78.793,78.4689 0,78.4689 0,0" stroke="none" fill="#FFFFFF"></polygon></g></g><g transform="translate(143.73390599999993 130.07519399999995)"><g clip-path="url(#i2)"><polygon points="0,0 216.28,0 216.28,198.444 0,198.444 0,0" stroke="none" fill="#FFFFFF"></polygon></g></g><g transform="translate(143.73890699999993 372.43409999999994)"><g clip-path="url(#i3)"><polygon points="0,0 216.29,0 216.29,198.43 0,198.43 0,0" stroke="none" fill="#FFFFFF"></polygon></g></g><g transform=""><g clip-path="url(#i4)"><polygon points="0,0 686.93,0 686.93,931.028 0,931.028 0,0" stroke="none" fill="#FFFFFF"></polygon></g></g><g transform="translate(143.74219999999985 504.62193255696445)"><g clip-path="url(#i5)"><polygon points="0,0 296.437422,0 296.437422,308.608574 0,308.608574 0,0" stroke="none" fill="#FFFFFF"></polygon></g></g></g></g></svg>