<?xml version="1.0" encoding="UTF-8"?><svg version="1.1" width="48px" height="48px" viewBox="0 0 48.0 48.0" xmlns="http://www.w3.org/2000/svg" xmlns:xlink="http://www.w3.org/1999/xlink"><defs><clipPath id="i0"><path d="M24,0 C37.2548346,0 48,10.7451654 48,24 C48,37.2548346 37.2548346,48 24,48 C10.7451654,48 0,37.2548346 0,24 C0,10.7451654 10.7451654,0 24,0 Z M16.960542,19.8778483 L11.5216171,19.8778483 L11.5216171,36.2195598 L16.960542,36.2195598 L16.960542,19.8778483 Z M30.3131382,19.4941133 C27.425427,19.4941133 26.13255,21.080247 25.4106765,22.1929485 L25.4106765,19.8782822 L19.9710999,19.8782822 C19.9909519,20.302922 19.999809,21.7455636 20.0022382,23.6098264 L20.002069,26.2930028 C19.9974369,30.417624 19.9761766,35.1341899 19.9718642,36.058302 L19.9710999,36.2199936 L25.4106765,36.2199936 L25.4106765,27.0934337 C25.4106765,26.6050338 25.4459773,26.117827 25.5897871,25.7681486 C25.9828747,24.7924334 26.877885,23.7822276 28.3805028,23.7822276 C30.3494166,23.7822276 31.1364608,25.2807249 31.1364608,27.4767349 L31.1364608,36.2195598 L36.5751684,36.2195598 L36.5753856,26.8497218 C36.5753856,21.8302549 33.8922015,19.4941133 30.3131382,19.4941133 Z M14.277032,12 C12.4164101,12 11.2,13.2204033 11.2,14.8226977 C11.2,16.3918031 12.3804576,17.6473477 14.2064305,17.6473477 L14.2411882,17.6473477 C16.1376539,17.6473477 17.3187633,16.3918031 17.3187633,14.8226977 C17.2834625,13.2204033 16.1376539,12 14.277032,12 Z"></path></clipPath></defs><g clip-path="url(#i0)"><polygon points="0,0 48,0 48,48 0,48 0,0" stroke="none" fill="#F31248"></polygon></g></svg>