<?xml version="1.0" encoding="UTF-8"?>
<svg version="1.1" xmlns="http://www.w3.org/2000/svg" width="256" height="256">
<path d="M0 0 C0.98484375 0.84433594 1.9696875 1.68867188 2.984375 2.55859375 C3.49548828 2.99284668 4.00660156 3.42709961 4.53320312 3.87451172 C28.57377834 24.46245113 46.36598321 54.58042819 48.984375 86.55859375 C50.76790101 122.65819409 43.97960792 155.570261 19.984375 183.55859375 C19.55012207 184.06970703 19.11586914 184.58082031 18.66845703 185.10742188 C-1.91948238 209.14799709 -32.03745944 226.94020196 -64.015625 229.55859375 C-100.11522534 231.34211976 -133.02729225 224.55382667 -161.015625 200.55859375 C-161.52673828 200.12434082 -162.03785156 199.69008789 -162.56445312 199.24267578 C-186.60502834 178.65473637 -204.39723321 148.53675931 -207.015625 116.55859375 C-208.79915101 80.45899341 -202.01085792 47.5469265 -178.015625 19.55859375 C-177.58137207 19.04748047 -177.14711914 18.53636719 -176.69970703 18.00976562 C-133.05584215 -32.95325672 -52.9131779 -43.04231857 0 0 Z " fill="#F31349" transform="translate(207.015625,26.44140625)"/>
<path d="M0 0 C18.16411622 14.77596483 33.15715184 35.90600319 35.82128906 59.79443359 C36.92520743 73.4184753 36.63851829 86.77477698 33 100 C32.74476563 100.99515625 32.48953125 101.9903125 32.2265625 103.015625 C25.38653346 126.48508243 8.74852313 143.57471322 -11.56640625 156.17578125 C-15.91368033 158.48542516 -20.40308483 160.252909 -25 162 C-25.02505615 161.21463867 -25.0501123 160.42927734 -25.07592773 159.62011719 C-25.19332087 155.99663572 -25.31538592 152.37332532 -25.4375 148.75 C-25.47681641 147.51507813 -25.51613281 146.28015625 -25.55664062 145.0078125 C-25.81989971 137.31254686 -26.27588172 129.66588041 -27 122 C-26.20207031 121.76531006 -25.40414062 121.53062012 -24.58203125 121.28881836 C-10.9925974 117.20378768 -0.96619818 111.26186087 6.26953125 98.81640625 C12.95159085 85.17699621 14.05118685 69.19525366 9.9296875 54.671875 C7.78057718 48.36286146 7.78057718 48.36286146 4 43 C4.02334364 41.17495149 4.05300831 39.34974639 4.1159668 37.52563477 C4.38990409 28.81106321 3.83596947 21.01833083 0 13 C-4.02008697 10.31994202 -7.35373879 10.44817132 -12 11 C-17.89959131 12.43231548 -23.14175381 14.18838907 -28 17.875 C-30.44203718 19.53201271 -31.59420966 20.03484136 -34.57617188 19.77880859 C-35.53072266 19.57078613 -36.48527344 19.36276367 -37.46875 19.1484375 C-43.87398347 17.93288121 -49.99407145 17.70150861 -56.5 17.75 C-57.53769531 17.74226563 -58.57539062 17.73453125 -59.64453125 17.7265625 C-66.11214614 17.74267113 -72.10043331 18.40076965 -78.42382812 19.77880859 C-82.18529312 20.10176986 -83.97515286 18.65269066 -86.87890625 16.44921875 C-92.87318664 12.35367911 -100.9171241 10.21506482 -108.16015625 10.62109375 C-110.20906051 10.92837976 -110.20906051 10.92837976 -112.4375 12.5625 C-116.8993788 19.52303092 -116.12882223 26.8716491 -115.74609375 34.79296875 C-115.57738291 41.37269154 -115.57738291 41.37269154 -117.87109375 44.77734375 C-118.92490234 45.87755859 -118.92490234 45.87755859 -120 47 C-121.27147436 49.66051217 -121.27147436 49.66051217 -122.1875 52.4375 C-122.51105469 53.34371094 -122.83460937 54.24992187 -123.16796875 55.18359375 C-127.67046597 70.42444116 -125.21867378 87.46236442 -117.72265625 101.3125 C-110.02434112 113.32256986 -98.35217507 118.4422104 -85 122 C-85.33 123.65 -85.66 125.3 -86 127 C-91.95603648 128.12959312 -94.62744919 128.25693495 -100 125 C-102.4140625 122.66015625 -102.4140625 122.66015625 -104.625 120.0625 C-111.61922138 111.45034913 -111.61922138 111.45034913 -121.69140625 107.7109375 C-127.20892901 107.44001628 -127.20892901 107.44001628 -132.27734375 109.30078125 C-134.33446979 111.04115214 -134.33446979 111.04115214 -134.9375 114.5625 C-134.78945033 117.83143681 -134.14373744 118.85394836 -131.81640625 121.21875 C-129.86165015 122.84545411 -127.9030367 124.46752975 -125.94140625 126.0859375 C-122.57496633 129.1326356 -120.84838718 132.62331083 -118.9375 136.6875 C-114.95572032 144.96993089 -109.99023124 149.03955201 -101.5 152.375 C-97.0156868 153.17577022 -92.54027656 153.65285612 -88 154 C-88 156.31 -88 158.62 -88 161 C-108.94757214 155.22135941 -125.67899657 140.24821862 -136.546875 121.78125 C-141.19018947 113.52605498 -144.82633944 105.25907345 -147 96 C-147.22300781 95.09894531 -147.44601563 94.19789063 -147.67578125 93.26953125 C-152.42024693 70.38636002 -147.83063411 46.18411526 -135.90039062 26.15380859 C-133.52258874 22.54817716 -130.82209233 19.26259045 -128 16 C-127.27941406 15.13117188 -126.55882813 14.26234375 -125.81640625 13.3671875 C-94.71168756 -22.8939284 -38.16470958 -29.30504486 0 0 Z " fill="#F31349" transform="translate(184,54)"/>
<path d="M0 0 C0.78632813 0.70382813 1.57265625 1.40765625 2.3828125 2.1328125 C3.00414062 2.67164062 3.62546875 3.21046875 4.265625 3.765625 C21.70572451 19.90785664 32.68964721 45.17103095 33.65625 68.64453125 C34.28634168 95.84642636 27.90272328 121.32006693 8.80859375 141.6015625 C8.00808594 142.436875 7.20757812 143.2721875 6.3828125 144.1328125 C5.57199219 145.03 4.76117188 145.9271875 3.92578125 146.8515625 C-5.74251214 157.17213955 -21.24976302 169.27541552 -35.828125 170.375 C-38.6171875 170.1328125 -38.6171875 170.1328125 -40.6171875 168.1328125 C-40.90429688 165.01928711 -40.90429688 165.01928711 -40.9609375 161.03515625 C-40.9755603 160.32686172 -40.99018311 159.6185672 -41.00524902 158.8888092 C-41.05180506 156.61603509 -41.08591496 154.34334513 -41.1171875 152.0703125 C-41.13841987 134.81220586 -41.13841987 134.81220586 -47.6171875 119.1328125 C-46.55242187 118.92527344 -45.48765625 118.71773437 -44.390625 118.50390625 C-32.99504884 116.14296986 -19.04212461 113.11784139 -11.78515625 103.13671875 C-4.33529229 90.35484514 -1.8987431 76.80799402 -3.6171875 62.1328125 C-5.15677712 56.45289224 -7.47505647 51.53031665 -10.9921875 46.8203125 C-13.21246308 43.14831826 -12.44842791 41.28901454 -11.6171875 37.1328125 C-11.20973233 30.74934812 -11.80216893 25.25850016 -13.6171875 19.1328125 C-21.77971706 18.40725432 -29.16937132 21.26924322 -35.8046875 25.9453125 C-38.70000474 27.88939615 -40.38783621 28.42430943 -43.8671875 28.0078125 C-45.75289509 27.56781406 -47.64000666 27.12621793 -49.50024414 26.58862305 C-54.23817081 25.56847438 -59.22948538 25.94430262 -64.0546875 25.9453125 C-65.23015137 25.94104248 -66.40561523 25.93677246 -67.61669922 25.93237305 C-73.67152272 25.95463034 -79.31646028 26.21107819 -85.2421875 27.4453125 C-89.30236581 28.22569623 -91.24988491 28.28751002 -94.7421875 26.0078125 C-95.35191406 25.53601563 -95.96164063 25.06421875 -96.58984375 24.578125 C-102.29931039 20.50779233 -109.71302588 18.74651576 -116.6171875 18.1328125 C-118.92595344 25.92489756 -119.15865461 32.93022796 -117.8671875 40.9453125 C-117.38984106 44.80442319 -117.38984106 44.80442319 -119.3046875 47.5703125 C-120.0678125 48.4159375 -120.8309375 49.2615625 -121.6171875 50.1328125 C-128.12566082 63.91812057 -128.03885809 77.54478118 -123.6171875 92.1328125 C-122.16052028 95.6049941 -120.4736063 98.86110412 -118.6171875 102.1328125 C-118.17052734 103.19628906 -118.17052734 103.19628906 -117.71484375 104.28125 C-116.33164989 106.6144667 -115.07929931 107.0763093 -112.6171875 108.1328125 C-111.4448916 108.9161193 -110.278418 109.70819325 -109.1171875 110.5078125 C-101.1478263 115.52939883 -91.81093261 117.58696155 -82.6171875 119.1328125 C-82.95492187 119.72449219 -83.29265625 120.31617188 -83.640625 120.92578125 C-86.4497711 125.86094992 -86.4497711 125.86094992 -88.6796875 131.0703125 C-89.90861735 133.77395816 -90.87001183 134.07298839 -93.6171875 135.1328125 C-96.421875 135.43359375 -96.421875 135.43359375 -99.4921875 135.4453125 C-100.50023437 135.46207031 -101.50828125 135.47882813 -102.546875 135.49609375 C-108.71108664 134.76674046 -112.25568828 131.8767597 -116.1796875 127.2578125 C-116.95441406 126.37351563 -117.72914062 125.48921875 -118.52734375 124.578125 C-120.06963643 122.77349843 -121.5974615 120.9564837 -123.1171875 119.1328125 C-126.98959245 116.03488854 -131.68729511 115.1328125 -136.6171875 115.1328125 C-135.38440319 118.83116542 -133.55815035 119.56372172 -130.453125 121.69921875 C-125.91634066 125.24177163 -123.6315632 130.04681012 -121.3046875 135.1953125 C-118.09233331 141.79067719 -113.71799821 144.90318067 -106.9921875 147.5703125 C-100.97782633 148.79009258 -94.66004021 147.7608618 -88.6171875 147.1328125 C-88.50110024 150.40334767 -88.42998039 153.6733543 -88.3671875 156.9453125 C-88.33367187 157.87408203 -88.30015625 158.80285156 -88.265625 159.75976562 C-88.24628906 161.0987793 -88.24628906 161.0987793 -88.2265625 162.46484375 C-88.1951416 163.69811401 -88.1951416 163.69811401 -88.16308594 164.95629883 C-88.6171875 167.1328125 -88.6171875 167.1328125 -90.47045898 168.93017578 C-93.60242968 170.68476325 -95.18661842 170.09008507 -98.6171875 169.1328125 C-101.41392196 168.07764485 -104.10769441 166.8574931 -106.8046875 165.5703125 C-107.55645264 165.21171143 -108.30821777 164.85311035 -109.08276367 164.48364258 C-115.48260752 161.34514543 -121.13284097 157.70447168 -126.6171875 153.1328125 C-127.59042969 152.33359375 -128.56367188 151.534375 -129.56640625 150.7109375 C-148.71499885 134.4203438 -161.19607644 110.1808504 -163.6171875 85.1328125 C-165.36558797 54.52046737 -155.44223125 28.40686226 -135.37109375 5.578125 C-99.98443501 -31.95121216 -38.40254015 -33.02842374 0 0 Z M-127.6171875 7.1328125 C-128.49890625 7.89078125 -128.49890625 7.89078125 -129.3984375 8.6640625 C-141.13245286 19.51249179 -148.4214385 33.22009018 -153.6171875 48.1328125 C-153.8558252 48.81456543 -154.09446289 49.49631836 -154.34033203 50.19873047 C-161.77426568 72.43410758 -157.93841734 96.71723122 -148.01953125 117.4765625 C-144.29227038 124.74429668 -139.90850417 130.93597153 -134.6171875 137.1328125 C-134.00875 137.94105469 -133.4003125 138.74929687 -132.7734375 139.58203125 C-130.22914315 142.59185771 -127.39326961 145.02477734 -124.3046875 147.4453125 C-123.70019775 147.91952637 -123.09570801 148.39374023 -122.47290039 148.88232422 C-118.04318516 152.25761602 -113.46512241 155.13521464 -108.5546875 157.7578125 C-107.9361792 158.08821533 -107.3176709 158.41861816 -106.68041992 158.7590332 C-103.35876186 160.45687045 -100.31644634 161.61533584 -96.6171875 162.1328125 C-96.6171875 159.8228125 -96.6171875 157.5128125 -96.6171875 155.1328125 C-97.99390625 154.98585937 -97.99390625 154.98585937 -99.3984375 154.8359375 C-106.43510166 153.97852884 -112.68573213 153.19327188 -118.6171875 149.1328125 C-119.42671875 148.58753906 -120.23625 148.04226562 -121.0703125 147.48046875 C-124.30368408 144.50001428 -125.85434608 141.33606076 -127.8046875 137.4453125 C-130.6523133 131.99885283 -133.32258647 128.06114775 -138.1796875 124.1328125 C-142.42432134 120.68693557 -142.42432134 120.68693557 -143.38671875 117.921875 C-143.4921875 115.7578125 -143.4921875 115.7578125 -142.6171875 112.1328125 C-139.69795405 109.27288627 -137.46463557 108.67939199 -133.4296875 108.6328125 C-127.42517419 108.84811377 -123.24501109 110.27766283 -118.6171875 114.1328125 C-116.14751433 116.86581108 -113.87392395 119.66574946 -111.66015625 122.609375 C-108.69572654 126.27098416 -106.74827982 127.89043557 -102.1171875 128.8828125 C-99.18458716 129.09228395 -97.33556407 129.11142807 -94.6171875 128.1328125 C-94.2871875 126.4828125 -93.9571875 124.8328125 -93.6171875 123.1328125 C-94.43960938 122.91367188 -95.26203125 122.69453125 -96.109375 122.46875 C-108.54626092 118.93587017 -119.18173455 113.61261212 -126.33984375 102.4453125 C-134.11392033 88.0814167 -135.97588526 71.55073159 -131.54296875 55.8359375 C-129.93696028 51.14666384 -128.1710714 46.6866964 -124.6171875 43.1328125 C-124.38919507 41.14627729 -124.38919507 41.14627729 -124.52734375 38.87890625 C-124.55731445 37.5959668 -124.55731445 37.5959668 -124.58789062 36.28710938 C-124.64817036 34.50308567 -124.71312582 32.7192126 -124.78320312 30.93554688 C-124.91195926 24.98168577 -124.44026706 19.49004082 -121.6171875 14.1328125 C-117.56573038 11.43184109 -114.29537807 11.48776951 -109.6171875 12.1328125 C-97.46844988 15.54369968 -97.46844988 15.54369968 -92.94140625 19.4296875 C-88.4269021 21.74264145 -85.70222863 20.74974009 -80.859375 19.73632812 C-75.61874533 18.76081332 -70.43209774 18.84319826 -65.1171875 18.8828125 C-64.07949219 18.87507813 -63.04179687 18.86734375 -61.97265625 18.859375 C-56.54515533 18.87289306 -51.52152863 19.26432746 -46.19140625 20.31640625 C-41.51216731 21.17142177 -38.98509655 21.24687527 -34.9296875 18.4453125 C-27.95643414 14.07327273 -21.91731672 11.86232423 -13.66015625 11.63671875 C-10.70048745 12.35541461 -9.52039223 13.79907309 -7.6171875 16.1328125 C-4.29038149 23.12158781 -4.34335684 30.56220715 -4.81542969 38.11791992 C-5.03558183 43.42939946 -3.78369892 45.95984485 -0.6171875 50.1328125 C0.39453125 52.4765625 0.39453125 52.4765625 1.0703125 54.6328125 C1.41642578 55.70015625 1.41642578 55.70015625 1.76953125 56.7890625 C5.61582529 71.48827539 4.13780626 88.49969017 -3.5546875 101.7578125 C-11.20403659 113.56210051 -22.06664653 119.91965337 -35.6171875 123.1328125 C-35.55152588 123.82793945 -35.48586426 124.52306641 -35.41821289 125.23925781 C-34.68364326 133.44970916 -34.31695311 141.64509255 -34.0546875 149.8828125 C-34.01150391 151.16414062 -33.96832031 152.44546875 -33.92382812 153.765625 C-33.81897416 156.88794316 -33.71680732 160.01032371 -33.6171875 163.1328125 C-23.07321575 159.08186126 -14.46576837 154.13885162 -5.6171875 147.1328125 C-4.7096875 146.42253906 -3.8021875 145.71226562 -2.8671875 144.98046875 C14.34466828 130.53864601 25.05601899 108.30857919 27.3828125 86.1328125 C28.78073186 58.09088426 22.7215114 34.64438816 4.1328125 13.0078125 C-12.11608826 -4.29477125 -34.21003127 -16.37478459 -58.3515625 -17.16796875 C-60.35668175 -17.18726936 -62.36200598 -17.1907694 -64.3671875 -17.1796875 C-65.42268799 -17.17477295 -66.47818848 -17.1698584 -67.56567383 -17.16479492 C-90.1402649 -16.82687788 -110.78376388 -7.74890983 -127.6171875 7.1328125 Z " fill="#FEF4F6" transform="translate(192.6171875,52.8671875)"/>
<path d="M0 0 C0.98484375 0.84433594 1.9696875 1.68867188 2.984375 2.55859375 C3.49548828 2.99284668 4.00660156 3.42709961 4.53320312 3.87451172 C28.57377834 24.46245113 46.36598321 54.58042819 48.984375 86.55859375 C50.76790101 122.65819409 43.97960792 155.570261 19.984375 183.55859375 C19.55012207 184.06970703 19.11586914 184.58082031 18.66845703 185.10742188 C-1.91948238 209.14799709 -32.03745944 226.94020196 -64.015625 229.55859375 C-100.11522534 231.34211976 -133.02729225 224.55382667 -161.015625 200.55859375 C-161.52673828 200.12434082 -162.03785156 199.69008789 -162.56445312 199.24267578 C-186.60502834 178.65473637 -204.39723321 148.53675931 -207.015625 116.55859375 C-208.79915101 80.45899341 -202.01085792 47.5469265 -178.015625 19.55859375 C-177.58137207 19.04748047 -177.14711914 18.53636719 -176.69970703 18.00976562 C-133.05584215 -32.95325672 -52.9131779 -43.04231857 0 0 Z M-158.015625 8.55859375 C-159.46001953 9.77095703 -159.46001953 9.77095703 -160.93359375 11.0078125 C-184.14999347 31.10066038 -198.04719727 59.87309757 -200.703125 90.30859375 C-200.82413746 92.39101649 -200.92945837 94.47443834 -201.015625 96.55859375 C-201.0775 97.83863281 -201.0775 97.83863281 -201.140625 99.14453125 C-201.64106988 119.47510469 -197.41577266 138.56578963 -188.015625 156.55859375 C-187.53536865 157.47801758 -187.53536865 157.47801758 -187.04541016 158.41601562 C-182.78900205 166.44056557 -178.00281891 173.69759316 -172.015625 180.55859375 C-171.22800781 181.5021875 -170.44039062 182.44578125 -169.62890625 183.41796875 C-149.49416338 206.65267951 -120.75251918 220.58568081 -90.265625 223.24609375 C-88.18320226 223.36710621 -86.09978041 223.47242712 -84.015625 223.55859375 C-83.16226563 223.59984375 -82.30890625 223.64109375 -81.4296875 223.68359375 C-61.09911406 224.18403863 -42.00842912 219.95874141 -24.015625 210.55859375 C-23.40267578 210.23842285 -22.78972656 209.91825195 -22.15820312 209.58837891 C-14.13510591 205.33274136 -6.8864495 200.53223621 -0.015625 194.55859375 C0.81582031 193.85992187 1.64726562 193.16125 2.50390625 192.44140625 C8.76730592 187.03429317 13.96409546 181.12357469 18.984375 174.55859375 C19.57863281 173.81480469 20.17289063 173.07101563 20.78515625 172.3046875 C34.64178836 153.98844966 41.8654338 130.28708677 42.984375 107.55859375 C43.025625 106.76195312 43.066875 105.9653125 43.109375 105.14453125 C43.86449598 74.65652154 34.36757563 45.42755055 13.984375 22.55859375 C13.26507813 21.7078125 12.54578125 20.85703125 11.8046875 19.98046875 C6.42093366 13.73454792 0.52685165 8.56166413 -6.015625 3.55859375 C-6.75941406 2.96433594 -7.50320312 2.37007812 -8.26953125 1.7578125 C-26.58576909 -12.09881961 -50.28713198 -19.32246505 -73.015625 -20.44140625 C-73.81226563 -20.48265625 -74.60890625 -20.52390625 -75.4296875 -20.56640625 C-105.89398827 -21.32094002 -135.18052415 -11.84076301 -158.015625 8.55859375 Z " fill="#FEF9FB" transform="translate(207.015625,26.44140625)"/>
</svg>
