<?xml version="1.0" encoding="UTF-8"?>
<svg version="1.1" xmlns="http://www.w3.org/2000/svg" width="512" height="512">
<path d="M0 0 C1.45108658 0.00273422 1.45108658 0.00273422 2.93148804 0.00552368 C17.26440977 0.05095174 31.21023917 0.55983928 45.3125 3.3125 C46.65803955 3.55395752 46.65803955 3.55395752 48.03076172 3.80029297 C107.84088904 14.62287989 165.35495829 48.68064457 202.3125 97.3125 C202.72918945 97.85277832 203.14587891 98.39305664 203.57519531 98.94970703 C211.2584873 108.9447116 218.00092968 119.40459036 224.3125 130.3125 C224.70679199 130.98974121 225.10108398 131.66698242 225.50732422 132.36474609 C240.41535371 158.28373809 249.97401819 187.77601638 254.3125 217.3125 C254.48982666 218.51712891 254.66715332 219.72175781 254.84985352 220.96289062 C256.448825 232.62017354 256.6709053 244.18436098 256.625 255.9375 C256.62226578 257.39233292 256.62226578 257.39233292 256.61947632 258.8765564 C256.57408309 273.22806055 256.0687347 287.19192918 253.3125 301.3125 C253.15152832 302.20952637 252.99055664 303.10655273 252.82470703 304.03076172 C242.00212011 363.84088904 207.94435543 421.35495829 159.3125 458.3125 C158.77222168 458.72918945 158.23194336 459.14587891 157.67529297 459.57519531 C147.6802884 467.2584873 137.22040964 474.00092968 126.3125 480.3125 C125.63525879 480.70679199 124.95801758 481.10108398 124.26025391 481.50732422 C101.3416244 494.68961173 75.76677437 503.29510918 49.9375 508.625 C49.22682373 508.77243652 48.51614746 508.91987305 47.78393555 509.07177734 C32.14141634 512.05713787 16.50580394 512.6873098 0.625 512.625 C-0.34239105 512.62317719 -1.3097821 512.62135437 -2.30648804 512.61947632 C-16.63940977 512.57404826 -30.58523917 512.06516072 -44.6875 509.3125 C-45.58452637 509.15152832 -46.48155273 508.99055664 -47.40576172 508.82470703 C-107.21588904 498.00212011 -164.72995829 463.94435543 -201.6875 415.3125 C-202.10418945 414.77222168 -202.52087891 414.23194336 -202.95019531 413.67529297 C-210.6334873 403.6802884 -217.37592968 393.22040964 -223.6875 382.3125 C-224.08179199 381.63525879 -224.47608398 380.95801758 -224.88232422 380.26025391 C-238.06461173 357.3416244 -246.67010918 331.76677437 -252 305.9375 C-252.14743652 305.22682373 -252.29487305 304.51614746 -252.44677734 303.78393555 C-255.43213787 288.14141634 -256.0623098 272.50580394 -256 256.625 C-255.99817719 255.65760895 -255.99635437 254.6902179 -255.99447632 253.69351196 C-255.94904826 239.36059023 -255.44016072 225.41476083 -252.6875 211.3125 C-252.44604248 209.96696045 -252.44604248 209.96696045 -252.19970703 208.59423828 C-241.37712011 148.78411096 -207.31935543 91.27004171 -158.6875 54.3125 C-158.14722168 53.89581055 -157.60694336 53.47912109 -157.05029297 53.04980469 C-147.0552884 45.3665127 -136.59540964 38.62407032 -125.6875 32.3125 C-125.01025879 31.91820801 -124.33301758 31.52391602 -123.63525391 31.11767578 C-100.7166244 17.93538827 -75.14177437 9.32989082 -49.3125 4 C-48.60182373 3.85256348 -47.89114746 3.70512695 -47.15893555 3.55322266 C-31.51641634 0.56786213 -15.88080394 -0.0623098 0 0 Z " fill="#40B3E5" transform="translate(255.6875,-0.3125)"/>
<path d="M0 0 C5.91978704 4.90812583 11.33945469 10.21026997 16.7590332 15.66137695 C17.72210158 16.62636808 18.68540053 17.59112914 19.64891052 18.55567932 C21.71011182 20.62002298 23.76975401 22.68590485 25.82818031 24.75301552 C29.08199645 28.02042146 32.33968406 31.28394918 35.59794617 34.54692078 C42.50577459 41.46581259 49.40934273 48.38894812 56.3125 55.3125 C63.78331473 62.80534634 71.25486754 70.2974481 78.73128575 77.78470391 C81.97193256 81.03033838 85.21012471 84.27839641 88.44647086 87.528319 C90.45425379 89.54354157 92.46408868 91.55670785 94.47449684 93.56931114 C95.85459966 94.95218887 97.23218714 96.33757544 98.60971069 97.72302246 C99.426931 98.54031326 100.24415131 99.35760406 101.08613586 100.19966125 C101.79788625 100.91363225 102.50963663 101.62760324 103.24295521 102.36320972 C104.91472335 104.07504318 104.91472335 104.07504318 107 105 C107.63092152 150.04132538 107.63092152 150.04132538 104 169 C103.83902832 169.90137695 103.67805664 170.80275391 103.51220703 171.73144531 C92.68501103 231.53584204 58.62780837 289.04553383 10 326 C9.45972168 326.41668945 8.91944336 326.83337891 8.36279297 327.26269531 C-38.12698304 363 -38.12698304 363 -57 363 C-58.41546726 361.66274261 -58.41546726 361.66274261 -59.96083069 359.73376465 C-64.84651411 353.91149791 -70.2482991 348.61979384 -75.62670898 343.25976562 C-76.79050332 342.09625386 -77.95407652 340.93252087 -79.1174469 339.76858521 C-82.25519377 336.63055307 -85.39600004 333.49559969 -88.53739047 330.36121559 C-91.82767734 327.0772074 -95.11510624 323.79034072 -98.40284729 320.50378418 C-104.61965193 314.29007959 -110.83899983 308.07892713 -117.0592795 301.86870146 C-124.14472588 294.7944575 -131.22731104 287.71735189 -138.30966461 280.64001179 C-152.86994211 266.09016863 -167.43378528 251.5438991 -182 237 C-180.37026273 233.55220166 -178.54292699 231.2999859 -175.82568359 228.59863281 C-174.96494232 227.7380426 -174.10420105 226.87745239 -173.21737671 225.99078369 C-172.28712677 225.07085632 -171.35687683 224.15092896 -170.3984375 223.203125 C-169.43678914 222.24520903 -168.47558306 221.28684886 -167.51480103 220.32806396 C-164.99076718 217.81164875 -162.46078409 215.30129893 -159.92950439 212.79217529 C-157.3452081 210.22837559 -154.76659801 207.65887082 -152.1875 205.08984375 C-147.13054303 200.05430543 -142.06727744 195.0251544 -137 190 C-134.18952068 191.37485407 -131.70942753 192.83360251 -129.19140625 194.6953125 C-128.45543213 195.23792725 -127.71945801 195.78054199 -126.96118164 196.33959961 C-126.1696167 196.92878174 -125.37805176 197.51796387 -124.5625 198.125 C-123.72775146 198.74318604 -122.89300293 199.36137207 -122.03295898 199.99829102 C-114.95143095 205.25793322 -107.93206926 210.59796705 -100.92358398 215.9543457 C-86.7349227 226.79710624 -72.4314 237.48257061 -58 248 C-57.83890747 247.15646973 -57.83890747 247.15646973 -57.67456055 246.29589844 C-56.2324538 238.90389777 -54.53935092 231.58000247 -52.8125 224.25 C-52.50242013 222.92769614 -52.19252832 221.60534816 -51.8828125 220.28295898 C-51.08082198 216.85988327 -50.27724718 213.43718184 -49.47320557 210.0145874 C-48.14606639 204.36453158 -46.82184876 198.71379575 -45.5 193.0625 C-45.06856689 191.21906006 -45.06856689 191.21906006 -44.62841797 189.33837891 C-42.66819193 180.93600298 -40.76399011 172.52229019 -38.88009644 164.1026001 C-36.4595678 153.28724487 -33.92456974 142.51265137 -31.19677734 131.77050781 C-28.56379469 121.36786764 -26.1839139 110.91009206 -23.79296875 100.44970703 C-22.40222127 94.39944168 -20.97960967 88.35663385 -19.5625 82.3125 C-17.28333737 72.58421335 -15.0593107 62.84531746 -12.87826538 53.09472656 C-10.00614528 40.25957323 -6.95324236 27.48369356 -3.69726562 14.74072266 C-2.44826546 9.83131235 -1.22523793 4.91538515 0 0 Z " fill="#0091C8" transform="translate(405,132)"/>
<path d="M0 0 C-2.47659851 13.62995121 -5.66426041 27.05547564 -8.9755249 40.50094604 C-11.45188574 50.56114626 -13.85947995 60.62549868 -16.0625 70.75 C-18.22990154 80.70474958 -20.57554535 90.6055848 -23 100.5 C-25.72545727 111.62729697 -28.32505826 122.77163517 -30.78125 133.9621582 C-34.83500606 152.40537875 -39.15017386 170.78344574 -43.79858398 189.08569336 C-45.97735738 197.74052764 -47.90124219 206.44502521 -49.80957031 215.1628418 C-55.1515187 239.45455609 -55.1515187 239.45455609 -58 248 C-60.86679674 246.64913667 -63.36480222 245.11382476 -65.9140625 243.234375 C-67.04134766 242.40486328 -67.04134766 242.40486328 -68.19140625 241.55859375 C-68.99449219 240.96175781 -69.79757812 240.36492187 -70.625 239.75 C-71.46675781 239.12738281 -72.30851563 238.50476563 -73.17578125 237.86328125 C-79.60169196 233.08947315 -85.92620657 228.1949305 -92.22485352 223.25512695 C-98.36983145 218.45099325 -104.62834637 213.81579174 -110.9230957 209.21044922 C-119.04196904 203.26150017 -127.0285562 197.14444196 -135 191 C-138.48972003 192.49530324 -140.73465395 194.49191662 -143.40136719 197.17431641 C-144.2619574 198.03505768 -145.12254761 198.89579895 -146.00921631 199.78262329 C-146.92914368 200.71287323 -147.84907104 201.64312317 -148.796875 202.6015625 C-149.75479097 203.56321086 -150.71315114 204.52441694 -151.67193604 205.48519897 C-154.18835125 208.00923282 -156.69870107 210.53921591 -159.20782471 213.07049561 C-161.77162441 215.6547919 -164.34112918 218.23340199 -166.91015625 220.8125 C-171.94569457 225.86945697 -176.9748456 230.93272256 -182 236 C-184.44808441 233.55191559 -184.69182481 231.94723322 -185.515625 228.6015625 C-185.7943042 227.49208252 -186.0729834 226.38260254 -186.36010742 225.23950195 C-186.65377197 224.04671631 -186.94743652 222.85393066 -187.25 221.625 C-189.3907501 213.12881032 -191.60381781 204.6852972 -194.1875 196.3125 C-195.95521223 190.57259394 -197.59771219 184.84029758 -199 179 C-200.73646425 171.78925864 -202.84006426 164.72151048 -205.0703125 157.6484375 C-205.44542969 156.43800781 -205.44542969 156.43800781 -205.828125 155.203125 C-206.0540332 154.48801758 -206.27994141 153.77291016 -206.51269531 153.03613281 C-207 151 -207 151 -207 147 C-207.58405609 146.85200455 -208.16811218 146.70400909 -208.76986694 146.55152893 C-218.01059315 144.12596988 -227.04004071 141.10220399 -236.1015625 138.08984375 C-237.83221068 137.51595453 -239.56287295 136.9421078 -241.29354858 136.36830139 C-244.89646917 135.17279004 -248.49852152 133.97470156 -252.10009766 132.77514648 C-256.72367989 131.2357622 -261.35043341 129.70614824 -265.9779911 128.17876339 C-269.54144478 127.00082489 -273.1026494 125.8162027 -276.66324997 124.6296711 C-278.36974311 124.06224486 -280.07706307 123.49729912 -281.78520584 122.93485832 C-284.1595058 122.15232053 -286.53049866 121.36048021 -288.90087891 120.56616211 C-289.60935974 120.33494659 -290.31784058 120.10373108 -291.04779053 119.86550903 C-295.8858571 118.22828581 -295.8858571 118.22828581 -297 116 C-267.32110709 104.21739533 -237.62515265 92.48038055 -207.90039062 80.81396484 C-205.57030618 79.89943016 -203.24022795 78.98487964 -200.91015625 78.0703125 C-199.7859024 77.62904022 -198.66164856 77.18776794 -197.50332642 76.73312378 C-187.99735526 73.00102518 -178.49740601 69.25383094 -169 65.5 C-147.69691502 57.08130758 -126.37414177 48.71275502 -105.0526123 40.34091187 C-96.4429957 36.96011508 -87.83452558 33.57641066 -79.2265625 30.19140625 C-66.52037898 25.19502887 -53.81233823 20.20340258 -41.10217285 15.21716309 C-38.0988596 14.03878838 -35.09580537 12.85975547 -32.09277344 11.68066406 C-27.72178987 9.96498718 -23.34941233 8.25291816 -18.97570801 6.54418945 C-17.42569266 5.93809216 -15.87612105 5.33085865 -14.32702637 4.72241211 C-12.25310185 3.90810341 -10.17759819 3.09797057 -8.1015625 2.2890625 C-6.38960693 1.61931396 -6.38960693 1.61931396 -4.64306641 0.93603516 C-2 0 -2 0 0 0 Z " fill="#FEFEFE" transform="translate(405,132)"/>
<path d="M0 0 C0.99 0.495 0.99 0.495 2 1 C-1.42480831 4.52113104 -4.87887447 7.94477854 -8.625 11.125 C-12.43944456 14.40512548 -15.96563435 17.92524737 -19.5 21.5 C-23.50911462 25.55466627 -27.5586452 29.43978166 -31.91015625 33.12890625 C-35.27496075 36.14150691 -38.40545188 39.38572042 -41.57836914 42.59790039 C-44.88599763 45.93059062 -48.29656607 49.05208116 -51.875 52.09375 C-54.69393932 54.62250439 -57.33938837 57.30646001 -60 60 C-63.82988013 63.87727963 -67.72051302 67.56243606 -71.875 71.09375 C-74.69393956 73.62250461 -77.33938576 76.30646246 -80 79 C-83.22398087 82.26382615 -86.43517847 85.46830141 -89.9375 88.4375 C-93.65957668 91.6000996 -97.0686634 95.02970414 -100.5 98.5 C-104.50062554 102.54604848 -108.53527961 106.43032691 -112.88671875 110.1015625 C-116.40748975 113.2643993 -119.68436117 116.68040891 -122.96508789 120.09008789 C-124.2739194 121.42968025 -125.63329669 122.71950413 -127 124 C-127.66 124 -128.32 124 -129 124 C-124.44551275 128.90703124 -119.21310983 132.79494168 -113.875 136.8125 C-112.93954346 137.52083984 -112.00408691 138.22917969 -111.0402832 138.95898438 C-104.74722918 143.71390642 -98.42569972 148.42526296 -92 153 C-96.81437438 158.79835896 -101.99248432 164.12281785 -107.3359375 169.43359375 C-108.65496567 170.7504995 -108.65496567 170.7504995 -110.00064087 172.0940094 C-112.78974058 174.87754412 -115.58231018 177.65756769 -118.375 180.4375 C-120.2752542 182.33216665 -122.17474653 184.2275963 -124.07421875 186.12304688 C-128.71350604 190.75135161 -133.35564167 195.37678421 -138 200 C-140.44808441 197.55191559 -140.69182481 195.94723322 -141.515625 192.6015625 C-141.7943042 191.49208252 -142.0729834 190.38260254 -142.36010742 189.23950195 C-142.65377197 188.04671631 -142.94743652 186.85393066 -143.25 185.625 C-145.3907501 177.12881032 -147.60381781 168.6852972 -150.1875 160.3125 C-151.95521223 154.57259394 -153.59771219 148.84029758 -155 143 C-156.73646425 135.78925864 -158.84006426 128.72151048 -161.0703125 121.6484375 C-161.32039062 120.84148437 -161.57046875 120.03453125 -161.828125 119.203125 C-162.0540332 118.48801758 -162.27994141 117.77291016 -162.51269531 117.03613281 C-163 115 -163 115 -163 111 C-163.66 110.67 -164.32 110.34 -165 110 C-164.18998535 109.62447998 -163.3799707 109.24895996 -162.54541016 108.86206055 C-158.20759825 106.68793079 -154.27515728 103.9375083 -150.2734375 101.20703125 C-149.42592926 100.63321213 -148.57842102 100.05939301 -147.70523071 99.46818542 C-145.87991575 98.23187849 -144.05568119 96.9939752 -142.23242188 95.75463867 C-137.35526094 92.43971939 -132.47008216 89.13664811 -127.5859375 85.83203125 C-126.59865662 85.16358185 -125.61137573 84.49513245 -124.59417725 83.806427 C-115.75831506 77.82729341 -106.88533578 71.90525278 -98 66 C-83.88670686 56.61515429 -69.8270921 47.15249844 -55.78302002 37.66442871 C-41.12873558 27.76516617 -26.43412235 17.92828718 -11.70117188 8.14648438 C-10.62236252 7.42939301 -10.62236252 7.42939301 -9.52175903 6.69781494 C-8.18330982 5.80823746 -6.84421441 4.9196312 -5.50436401 4.03216553 C-2.61144593 2.19502783 -2.61144593 2.19502783 0 0 Z " fill="#CFD1D7" transform="translate(361,168)"/>
<path d="M0 0 C5.850462 1.20390822 11.49288614 2.68710319 17.15014648 4.59790039 C18.28846672 4.97631828 18.28846672 4.97631828 19.44978333 5.36238098 C21.92502465 6.18646925 24.3980721 7.01693314 26.87109375 7.84765625 C28.60210151 8.42567941 30.33322838 9.00334602 32.06446838 9.58067322 C35.67533175 10.78582185 39.28519768 11.99389516 42.89428711 13.2043457 C47.52555343 14.75757475 52.15856528 16.3055144 56.79223537 17.85155582 C60.35877139 19.04178406 63.92473801 20.2337098 67.49049568 21.42626762 C69.19968395 21.99789781 70.90896687 22.56924506 72.61834526 23.14030647 C74.99796548 23.93579693 77.37689576 24.7333149 79.75561523 25.53149414 C80.81765671 25.88606689 80.81765671 25.88606689 81.90115356 26.24780273 C86.77058714 27.88529357 86.77058714 27.88529357 89 29 C89.85082178 31.37366946 90.57527972 33.70006136 91.25 36.125 C91.46325928 36.86911133 91.67651855 37.61322266 91.89624023 38.37988281 C94.00072675 45.80962203 95.9151926 53.28993269 97.83886719 60.76806641 C99.1186041 65.71819421 100.44658302 70.6270405 102 75.5 C103.93800265 81.59203364 105.56872952 87.75464268 107.1875 93.9375 C107.44982422 94.93394531 107.71214844 95.93039062 107.98242188 96.95703125 C109.19231111 101.61968531 110.32902268 106.22231811 111 111 C104.94346728 105.98678232 99.41529083 100.543882 93.8737793 94.97143555 C92.87130244 93.96703616 91.86859518 92.96286668 90.86567688 91.95890808 C88.71935266 89.80944035 86.57458743 87.65843365 84.431036 85.50620079 C81.04279748 82.10437764 77.65069201 78.70642794 74.25801086 75.30903625 C67.06486486 68.10482437 59.87597694 60.89637029 52.6875 53.6875 C44.90872811 45.88669861 37.12921987 38.08663982 29.34484607 30.29142791 C25.97039364 26.91198719 22.59839544 23.53012209 19.22824228 20.14639413 C17.13742325 18.04813607 15.04455272 15.95193366 12.95110893 13.85629463 C11.97868642 12.88199451 11.0071315 11.90682762 10.03649521 10.93074799 C8.71520043 9.60227476 7.39055359 8.27713796 6.0657196 6.95219421 C5.32447185 6.20872584 4.58322409 5.46525747 3.81951427 4.69925976 C2.09875782 2.93119524 2.09875782 2.93119524 0 2 C0 1.34 0 0.68 0 0 Z " fill="#0191C8" transform="translate(109,250)"/>
<path d="M0 0 C6.20317804 4.00930428 12.0867496 8.29058454 17.875 12.875 C24.48407101 18.06598024 31.14398601 23.13736453 38 28 C33.18562562 33.79835896 28.00751568 39.12281785 22.6640625 44.43359375 C21.78471039 45.31153091 20.90535828 46.18946808 19.99935913 47.0940094 C17.21025942 49.87754412 14.41768982 52.65756769 11.625 55.4375 C9.7247458 57.33216665 7.82525347 59.2275963 5.92578125 61.12304688 C1.28649396 65.75135161 -3.35564167 70.37678421 -8 75 C-8.66 73.68 -9.32 72.36 -10 71 C-9.67 71 -9.34 71 -9 71 C-8.901996 70.14000397 -8.803992 69.28000793 -8.70301819 68.39395142 C-7.77999204 60.30025674 -6.85334536 52.20698666 -5.92260075 44.1141758 C-5.44419322 39.95329713 -4.96720098 35.79226625 -4.4934082 31.63085938 C-4.03635748 27.61695922 -3.57563488 23.60349624 -3.1123333 19.59031296 C-2.93598264 18.05702161 -2.76096903 16.5235759 -2.58729744 14.98997879 C-2.34434031 12.84657688 -2.09669001 10.70376676 -1.84790039 8.56103516 C-1.70800186 7.33969879 -1.56810333 6.11836243 -1.42396545 4.86001587 C-1 2 -1 2 0 0 Z " fill="#B6B9BE" transform="translate(231,293)"/>
<path d="M0 0 C0.66 0.33 1.32 0.66 2 1 C0.90220176 2.15193623 -0.20349446 3.29634937 -1.3125 4.4375 C-1.92738281 5.07558594 -2.54226563 5.71367187 -3.17578125 6.37109375 C-5 8 -5 8 -8 9 C-8.66 8.34 -9.32 7.68 -10 7 C-6.7 4.69 -3.4 2.38 0 0 Z " fill="#BFD4DE" transform="translate(361,168)"/>
</svg>
