<?xml version="1.0" encoding="UTF-8"?>
<svg version="1.1" xmlns="http://www.w3.org/2000/svg" width="512" height="512">
<path d="M0 0 C0.99868909 -0.00297112 1.99737819 -0.00594224 3.02633059 -0.0090034 C6.35908455 -0.01764635 9.69180239 -0.01919493 13.02456665 -0.02069092 C15.42015662 -0.02532233 17.81574585 -0.03034742 20.21133423 -0.03573608 C26.71186048 -0.04883371 33.21237985 -0.05533771 39.71291685 -0.05974674 C43.78023756 -0.06251761 47.84755591 -0.06675656 51.91487503 -0.07125092 C63.19913521 -0.08343966 74.48339352 -0.09373856 85.76766014 -0.09712601 C86.48888342 -0.09734557 87.2101067 -0.09756514 87.95318524 -0.09779136 C88.67603937 -0.09800964 89.39889351 -0.09822791 90.14365232 -0.09845281 C91.60818887 -0.09889626 93.07272542 -0.09934282 94.53726196 -0.09979248 C95.2637076 -0.10001391 95.99015323 -0.10023534 96.73861237 -0.10046348 C108.48858398 -0.10440477 120.23849332 -0.12184006 131.98844092 -0.145152 C144.08217627 -0.16895013 156.17588049 -0.18133175 168.26963961 -0.18249393 C175.04751456 -0.18340615 181.82530843 -0.18904286 188.60316086 -0.20731354 C194.98736375 -0.22388814 201.37141365 -0.2259044 207.75563049 -0.21717453 C210.08628883 -0.21640908 212.41695571 -0.22068117 214.74759293 -0.23063278 C258.07962913 -0.40465983 296.27158717 14.14096113 327.37026978 44.66778564 C335.82133285 53.25263113 342.72223089 62.77794547 348.81997681 73.14044189 C349.16657349 73.72519287 349.51317017 74.30994385 349.87026978 74.91241455 C362.01010239 95.68527045 368.98307225 119.22610484 368.9604187 143.32046509 C368.96487538 144.81849873 368.96487538 144.81849873 368.9694221 146.34679568 C368.97806505 149.67954963 368.97961363 153.01226748 368.98110962 156.34503174 C368.98574103 158.7406217 368.99076612 161.13621093 368.99615479 163.53179932 C369.00925242 170.03232557 369.01575642 176.53284494 369.02016544 183.03338194 C369.02293631 187.10070264 369.02717527 191.168021 369.03166962 195.23534012 C369.04385836 206.5196003 369.05415726 217.80385861 369.05754471 229.08812523 C369.05776427 229.80934851 369.05798384 230.53057179 369.05821006 231.27365033 C369.05842834 231.99650446 369.05864662 232.7193586 369.05887151 233.46411741 C369.05931496 234.92865396 369.05976152 236.3931905 369.06021118 237.85772705 C369.06043261 238.58417268 369.06065404 239.31061832 369.06088218 240.05907746 C369.06482347 251.80904907 369.08225876 263.55895841 369.1055707 275.308906 C369.12936883 287.40264135 369.14175045 299.49634558 369.14291263 311.5901047 C369.14382485 318.36797965 369.14946156 325.14577352 369.16773224 331.92362595 C369.18430684 338.30782883 369.1863231 344.69187874 369.17759323 351.07609558 C369.17682778 353.40675392 369.18109987 355.7374208 369.19105148 358.06805801 C369.36507853 401.40009422 354.81945758 439.59205226 324.29263306 470.69073486 C315.70778757 479.14179794 306.18247323 486.04269597 295.81997681 492.14044189 C295.23522583 492.48703857 294.65047485 492.83363525 294.04800415 493.19073486 C273.27514825 505.33056748 249.73431386 512.30353734 225.63995361 512.28088379 C224.64126452 512.28385491 223.64257542 512.28682603 222.61362302 512.28988719 C219.28086907 512.29853014 215.94815122 512.30007872 212.61538696 512.30157471 C210.219797 512.30620611 207.82420777 512.31123121 205.42861938 512.31661987 C198.92809313 512.3297175 192.42757376 512.3362215 185.92703676 512.34063053 C181.85971606 512.3434014 177.7923977 512.34764035 173.72507858 512.3521347 C162.4408184 512.36432345 151.15656009 512.37462235 139.87229347 512.3780098 C138.79045855 512.37833915 138.79045855 512.37833915 137.68676838 512.37867515 C136.96391424 512.37889343 136.2410601 512.3791117 135.49630129 512.3793366 C134.03176474 512.37978005 132.5672282 512.38022661 131.10269165 512.38067627 C130.37624602 512.3808977 129.64980038 512.38111913 128.90134124 512.38134727 C117.15136963 512.38528855 105.40146029 512.40272385 93.6515127 512.42603579 C81.55777735 512.44983392 69.46407312 512.46221554 57.370314 512.46337771 C50.59243905 512.46428994 43.81464518 512.46992664 37.03679276 512.48819733 C30.65258987 512.50477193 24.26853996 512.50678819 17.88432312 512.49805832 C15.55366478 512.49729287 13.2229979 512.50156496 10.89236069 512.51151657 C-32.43967552 512.68554362 -70.63163355 498.13992266 -101.73031616 467.61309814 C-110.18137924 459.02825266 -117.08227727 449.50293832 -123.18002319 439.14044189 C-123.52661987 438.55569092 -123.87321655 437.97093994 -124.23031616 437.36846924 C-139.15366328 411.83265263 -143.96888288 384.22270078 -143.82699585 354.93341064 C-143.83379502 352.5269607 -143.84271086 350.12051597 -143.85354614 347.71408081 C-143.87607264 341.2594098 -143.86761464 334.80514453 -143.85165071 328.35046768 C-143.84267249 324.30057544 -143.84447118 320.25073325 -143.84910202 316.20083618 C-143.84986819 315.52315191 -143.85063435 314.84546765 -143.85142373 314.14724749 C-143.85302277 312.7694531 -143.85464384 311.39165874 -143.85628669 310.0138644 C-143.87045789 297.17115175 -143.8542884 284.32861914 -143.82728486 271.48593605 C-143.80495393 260.5272569 -143.80883651 249.56884283 -143.83187866 238.61016846 C-143.85879081 225.80542442 -143.86908541 213.00083715 -143.85381734 200.19606876 C-143.85222502 198.82406174 -143.85065316 197.45205468 -143.84910202 196.08004761 C-143.84833064 195.40544076 -143.84755927 194.73083391 -143.84676451 194.03578442 C-143.84249339 189.33985864 -143.8498857 184.64406472 -143.86149979 179.94815063 C-143.87611257 173.59803788 -143.86562045 167.2484178 -143.8370285 160.89835739 C-143.83050645 158.58998806 -143.83215941 156.2815761 -143.84334183 153.97322464 C-144.02984188 111.50758545 -129.37532516 73.193066 -99.75082397 42.66778564 C-73.70742027 16.77431011 -36.88675524 -0.03468097 0 0 Z " fill="#FE4060" transform="translate(143.18002319335938,-0.14044189453125)"/>
<path d="M0 0 C0.91519913 0.80719986 1.83039825 1.61439972 2.77333069 2.44606018 C6.83969632 5.93169391 11.0913504 9.14568391 15.35949039 12.37867355 C33.04433687 25.79621839 49.94900126 40.07936829 66.4375 54.9375 C67.13395929 55.56357462 67.83041858 56.18964924 68.54798269 56.83469582 C105.17736517 89.8749918 130.41187523 120.50784948 133.06310487 171.21378207 C133.69737912 185.41837424 133.303785 199.55838539 132.5625 213.75 C132.51562089 214.6804405 132.46874179 215.61088099 132.4204421 216.56951666 C131.14310398 241.52720109 128.68865055 266.28536504 125 291 C124.77436434 292.51331657 124.77436434 292.51331657 124.54417038 294.0572052 C118.47040637 334.02583292 98.59400978 370.44891172 66 395 C61.48356624 398.24882222 56.79308238 401.17954078 52 404 C51.41524902 404.34659668 50.83049805 404.69319336 50.22802734 405.05029297 C8.73391642 429.29980221 -43.44504049 427.81755727 -90.0625 429.5 C-91.05373902 429.53696535 -92.04497805 429.57393069 -93.06625462 429.6120162 C-138.89979076 431.27767372 -182.13473137 432.7324911 -217.74151677 400.35122955 C-224.39746394 394.15293783 -230.46346978 387.46559659 -236.375 380.5625 C-237.04433807 379.78443811 -237.04433807 379.78443811 -237.72719812 378.99065781 C-269 342.53744184 -269 342.53744184 -269 336 C-241.28 336 -213.56 336 -185 336 C-184.67 334.35 -184.34 332.7 -184 331 C-182.91263746 328.29621019 -181.78677045 325.64249912 -180.59765625 322.984375 C-180.24803329 322.19188354 -179.89841034 321.39939209 -179.53819275 320.58288574 C-178.38421364 317.96986912 -177.22331107 315.35998782 -176.0625 312.75 C-175.25792834 310.93090069 -174.45389961 309.11156115 -173.65039062 307.29199219 C-171.96714983 303.4814693 -170.28152818 299.67201285 -168.59423828 295.86328125 C-164.77453785 287.23635247 -160.98147474 278.59772705 -157.18942261 269.95861816 C-156.01553644 267.28538042 -154.84007405 264.61284046 -153.66430664 261.94042969 C-152.94283254 260.29884507 -152.22139504 258.65724436 -151.5 257.015625 C-151.01055153 255.90423157 -151.01055153 255.90423157 -150.51121521 254.77038574 C-149.92193268 253.42816974 -149.33707693 252.08399663 -148.7578125 250.73742676 C-148.1084086 249.24854697 -147.41756419 247.77786145 -146.71875 246.31152344 C-145.53673671 242.51013015 -146.48129804 240.01465383 -148.25244141 236.55004883 C-148.78015137 235.69435303 -149.30786133 234.83865723 -149.8515625 233.95703125 C-150.44864014 232.97790771 -151.04571777 231.99878418 -151.66088867 230.98999023 C-152.30904541 229.94141846 -152.95720215 228.89284668 -153.625 227.8125 C-154.99017256 225.57143141 -156.35369224 223.3294422 -157.71484375 221.0859375 C-158.06583633 220.50873459 -158.41682892 219.93153168 -158.77845764 219.33683777 C-162.67121533 212.92219111 -166.43833481 206.43682921 -170.1875 199.9375 C-170.81027832 198.86282471 -171.43305664 197.78814941 -172.07470703 196.6809082 C-175.23358848 191.19768938 -178.24393857 185.69677214 -181 180 C-180.34 180 -179.68 180 -179 180 C-177.73046875 181.29296875 -177.73046875 181.29296875 -176.1875 183.1875 C-172.70715881 187.27855645 -169.02955755 191.12541885 -165.25 194.9375 C-164.6830542 195.51717529 -164.1161084 196.09685059 -163.53198242 196.6940918 C-160.21376802 200.02589519 -160.21376802 200.02589519 -156 202 C-154.52050781 204.16357422 -154.52050781 204.16357422 -152.953125 207.0546875 C-152.36345947 208.13024902 -151.77379395 209.20581055 -151.16625977 210.31396484 C-150.52742627 211.50093338 -149.88867535 212.68794636 -149.25 213.875 C-148.58033402 215.10291582 -147.90966343 216.33028423 -147.23803711 217.55712891 C-145.84279036 220.10760397 -144.45191467 222.66039097 -143.06396484 225.21484375 C-139.93856578 230.95805002 -136.74669972 236.66426223 -133.5625 242.375 C-128.35590176 251.73951287 -123.17254644 261.11665889 -118 270.5 C-112.78193341 279.96450629 -107.55649567 289.4248256 -102.3125 298.875 C-101.76787109 299.85791016 -101.22324219 300.84082031 -100.66210938 301.85351562 C-99.50139286 303.9433471 -98.29152596 306.00633822 -97.04418945 308.0456543 C-95.23298077 311.21493533 -94.26276073 314.37140458 -93.24291992 317.87036133 C-90.83768652 324.88985102 -88.26030958 330.69185901 -82 335 C-69.03621787 339.49794865 -53.31214433 337.55453734 -39.8503418 337.04284668 C-34.56867458 336.866927 -29.28601484 336.82308143 -24.00195312 336.76757812 C-13.66284208 336.63976992 -3.33320586 336.36671793 7 336 C6.5878273 335.28635284 6.1756546 334.57270569 5.75099182 333.83743286 C-1.54750793 321.19877402 -8.84298156 308.55901583 -16.0625 295.875 C-20.99451181 287.22221866 -25.96829535 278.59526125 -31 270 C-36.00745104 261.44450589 -40.96154859 252.85975755 -45.875 244.25 C-46.20788025 243.6667395 -46.5407605 243.083479 -46.88372803 242.48254395 C-49.59800516 237.72563102 -52.30942831 232.96709282 -55.02075195 228.20849609 C-57.38751432 224.05491026 -59.75538194 219.90195739 -62.125 215.75 C-62.45804138 215.16641724 -62.79108276 214.58283447 -63.13421631 213.98156738 C-67.71285351 205.96221532 -72.33550365 197.96973138 -77 190 C-84.076922 177.90841215 -91.02653905 165.74545051 -97.96337891 153.57324219 C-101.32652051 147.67198311 -104.69378067 141.7730765 -108.0625 135.875 C-108.55964508 135.00445984 -108.55964508 135.00445984 -109.0668335 134.11633301 C-114.46847928 124.65942621 -119.90382207 115.2222594 -125.35351562 105.79296875 C-129.94965953 97.8353219 -134.51074947 89.85807015 -139.0625 81.875 C-144.55099239 72.24967857 -150.10000178 62.6616792 -155.69799805 53.09960938 C-162.23789231 41.91228705 -168.65040244 30.65278892 -175.06542969 19.39355469 C-178.37217737 13.59297508 -181.68626056 7.79658737 -185 2 C-184.34 1.67 -183.68 1.34 -183 1 C-182.65742661 1.41362793 -182.31485321 1.82725586 -181.9618988 2.25341797 C-175.70833637 9.60597536 -168.80610921 16.31926772 -161.97265625 23.125 C-160.61480652 24.48098158 -159.25717967 25.8371864 -157.89976501 27.19360352 C-154.34941401 30.7401606 -150.79606883 34.28370261 -147.24206543 37.82659912 C-143.60680922 41.4515736 -139.97442901 45.07942749 -136.34179688 48.70703125 C-129.23065698 55.80748901 -122.1163467 62.90476097 -115 70 C-116.03499672 73.2450989 -117.06404289 76.11859794 -118.6875 79.125 C-120.17060669 82.3737099 -120.13774269 82.78382129 -119 86 C-118.06120798 87.87705515 -117.06832776 89.72739049 -116.04296875 91.55859375 C-115.43066406 92.65679443 -114.81835938 93.75499512 -114.1875 94.88647461 C-113.52101635 96.0702528 -112.85434553 97.25392563 -112.1875 98.4375 C-111.50621701 99.65421401 -110.82523015 100.87109389 -110.14453125 102.08813477 C-101.90213481 116.80440353 -93.54952659 131.459784 -85 146 C-82.61814975 142.96456324 -80.67330138 139.82289274 -78.76953125 136.46875 C-78.13966309 135.36241211 -77.50979492 134.25607422 -76.86083984 133.11621094 C-76.17805882 131.9108079 -75.4952789 130.70540424 -74.8125 129.5 C-74.09876918 128.24494703 -73.384734 126.9900671 -72.67041016 125.73535156 C-71.18510571 123.1257111 -69.70111418 120.51533137 -68.21826172 117.90429688 C-64.77843554 111.84834152 -61.32812267 105.79838115 -57.875 99.75 C-57.5436203 99.16922699 -57.2122406 98.58845398 -56.87081909 97.99008179 C-52.25452408 89.90191754 -47.58504728 81.84643069 -42.875 73.8125 C-38.15471334 65.75985377 -33.54082457 57.65514385 -29 49.5 C-19.69436001 32.79404851 -10.18219382 16.19032061 0 0 Z " fill="#DF3854" transform="translate(387,88)"/>
<path d="M0 0 C27.39 0 54.78 0 83 0 C87.95 8.91 92.9 17.82 98 27 C101.63194876 33.2077936 101.63194876 33.2077936 105.29296875 39.3984375 C108.85156341 45.41099966 112.29225663 51.49162959 115.75 57.5625 C120.84642886 66.50865227 125.9824227 75.42890474 131.1875 84.3125 C136.24543365 92.94731884 141.20174181 101.63392322 146.10620117 110.35668945 C150.0052116 117.27691644 153.98399917 124.14708909 158 131 C162.56860165 138.79586993 167.07147891 146.62370797 171.5 154.5 C175.86969588 162.26989237 180.30711014 169.99549468 184.8125 177.6875 C189.88328692 186.34673501 194.90200841 195.03429694 199.875 203.75 C200.37441101 204.62520798 200.37441101 204.62520798 200.88391113 205.51809692 C202.57781167 208.48722636 204.27085374 211.45684417 205.96337891 214.42675781 C209.32652044 220.32801676 212.69368174 226.22698012 216.0625 232.125 C216.39359772 232.70469543 216.72469543 233.28439087 217.06582642 233.88165283 C224.3376553 246.6106208 231.66488261 259.30742721 239 272 C241.47992741 276.29122774 243.95918184 280.58284265 246.4375 284.875 C247.3510022 286.45667969 247.3510022 286.45667969 248.28295898 288.0703125 C251.64510166 293.89773251 254.99308057 299.7329456 258.32421875 305.578125 C258.68460739 306.21021881 259.04499603 306.84231262 259.41630554 307.49356079 C261.15803224 310.5489197 262.89789266 313.60531487 264.63452148 316.66357422 C267.32816696 321.39342369 270.0249606 326.09544287 272.9609375 330.6796875 C275 334 275 334 275 336 C263.48247223 336.18535052 251.96529907 336.32750175 240.44658375 336.41449738 C235.09788659 336.4562515 229.75020957 336.51288353 224.40209961 336.60351562 C219.24082611 336.6904342 214.08053369 336.73827244 208.91858482 336.75901794 C206.94926185 336.77380143 204.9799927 336.80267178 203.01108742 336.84584045 C200.25206119 336.90392734 197.49708802 336.91191369 194.73754883 336.90820312 C193.92330948 336.93696533 193.10907013 336.96572754 192.27015686 336.99536133 C189.92463367 336.96122962 188.19055718 336.84731294 186 336 C183.77917621 333.57599946 182.40345058 330.95350877 181 328 C180.40654785 326.96319092 179.8130957 325.92638184 179.20166016 324.8581543 C178.65300293 323.85695557 178.1043457 322.85575684 177.5390625 321.82421875 C176.91064453 320.68082031 176.28222656 319.53742188 175.63476562 318.359375 C175.14423706 317.4631543 175.14423706 317.4631543 174.64379883 316.54882812 C173.23690065 313.9784491 171.82489672 311.41088682 170.41314697 308.84317017 C169.68256028 307.51434295 168.95221491 306.18538303 168.22210693 304.85629272 C164.66992716 298.39200044 161.08716107 291.94494864 157.5 285.5 C152.31418385 276.17714607 147.14946967 266.84295379 142 257.5 C134.3652467 243.64889395 126.68809763 229.82157204 119 216 C110.97285826 201.56889842 102.96100807 187.12972323 94.99002075 172.6675415 C89.56431658 162.82407094 84.11343748 152.99484648 78.64892578 143.17285156 C75.40845737 137.34528302 72.17665476 131.51312822 68.9609375 125.671875 C68.62381241 125.05954514 68.28668732 124.44721527 67.93934631 123.81632996 C67.25794535 122.5785982 66.57655396 121.34086118 65.89517212 120.1031189 C65.55851532 119.49158966 65.22185852 118.88006042 64.875 118.25 C64.37158585 117.33548569 64.37158585 117.33548569 63.85800171 116.40249634 C59.39600684 108.30031487 54.88351309 100.228814 50.3125 92.1875 C45.38188255 83.51312543 40.60275767 74.76519307 35.87426758 65.97924805 C32.16516271 59.10460921 28.36321315 52.28909735 24.5 45.5 C19.91695254 37.43998989 15.41901241 29.33868403 11 21.1875 C10.47212891 20.21554688 9.94425781 19.24359375 9.40039062 18.2421875 C6.14271423 12.21068933 3.07022896 6.14045792 0 0 Z " fill="#FEEDF1" transform="translate(119,88)"/>
<path d="M0 0 C2.76390525 3.32201232 5.08024189 6.64737161 7.21484375 10.40234375 C8.1111853 11.96952148 8.1111853 11.96952148 9.02563477 13.56835938 C9.65655029 14.68017578 10.28746582 15.79199219 10.9375 16.9375 C12.27647526 19.28119242 13.61871714 21.62300864 14.9609375 23.96484375 C15.2985762 24.55478119 15.6362149 25.14471863 15.98408508 25.75253296 C19.29465956 31.5306062 22.66883851 37.27035737 26.0625 43 C26.57353271 43.86359131 27.08456543 44.72718262 27.61108398 45.61694336 C28.34693726 46.8584314 28.34693726 46.8584314 29.09765625 48.125 C29.80365967 49.32576172 29.80365967 49.32576172 30.52392578 50.55078125 C31.56363167 52.27594325 32.63844796 53.98018535 33.73779297 55.66796875 C34.57721436 56.97701172 34.57721436 56.97701172 35.43359375 58.3125 C35.94849365 59.09238281 36.46339355 59.87226563 36.99389648 60.67578125 C38.62731518 64.44917265 37.39427987 66.96882099 35.97875977 70.67089844 C35.55393311 71.6405957 35.12910645 72.61029297 34.69140625 73.609375 C34.20051514 74.73625732 33.70962402 75.86313965 33.20385742 77.02416992 C32.65681461 78.26614691 32.10969291 79.50808914 31.5625 80.75 C30.99086909 82.05751362 30.41967317 83.36521748 29.84887695 84.6730957 C27.90645144 89.11856828 25.95340606 93.55934408 24 98 C23.25026727 99.7055408 22.50059446 101.41110794 21.75097656 103.11669922 C21.36794876 103.98811554 20.98492096 104.85953186 20.59028625 105.75735474 C19.80290197 107.54887486 19.0156205 109.34044018 18.22843933 111.13204956 C16.30354661 115.51274779 14.37688889 119.89264445 12.44555664 124.27050781 C11.71758652 125.92381749 10.98963962 127.57713739 10.26171875 129.23046875 C9.95050079 129.93409042 9.63928284 130.6377121 9.31863403 131.36265564 C5.43356538 140.19629683 1.74630758 149.10251949 -2 158 C-29.72 158 -57.44 158 -86 158 C-84.478658 154.196645 -82.90185917 150.78703705 -80.98046875 147.1953125 C-80.07566772 145.50269287 -80.07566772 145.50269287 -79.15258789 143.77587891 C-78.49778138 142.55879938 -77.84274624 141.34184284 -77.1875 140.125 C-76.68571732 139.18995636 -76.68571732 139.18995636 -76.17379761 138.23602295 C-71.23928514 129.04347657 -66.16890259 119.9381688 -60.99365234 110.87866211 C-56.45334778 102.89129414 -52.11798842 94.80286389 -47.8125 86.6875 C-42.45096446 76.58329042 -37.01503911 66.53080772 -31.42431641 56.55126953 C-28.32675703 51.00284726 -25.25840777 45.43820219 -22.1875 39.875 C-21.8470163 39.25853607 -21.50653259 38.64207214 -21.1557312 38.00692749 C-15.67742432 28.08540649 -10.25785814 18.13362712 -4.8972168 8.14794922 C-4.39617432 7.21740723 -3.89513184 6.28686523 -3.37890625 5.328125 C-2.9413501 4.5124707 -2.50379395 3.69681641 -2.05297852 2.85644531 C-1 1 -1 1 0 0 Z " fill="#FEEDF1" transform="translate(204,266)"/>
<path d="M0 0 C27.06 0 54.12 0 82 0 C72.65759832 17.12773642 63.13995731 34.13784924 53.26074219 50.96191406 C48.99939264 58.23744707 44.85241547 65.57131825 40.75 72.9375 C36.5754128 80.43223674 32.35090408 87.88495042 27.96777344 95.25952148 C23.89730419 102.12659037 19.95135598 109.0640411 16 116 C10.08369446 126.38334259 4.10543703 136.72642807 -2 147 C-5.31296225 143.98050524 -7.34246434 140.93867081 -9.46875 137.00390625 C-9.78591476 136.42234772 -10.10307953 135.84078918 -10.42985535 135.24160767 C-11.10795359 133.99671256 -11.78297719 132.75013855 -12.45516968 131.50204468 C-14.22304086 128.22030115 -16.01390817 124.95111038 -17.80078125 121.6796875 C-18.15727249 121.02540268 -18.51376373 120.37111786 -18.88105774 119.69700623 C-22.08468016 113.8231409 -25.36406976 107.9944487 -28.6875 102.1875 C-29.15542969 101.36644775 -29.62335938 100.54539551 -30.10546875 99.69946289 C-30.54890625 98.92594482 -30.99234375 98.15242676 -31.44921875 97.35546875 C-31.8673584 96.62505371 -32.28549805 95.89463867 -32.71630859 95.14208984 C-33.5933576 93.67856227 -34.51573485 92.24150614 -35.47509766 90.83056641 C-35.94351074 90.1401123 -36.41192383 89.4496582 -36.89453125 88.73828125 C-37.3222583 88.13669189 -37.74998535 87.53510254 -38.19067383 86.9152832 C-39.35134771 84.16853009 -38.88520622 82.8486904 -38 80 C-36.84637237 77.33215788 -35.65347368 74.72601221 -34.38671875 72.11328125 C-34.02096237 71.34699905 -33.65520599 70.58071686 -33.27836609 69.79121399 C-32.08632804 67.29592291 -30.88685774 64.80427988 -29.6875 62.3125 C-28.03525119 58.85926974 -26.38682597 55.40421852 -24.73828125 51.94921875 C-24.32928589 51.0934021 -23.92029053 50.23758545 -23.49890137 49.35583496 C-19.59832521 41.18441198 -15.80171997 32.96810049 -12.05737305 24.72387695 C-8.23693493 16.36308168 -4.12138902 8.24277803 0 0 Z " fill="#FEEDF1" transform="translate(305,88)"/>
</svg>
