<?xml version="1.0" encoding="UTF-8"?>
<svg version="1.1" xmlns="http://www.w3.org/2000/svg" width="512" height="512">
<path d="M0 0 C2.45260646 -0.00135997 4.90521272 -0.0031432 7.3578186 -0.00531006 C13.25619516 -0.00934949 19.15455993 -0.00882369 25.05293613 -0.00589742 C29.85852954 -0.00361453 34.66411941 -0.00334316 39.46971321 -0.00442123 C40.50598542 -0.00465108 40.50598542 -0.00465108 41.56319242 -0.00488558 C42.96779879 -0.00520539 44.37240515 -0.0055296 45.77701152 -0.00585817 C58.86818332 -0.00869205 71.95934806 -0.00545915 85.0505187 -0.0000578 C96.21711365 0.00440731 107.3836982 0.00363262 118.55029297 -0.00097656 C131.6014967 -0.00636133 144.65269428 -0.00841652 157.70389897 -0.0053643 C159.10288783 -0.00504584 160.50187669 -0.00473147 161.90086555 -0.00442123 C162.58871654 -0.00426696 163.27656754 -0.00411268 163.98526249 -0.00395373 C168.76938122 -0.00310014 173.55349595 -0.00452613 178.33761406 -0.00690079 C184.80986572 -0.01004357 191.2821026 -0.00771965 197.75435257 -0.00200653 C200.10542964 -0.00070358 202.45650839 -0.00103003 204.80758476 -0.0032692 C247.72552846 -0.04032133 247.72552846 -0.04032133 268.31469727 2.44189453 C269.42627197 2.57233154 270.53784668 2.70276855 271.68310547 2.8371582 C296.55869594 5.91353016 322.40255414 12.44562469 339.21704102 32.46923828 C346.16852421 41.85450115 350.21874687 51.95295889 353.00219727 63.19189453 C353.20087402 63.9747583 353.39955078 64.75762207 353.60424805 65.56420898 C358.27631086 85.85985802 357.56664873 106.92343982 357.55377984 127.60970736 C357.5526953 131.07281496 357.55763094 134.53590482 357.56238526 137.99900854 C357.57340938 146.1891317 357.57395884 154.37920898 357.56787109 162.56933594 C357.56184357 170.93989835 357.57412775 179.31029215 357.59544116 187.68082583 C357.6132202 194.93763705 357.61903302 202.19439542 357.61580342 209.45122755 C357.61401542 213.75432206 357.61637107 218.05729642 357.63051796 222.36037064 C357.74024297 258.927624 357.17767992 297.62576623 334.25219727 328.12939453 C333.82938477 328.71591797 333.40657227 329.30244141 332.97094727 329.90673828 C316.38359446 351.17133883 287.41136619 356.95388965 262.25219727 360.12939453 C255.081898 360.95608597 247.92715249 361.40745427 240.71609497 361.68380737 C239.63009479 361.72593475 238.5440946 361.76806213 237.42518532 361.8114661 C225.55977246 362.23787312 213.7015015 362.2701775 201.82983398 362.25878906 C199.40044122 362.26014882 196.97104867 362.26193194 194.54165649 362.26409912 C188.69729043 362.26814006 182.85293891 362.26761208 177.00857244 362.26468648 C172.24916406 362.26240496 167.48975927 362.26213165 162.73035049 362.2632103 C162.04653806 362.26336353 161.36272562 362.26351676 160.6581916 362.26367464 C159.26799177 362.26399444 157.87779194 362.26431866 156.48759212 362.26464723 C143.52959906 362.26748145 130.57161314 362.26424733 117.61362125 362.25884686 C106.55092297 362.25437869 95.4882352 362.25515889 84.42553711 362.25976562 C71.50292734 362.26514453 58.58032379 362.26720906 45.65771306 362.26415336 C44.27394621 362.26383489 42.89017936 362.26352052 41.50641251 362.2632103 C40.82599601 362.26305602 40.14557951 362.26290175 39.44454434 362.2627428 C34.70264059 362.26188769 29.96074086 362.2633185 25.21883774 362.26568985 C18.81145137 362.26860793 12.40408457 362.26652161 5.99670029 362.26079559 C3.66490715 362.259489 1.33311232 362.25982566 -0.99868011 362.26205826 C-95.37366285 362.34399216 -95.37366285 362.34399216 -126.20092773 331.74658203 C-127.04139648 330.88291016 -127.88186523 330.01923828 -128.74780273 329.12939453 C-129.76100586 328.11232422 -129.76100586 328.11232422 -130.79467773 327.07470703 C-156.78394524 299.36048814 -155.07057061 254.97719423 -155.04938531 219.64203548 C-155.04830255 216.05691441 -155.05323185 212.47181055 -155.05799073 208.88669324 C-155.06902133 200.41240433 -155.06956013 191.93815977 -155.06347656 183.46386719 C-155.05744398 174.78936841 -155.0697446 166.11503214 -155.09104663 157.44056106 C-155.10879457 149.93074077 -155.11464338 142.42097157 -155.11140889 134.91113114 C-155.10961655 130.45330002 -155.11202261 125.9955848 -155.12612343 121.53777313 C-155.32860525 51.47918185 -155.32860525 51.47918185 -133.11108398 28.40283203 C-108.58634898 4.81044232 -72.05872655 1.78323498 -39.60704041 0.57498169 C-38.48372375 0.53285431 -37.3604071 0.49072693 -36.20305055 0.44732296 C-24.13483118 0.02718713 -12.0742129 -0.01148855 0 0 Z M44.25219727 116.12939453 C43.02759373 118.5786016 43.11830701 120.17740967 43.10502625 122.91642761 C43.09787094 123.92717346 43.09071564 124.93791931 43.08334351 125.97929382 C43.0806546 127.09254532 43.0779657 128.20579681 43.07519531 129.3527832 C43.06862411 130.52201324 43.06205292 131.69124329 43.05528259 132.89590454 C43.03551206 136.77971744 43.0238772 140.66351685 43.01391602 144.54736328 C43.00986825 145.88510979 43.00575132 147.2228561 43.00156593 148.56060219 C42.98250996 154.84770204 42.96828174 161.13479014 42.95995396 167.42191333 C42.95018994 174.6733762 42.92389437 181.92453313 42.88345307 189.17588824 C42.85325477 194.78363747 42.83848145 200.39129922 42.83517295 205.99912816 C42.83282592 209.34686322 42.82193094 212.6940127 42.79871178 216.04170799 C42.77439011 219.78106438 42.77527337 223.51962209 42.78222656 227.2590332 C42.7694165 228.36216354 42.75660645 229.46529388 42.7434082 230.60185242 C42.78681216 237.00788614 43.41330246 240.93098837 47.25219727 246.12939453 C51.42367084 249.65197221 54.78666854 251.03675845 60.25219727 251.12939453 C66.51654628 249.59777438 72.126434 246.83152404 77.75219727 243.75439453 C79.41840066 242.86030148 81.08509353 241.96712019 82.75219727 241.07470703 C83.63649414 240.59936523 84.52079102 240.12402344 85.43188477 239.63427734 C90.51554077 236.92170328 95.63610472 234.28012082 100.75219727 231.62939453 C108.80337225 227.44983938 116.84242589 223.24884644 124.86279297 219.01049805 C130.6849047 215.93958206 136.53164242 212.91796958 142.3828125 209.90283203 C148.01601604 206.99766639 153.63580189 204.06689951 159.25219727 201.12939453 C160.5733252 200.44151855 160.5733252 200.44151855 161.92114258 199.73974609 C174.00915479 193.61105448 174.00915479 193.61105448 182.25219727 183.12939453 C182.62584373 177.52469762 182.46080724 173.9423095 179.25219727 169.12939453 C174.3809156 164.54195132 169.00964084 161.69688567 163.06469727 158.69189453 C160.99306441 157.62812803 158.9214506 156.56432444 156.84985352 155.50048828 C155.76849121 154.9486084 154.68712891 154.39672852 153.57299805 153.828125 C148.03613975 150.9957871 142.52092203 148.12185316 137.00219727 145.25439453 C134.72111693 144.07177555 132.43986554 142.88948646 130.15844727 141.70751953 C128.45108398 140.82290039 128.45108398 140.82290039 126.70922852 139.92041016 C125.5684082 139.329375 124.42758789 138.73833984 123.25219727 138.12939453 C118.66867151 135.75476565 114.0853125 133.37981564 109.50219727 131.00439453 C108.39078369 130.42842529 107.27937012 129.85245605 106.13427734 129.2590332 C97.7248626 124.89871006 89.32495088 120.52035872 80.93481445 116.12304688 C79.2182604 115.22516198 77.50005859 114.33041845 75.7800293 113.43920898 C74.03237818 112.53365092 72.28879984 111.62020498 70.54858398 110.70043945 C69.67347168 110.24644775 68.79835937 109.79245605 67.89672852 109.32470703 C67.11789307 108.91623535 66.33905762 108.50776367 65.53662109 108.08691406 C56.42521237 104.267854 49.63605589 108.55211202 44.25219727 116.12939453 Z " fill="#D7143A" transform="translate(154.747802734375,74.87060546875)"/>
</svg>
